{"glyphs":{"0":{"ha":842,"x_min":160,"x_max":853,"o":"m 432 -18 q 274 34 333 -18 q 187 169 214 86 q 160 347 160 253 q 183 565 160 453 q 255 774 206 678 q 385 931 304 871 q 581 990 465 990 q 745 934 686 990 q 828 794 804 878 q 853 628 853 711 q 831 415 853 528 q 760 204 810 303 q 631 44 711 106 q 432 -18 550 -18 m 446 115 q 577 172 525 115 q 659 313 629 229 q 701 480 689 397 q 714 614 714 563 q 682 780 714 703 q 565 857 650 857 q 433 799 485 857 q 351 655 381 740 q 310 488 322 569 q 299 357 299 406 q 330 191 299 267 q 446 115 361 115 z "},"1":{"ha":486,"x_min":176,"x_max":504,"o":"m 193 0 l 326 757 l 176 757 l 194 860 q 316 884 263 860 q 400 972 369 908 l 504 972 l 333 0 l 193 0 z "},"2":{"ha":797,"x_min":83,"x_max":839,"o":"m 83 0 q 161 226 104 138 q 297 374 218 315 q 458 485 375 433 q 620 590 544 536 q 696 733 696 644 q 659 824 696 788 q 551 860 622 860 q 427 824 478 860 q 347 722 376 788 l 235 781 q 365 931 279 872 q 565 989 450 989 q 764 917 689 989 q 839 742 839 844 q 794 581 839 646 q 674 467 749 517 q 513 365 600 417 q 365 261 431 317 q 276 136 299 206 l 736 136 l 713 0 l 83 0 z "},"3":{"ha":783,"x_min":99,"x_max":800,"o":"m 419 -17 q 198 54 275 -17 q 99 211 121 125 l 229 260 q 301 149 251 185 q 419 114 350 114 q 556 163 497 114 q 614 301 614 211 q 576 401 614 361 q 461 440 539 440 l 382 440 l 404 571 l 476 571 q 605 617 553 571 q 657 736 657 664 q 622 824 657 789 q 525 858 586 858 q 343 738 400 858 l 224 785 q 343 929 264 869 q 538 989 422 989 q 727 925 654 989 q 800 760 800 861 q 755 608 800 672 q 629 507 710 543 q 724 423 690 482 q 757 297 757 364 q 658 68 757 153 q 419 -17 560 -17 z "},"4":{"ha":815,"x_min":69,"x_max":828,"o":"m 497 0 l 538 228 l 69 228 l 86 325 l 675 972 l 810 972 l 701 358 l 828 358 l 804 228 l 679 228 l 639 0 l 497 0 m 561 358 l 629 749 l 278 358 l 561 358 z "},"5":{"ha":811,"x_min":101,"x_max":836,"o":"m 413 -17 q 212 39 294 -17 q 101 164 129 94 l 218 231 q 292 153 244 190 q 428 115 340 115 q 590 173 522 115 q 657 333 657 231 q 616 456 657 406 q 493 506 575 506 q 387 481 432 506 q 310 421 342 456 l 194 475 l 331 972 l 836 972 l 814 838 l 429 838 l 353 583 q 426 620 382 604 q 529 636 469 636 q 726 558 651 636 q 800 347 800 479 q 694 83 800 182 q 413 -17 589 -17 z "},"6":{"ha":789,"x_min":119,"x_max":776,"o":"m 415 -17 q 194 72 268 -17 q 119 290 119 161 q 164 517 119 403 q 292 731 208 631 q 495 900 376 831 q 763 990 614 969 l 740 858 q 497 746 608 828 q 328 540 385 664 q 409 590 360 569 q 519 610 458 610 q 706 536 635 610 q 776 349 776 463 q 671 82 776 181 q 415 -17 565 -17 m 422 114 q 575 171 513 114 q 638 322 638 228 q 595 435 638 392 q 481 478 553 478 q 329 420 392 478 q 267 268 267 363 q 308 157 267 200 q 422 114 349 114 z "},"7":{"ha":682,"x_min":185,"x_max":807,"o":"m 213 0 q 349 439 254 231 q 617 840 443 647 l 185 840 l 207 972 l 807 972 l 788 857 q 563 567 650 722 q 426 263 475 411 q 360 0 378 115 l 213 0 z "},"8":{"ha":807,"x_min":126,"x_max":825,"o":"m 426 -17 q 207 63 288 -17 q 126 256 126 142 q 190 444 126 367 q 360 546 253 521 q 286 605 324 563 q 249 719 249 647 q 333 909 249 829 q 560 989 417 989 q 755 921 685 989 q 825 756 825 853 q 774 609 825 668 q 649 528 722 550 q 749 449 708 506 q 789 314 789 392 q 692 81 789 178 q 426 -17 596 -17 m 438 111 q 584 164 525 111 q 643 311 643 217 q 601 419 643 372 q 476 467 560 467 q 328 410 386 467 q 271 268 271 353 q 316 155 271 199 q 438 111 361 111 m 522 590 q 636 631 589 590 q 683 740 683 672 q 649 826 683 790 q 550 863 614 863 q 438 822 486 863 q 390 713 390 781 q 424 628 390 665 q 522 590 457 590 z "},"9":{"ha":789,"x_min":172,"x_max":833,"o":"m 214 -17 l 236 117 q 474 222 361 139 q 638 442 586 306 q 553 388 606 408 q 435 367 500 367 q 248 438 324 367 q 172 631 172 508 q 282 890 172 792 q 544 989 392 989 q 759 903 685 989 q 833 676 833 817 q 794 451 833 567 q 678 236 756 336 q 485 68 601 136 q 214 -17 368 0 m 467 494 q 626 556 565 494 q 688 704 688 618 q 649 813 688 769 q 533 857 611 857 q 379 796 443 857 q 315 646 315 735 q 357 536 315 578 q 467 494 399 494 z "},"Ð":{"ha":921,"x_min":104,"x_max":936,"o":"m 117 0 l 192 419 l 104 419 l 128 550 l 214 550 l 288 972 l 561 972 q 774 913 692 972 q 897 756 857 853 q 936 547 936 660 q 910 365 936 460 q 824 187 883 269 q 664 52 764 104 q 415 0 564 0 l 117 0 m 281 132 l 425 132 q 638 197 558 132 q 751 358 717 263 q 786 543 786 453 q 730 751 786 663 q 551 839 674 839 l 406 839 l 354 550 l 553 550 l 529 419 l 332 419 l 281 132 z "},"ð":{"ha":739,"x_min":113,"x_max":753,"o":"m 372 -17 q 181 60 250 -17 q 113 260 113 138 q 215 526 113 419 q 463 633 318 633 q 565 609 526 633 q 622 551 603 585 q 601 680 619 617 q 540 786 583 743 l 440 694 l 383 765 l 465 842 q 400 866 435 857 q 326 878 365 875 l 347 989 q 461 972 406 986 q 563 931 517 958 l 654 1015 l 713 944 l 633 872 q 721 715 689 811 q 753 493 753 619 q 653 125 753 267 q 372 -17 554 -17 m 390 114 q 531 179 468 114 q 594 343 594 244 q 558 458 594 414 q 457 503 522 503 q 315 438 376 503 q 253 271 253 372 q 289 156 253 199 q 390 114 325 114 z "},"Ł":{"ha":738,"x_min":67,"x_max":735,"o":"m 115 0 l 174 333 l 67 260 l 97 418 l 201 489 l 286 972 l 428 972 l 364 606 l 550 735 l 519 576 l 336 449 l 281 135 l 735 135 l 711 0 l 115 0 z "},"ł":{"ha":360,"x_min":74,"x_max":440,"o":"m 97 401 l 190 467 l 276 951 l 424 1003 l 347 574 l 440 638 l 417 507 l 324 442 l 246 0 l 108 0 l 167 335 l 74 271 l 97 401 z "},"Š":{"ha":799,"x_min":111,"x_max":838,"o":"m 685 756 q 632 828 669 797 q 528 858 594 858 q 407 822 450 858 q 364 731 364 785 q 405 648 364 679 q 506 591 446 617 q 628 531 567 565 q 730 440 689 497 q 771 289 771 383 q 672 64 771 144 q 417 -17 572 -17 q 216 50 293 -17 q 111 215 139 117 l 243 264 q 313 156 267 194 q 435 117 358 117 q 571 158 519 117 q 622 276 622 200 q 581 374 622 338 q 481 438 540 411 q 361 498 421 465 q 260 583 301 531 q 219 722 219 635 q 305 913 219 836 q 538 989 390 989 q 728 930 661 989 q 813 801 794 871 l 685 756 m 611 1028 l 475 1028 l 325 1244 l 447 1244 l 561 1126 l 714 1244 l 838 1244 l 611 1028 z "},"š":{"ha":632,"x_min":83,"x_max":726,"o":"m 332 -17 q 181 19 247 -17 q 83 110 115 54 l 185 189 q 246 131 206 158 q 343 103 286 103 q 431 126 393 103 q 469 194 469 149 q 423 267 469 240 q 315 322 376 294 q 208 394 254 350 q 161 515 161 438 q 235 670 161 614 q 419 726 308 726 q 563 693 503 726 q 651 615 622 660 l 550 539 q 497 585 531 563 q 408 608 464 608 q 327 585 360 608 q 294 524 294 563 q 342 458 294 483 q 451 406 389 433 q 560 331 513 378 q 607 203 607 285 q 533 42 607 101 q 332 -17 458 -17 m 500 799 l 364 799 l 214 1015 l 336 1015 l 450 897 l 603 1015 l 726 1015 l 500 799 z "},"Ý":{"ha":865,"x_min":210,"x_max":996,"o":"m 360 0 l 429 390 l 210 972 l 357 972 l 518 524 l 839 972 l 996 972 l 569 383 l 501 0 l 360 0 m 657 1021 l 525 1021 l 753 1238 l 935 1238 l 657 1021 z "},"ý":{"ha":714,"x_min":136,"x_max":822,"o":"m 136 -269 l 289 18 l 158 710 l 297 710 l 376 247 q 382 212 379 229 q 386 189 385 194 q 398 215 389 197 q 415 247 407 232 l 661 710 l 810 710 l 283 -269 l 136 -269 m 544 799 l 413 799 l 640 1015 l 822 1015 l 544 799 z "},"Þ":{"ha":839,"x_min":115,"x_max":890,"o":"m 115 0 l 286 972 l 428 972 l 397 790 l 628 790 q 785 751 728 790 q 866 654 842 713 q 890 536 890 596 q 851 375 890 453 q 733 247 813 297 q 533 197 654 197 l 292 197 l 257 0 l 115 0 m 557 331 q 704 394 661 331 q 747 517 747 458 q 719 613 747 568 q 614 657 692 657 l 374 657 l 315 331 l 557 331 z "},"þ":{"ha":756,"x_min":57,"x_max":763,"o":"m 411 -17 q 313 5 350 -17 q 253 61 275 26 l 203 -226 l 57 -281 l 272 942 l 418 996 l 356 649 q 433 703 390 681 q 538 726 476 726 q 701 647 639 726 q 763 436 763 568 q 657 102 763 221 q 411 -17 551 -17 m 410 114 q 567 199 510 114 q 625 419 625 283 q 591 547 625 497 q 492 596 557 596 q 403 572 447 596 q 331 508 358 547 l 276 197 q 326 139 294 164 q 410 114 357 114 z "},"Ž":{"ha":847,"x_min":74,"x_max":939,"o":"m 74 0 l 92 106 l 729 840 l 251 840 l 274 972 l 939 972 l 919 865 l 285 132 l 792 132 l 768 0 l 74 0 m 672 1028 l 536 1028 l 386 1244 l 508 1244 l 622 1126 l 775 1244 l 899 1244 l 672 1028 z "},"ž":{"ha":683,"x_min":78,"x_max":774,"o":"m 78 0 l 96 100 l 519 585 l 207 585 l 229 710 l 725 710 l 708 611 l 282 124 l 621 124 l 599 0 l 78 0 m 547 799 l 411 799 l 261 1015 l 383 1015 l 497 897 l 650 1015 l 774 1015 l 547 799 z "},"½":{"ha":1008,"x_min":11,"x_max":1015,"o":"m 11 -17 l 826 989 l 958 989 l 143 -17 l 11 -17 m 156 393 l 233 833 l 168 833 l 183 921 q 247 937 224 921 q 286 979 271 953 l 371 979 l 268 393 l 156 393 m 626 439 q 713 552 657 508 q 849 596 768 596 q 971 553 926 596 q 1015 444 1015 511 q 965 309 1015 356 q 824 213 915 263 q 700 107 732 161 l 956 107 l 936 0 l 547 0 q 638 192 569 122 q 799 313 706 261 q 869 363 842 338 q 896 431 896 389 q 881 472 896 453 q 829 490 865 490 q 721 408 757 490 l 626 439 z "},"¼":{"ha":946,"x_min":11,"x_max":958,"o":"m 11 -17 l 826 989 l 958 989 l 143 -17 l 11 -17 m 156 393 l 233 833 l 168 833 l 183 921 q 247 937 224 921 q 286 979 271 953 l 371 979 l 268 393 l 156 393 m 713 0 l 735 131 l 458 131 l 471 201 l 826 586 l 924 586 l 861 232 l 933 232 l 915 131 l 843 131 l 821 0 l 713 0 m 753 232 l 789 432 l 608 232 l 753 232 z "},"¹":{"ha":263,"x_min":188,"x_max":404,"o":"m 188 617 l 265 1057 l 200 1057 l 215 1144 q 280 1160 256 1144 q 319 1203 304 1175 l 404 1203 l 300 617 l 188 617 z "},"¾":{"ha":1128,"x_min":114,"x_max":1139,"o":"m 192 -17 l 1007 989 l 1139 989 l 324 -17 l 192 -17 m 293 379 q 172 422 217 379 q 114 536 126 464 l 224 571 q 313 482 239 482 q 383 509 357 482 q 408 576 408 536 q 392 623 408 603 q 339 643 375 643 l 290 643 l 308 742 l 347 742 q 413 769 392 742 q 433 828 433 797 q 419 868 433 850 q 375 886 404 886 q 318 867 343 886 q 275 817 293 847 l 185 853 q 278 951 219 914 q 403 989 336 989 q 512 950 472 989 q 551 854 551 911 q 522 761 551 803 q 453 700 493 719 q 525 588 525 672 q 460 438 525 496 q 293 379 396 379 m 894 0 l 917 131 l 640 131 l 653 201 l 1008 586 l 1106 586 l 1043 232 l 1115 232 l 1097 131 l 1025 131 l 1003 0 l 894 0 m 935 232 l 971 432 l 790 232 l 935 232 z "},"³":{"ha":461,"x_min":156,"x_max":592,"o":"m 264 796 q 294 730 271 753 q 354 707 318 707 q 424 733 399 707 q 449 796 449 758 q 431 846 449 825 q 381 867 414 867 l 331 867 l 349 965 l 388 965 q 451 993 431 965 q 472 1051 472 1021 q 458 1092 472 1075 q 414 1110 443 1110 q 359 1090 385 1110 q 315 1040 333 1071 l 225 1076 q 316 1174 260 1136 q 442 1213 372 1213 q 551 1174 510 1213 q 592 1078 592 1135 q 563 983 592 1025 q 493 924 533 942 q 544 881 524 913 q 565 804 565 849 q 503 660 565 717 q 344 604 442 604 q 214 647 260 604 q 156 761 168 690 l 264 796 z "},"²":{"ha":472,"x_min":140,"x_max":610,"o":"m 140 617 q 220 797 161 732 q 392 929 279 863 q 462 981 435 956 q 489 1046 489 1007 q 474 1088 489 1069 q 422 1107 458 1107 q 315 1025 349 1107 l 219 1056 q 306 1169 250 1125 q 442 1213 361 1213 q 566 1166 522 1213 q 610 1056 610 1119 q 569 938 610 983 q 429 833 529 892 q 351 780 383 806 q 301 724 319 754 l 549 724 l 529 617 l 140 617 z "},"¦":{"ha":360,"x_min":201,"x_max":346,"o":"m 201 508 l 201 1146 l 346 1146 l 346 508 l 201 508 m 201 -312 l 201 325 l 346 325 l 346 -312 l 201 -312 z "},"−":{"ha":840,"x_min":188,"x_max":813,"o":"m 188 543 l 813 543 l 813 408 l 188 408 l 188 543 z "},"×":{"ha":840,"x_min":183,"x_max":819,"o":"m 503 378 l 285 157 l 183 258 l 404 478 l 185 696 l 282 792 l 500 574 l 718 793 l 819 693 l 599 475 l 818 256 l 721 158 l 503 378 z "}," ":{"ha":307,"x_min":0,"x_max":0,"o":""},"!":{"ha":360,"x_min":96,"x_max":422,"o":"m 199 268 l 233 681 l 289 989 l 422 989 l 368 681 l 256 268 l 199 268 m 179 -18 q 119 7 142 -18 q 96 67 96 32 q 130 149 96 114 q 208 183 164 183 q 271 158 247 183 q 294 99 294 133 q 261 16 294 50 q 179 -18 228 -18 z "},"\"":{"ha":535,"x_min":189,"x_max":646,"o":"m 442 585 l 483 972 l 646 972 l 550 585 l 442 585 m 189 585 l 231 972 l 393 972 l 296 585 l 189 585 z "},"#":{"ha":903,"x_min":101,"x_max":975,"o":"m 169 0 l 256 264 l 101 264 l 143 385 l 293 385 l 367 607 l 218 607 l 256 726 l 404 726 l 490 972 l 604 972 l 525 726 l 699 726 l 779 972 l 900 972 l 821 726 l 975 726 l 936 607 l 785 607 l 711 385 l 860 385 l 821 264 l 672 264 l 588 0 l 465 0 l 551 264 l 376 264 l 290 0 l 169 0 m 414 385 l 589 385 l 663 607 l 488 607 l 414 385 z "},"$":{"ha":775,"x_min":107,"x_max":800,"o":"m 296 -132 l 317 -8 q 171 76 222 13 q 107 214 119 139 l 236 261 q 297 157 253 197 q 415 117 342 117 q 553 160 501 117 q 606 281 606 203 q 567 378 606 342 q 471 442 528 415 q 357 501 414 469 q 261 583 300 532 q 222 718 222 633 q 292 889 222 808 q 492 986 361 969 l 511 1093 l 644 1093 l 625 979 q 749 909 706 961 q 800 800 792 857 l 668 757 q 623 826 657 797 q 524 856 589 856 q 410 822 451 856 q 368 735 368 788 q 407 653 368 683 q 503 596 446 622 q 617 536 560 569 q 713 448 674 503 q 751 303 751 393 q 674 91 751 176 q 457 -14 596 6 l 436 -132 l 296 -132 z "},"%":{"ha":1135,"x_min":176,"x_max":1131,"o":"m 368 488 q 226 553 269 488 q 183 692 183 619 q 212 825 183 756 q 298 942 240 894 q 444 989 356 989 q 585 922 543 989 q 628 783 628 856 q 598 643 628 711 q 510 531 568 575 q 368 488 453 488 m 382 600 q 476 654 442 600 q 510 775 510 708 q 490 848 510 819 q 429 876 469 876 q 335 822 368 876 q 303 701 303 767 q 321 631 303 661 q 382 600 339 600 m 315 -17 l 176 -17 l 990 989 l 1131 989 l 315 -17 m 865 -17 q 724 49 767 -17 q 681 188 681 115 q 709 322 681 253 q 795 438 738 390 q 942 485 853 485 q 1083 419 1040 485 q 1125 281 1125 353 q 1095 140 1125 208 q 1008 28 1065 72 q 865 -17 950 -17 m 879 96 q 973 150 939 96 q 1007 269 1007 204 q 987 343 1007 314 q 926 372 967 372 q 831 317 864 372 q 799 197 799 263 q 817 126 799 157 q 879 96 836 96 z "},"&":{"ha":894,"x_min":100,"x_max":875,"o":"m 706 0 l 638 108 q 491 15 569 47 q 331 -17 413 -17 q 161 47 222 -17 q 100 208 100 110 q 176 413 100 336 q 367 549 251 490 q 317 650 333 604 q 301 742 301 696 q 382 923 301 857 q 563 989 463 989 q 708 936 656 989 q 761 801 761 883 q 701 643 761 708 q 547 524 642 578 l 665 335 q 698 404 685 369 q 718 464 711 439 l 847 464 q 808 343 833 407 q 739 219 782 279 l 875 0 l 706 0 m 372 114 q 576 208 479 114 l 424 454 q 285 354 332 403 q 239 240 239 306 q 274 149 239 183 q 372 114 310 114 m 431 761 q 447 694 431 731 q 492 614 464 658 q 594 693 557 651 q 632 788 632 735 q 607 853 632 829 q 546 876 582 876 q 464 844 497 876 q 431 761 431 813 z "},"'":{"ha":282,"x_min":189,"x_max":393,"o":"m 231 972 l 393 972 l 296 585 l 189 585 l 231 972 z "},"(":{"ha":454,"x_min":142,"x_max":576,"o":"m 225 -181 q 167 -15 193 -121 q 142 215 142 92 q 188 553 142 406 q 302 809 233 701 q 440 989 371 917 l 576 989 q 466 845 538 947 q 335 587 394 743 q 276 226 276 431 q 306 -30 276 83 q 354 -181 336 -143 l 225 -181 z "},")":{"ha":454,"x_min":28,"x_max":451,"o":"m 28 -181 q 133 -40 64 -139 q 260 213 203 60 q 317 569 317 367 q 286 833 317 714 q 235 989 256 951 l 364 989 q 426 818 400 928 q 451 582 451 708 q 408 247 451 392 q 297 -3 364 103 q 163 -181 231 -108 l 28 -181 z "},"*":{"ha":703,"x_min":186,"x_max":772,"o":"m 476 536 l 460 624 l 417 536 l 303 401 l 210 483 l 322 610 l 403 664 l 326 668 l 186 721 l 240 840 l 378 790 l 440 742 l 433 828 l 463 992 l 592 992 l 563 831 l 522 742 l 601 794 l 749 840 l 772 718 l 618 668 l 531 664 l 588 611 l 663 475 l 550 400 l 476 536 z "},"+":{"ha":840,"x_min":182,"x_max":818,"o":"m 569 408 l 569 150 l 429 150 l 429 408 l 182 408 l 182 543 l 429 543 l 429 803 l 569 803 l 569 543 l 818 543 l 818 408 l 569 408 z "},",":{"ha":294,"x_min":33,"x_max":265,"o":"m 76 -196 l 33 -164 q 88 -107 54 -147 q 136 -18 122 -67 q 64 63 64 -8 q 98 149 64 117 q 175 182 132 182 q 240 156 214 182 q 265 83 265 131 q 208 -78 265 -3 q 76 -196 151 -153 z "},"-":{"ha":524,"x_min":161,"x_max":508,"o":"m 161 344 l 185 479 l 508 479 l 485 344 l 161 344 z "},".":{"ha":290,"x_min":63,"x_max":260,"o":"m 146 -18 q 85 7 107 -18 q 63 67 63 32 q 96 149 63 114 q 174 183 129 183 q 237 158 214 183 q 260 99 260 133 q 226 16 260 50 q 146 -18 193 -18 z "},"/":{"ha":651,"x_min":-51,"x_max":815,"o":"m -51 -181 l 679 989 l 815 989 l 85 -181 l -51 -181 z "},":":{"ha":290,"x_min":63,"x_max":346,"o":"m 146 -18 q 85 7 107 -18 q 63 67 63 32 q 96 149 63 114 q 174 183 129 183 q 237 158 214 183 q 260 99 260 133 q 226 16 260 50 q 146 -18 193 -18 m 231 471 q 170 496 193 471 q 147 556 147 521 q 181 638 147 603 q 260 672 215 672 q 323 647 300 672 q 346 588 346 622 q 312 505 346 539 q 231 471 278 471 z "},";":{"ha":290,"x_min":31,"x_max":346,"o":"m 74 -196 l 31 -164 q 83 -106 51 -147 q 129 -18 114 -65 q 61 63 61 -6 q 95 149 61 117 q 172 182 129 182 q 237 156 211 182 q 263 83 263 131 q 206 -78 263 -3 q 74 -196 149 -153 m 231 471 q 170 496 193 471 q 147 556 147 521 q 181 638 147 603 q 260 672 215 672 q 323 647 300 672 q 346 588 346 622 q 312 505 346 539 q 231 471 278 471 z "},"<":{"ha":840,"x_min":190,"x_max":826,"o":"m 826 151 l 190 415 l 190 535 l 826 800 l 826 660 l 371 476 l 826 292 l 826 151 z "},"=":{"ha":840,"x_min":182,"x_max":818,"o":"m 182 540 l 182 675 l 818 675 l 818 540 l 182 540 m 182 276 l 182 410 l 818 410 l 818 276 l 182 276 z "},">":{"ha":840,"x_min":179,"x_max":815,"o":"m 815 415 l 179 151 l 179 292 l 635 476 l 179 660 l 179 800 l 815 535 l 815 415 z "},"?":{"ha":667,"x_min":143,"x_max":753,"o":"m 300 263 l 306 294 q 376 456 326 397 q 480 553 425 514 q 574 633 535 592 q 614 742 614 674 q 583 822 614 788 q 486 857 551 857 q 349 806 406 857 q 278 664 293 756 l 143 664 q 272 902 169 815 q 510 989 375 989 q 690 922 628 989 q 753 760 753 854 q 711 605 753 661 q 612 509 669 549 q 505 422 554 469 q 440 294 456 375 l 435 263 l 300 263 m 321 -18 q 259 7 282 -18 q 236 67 236 32 q 270 149 236 114 q 349 183 304 183 q 412 158 389 183 q 435 99 435 133 q 401 16 435 50 q 321 -18 368 -18 z "},"@":{"ha":1071,"x_min":133,"x_max":1115,"o":"m 547 -17 q 245 92 357 -17 q 133 386 133 200 q 213 689 133 551 q 428 908 293 826 q 728 990 563 990 q 1013 889 910 990 q 1115 639 1115 788 q 1071 426 1115 521 q 954 276 1026 332 q 799 221 882 221 q 724 244 753 221 q 693 310 694 267 q 615 239 660 264 q 525 214 569 214 q 410 267 453 214 q 368 407 368 319 q 455 639 368 539 q 665 739 542 739 q 747 713 715 739 q 783 642 778 686 l 810 721 l 921 721 l 822 436 q 805 388 811 408 q 799 356 799 368 q 832 321 799 321 q 915 363 875 321 q 982 475 956 406 q 1008 626 1008 544 q 931 808 1008 739 q 718 878 854 878 q 475 813 581 878 q 310 640 369 749 q 251 399 251 531 q 329 182 251 269 q 561 94 407 94 q 658 101 607 94 q 753 118 708 107 l 703 0 q 632 -12 672 -7 q 547 -17 592 -17 m 563 325 q 683 391 633 325 q 732 533 732 457 q 656 629 732 629 q 535 565 583 629 q 486 421 486 500 q 506 351 486 378 q 563 325 526 325 z "},"A":{"ha":915,"x_min":51,"x_max":865,"o":"m 51 0 l 563 972 l 693 972 l 865 0 l 721 0 l 683 226 l 321 226 l 203 0 l 51 0 m 386 354 l 663 354 l 607 685 q 601 727 606 700 q 594 767 596 754 q 577 728 589 754 q 557 686 565 703 l 386 354 z "},"B":{"ha":882,"x_min":114,"x_max":901,"o":"m 285 972 l 643 972 q 844 903 786 972 q 901 753 901 833 q 876 636 901 686 q 811 553 851 586 q 726 504 771 519 q 830 427 793 483 q 867 299 867 371 q 832 155 867 224 q 718 43 797 86 q 508 0 639 0 l 114 0 l 285 972 m 513 131 q 635 156 589 131 q 700 221 681 182 q 719 300 719 260 q 684 398 719 357 q 554 439 649 439 l 335 439 l 279 131 l 513 131 m 551 568 q 710 614 658 568 q 761 725 761 660 q 735 803 761 767 q 628 840 708 840 l 404 840 l 357 568 l 551 568 z "},"C":{"ha":851,"x_min":154,"x_max":922,"o":"m 488 -17 q 299 41 372 -17 q 190 191 225 99 q 154 389 154 283 q 212 679 154 542 q 376 902 269 817 q 635 988 483 988 q 828 928 758 988 q 922 800 897 868 l 799 742 q 730 823 772 792 q 625 854 688 854 q 447 783 519 854 q 337 608 374 713 q 300 400 300 503 q 346 208 300 297 q 497 119 392 119 q 625 156 574 119 q 710 243 676 193 l 832 188 q 690 39 775 94 q 488 -17 606 -17 z "},"D":{"ha":918,"x_min":114,"x_max":933,"o":"m 285 972 l 558 972 q 774 911 692 972 q 895 753 857 850 q 933 547 933 656 q 906 361 933 457 q 819 183 879 265 q 658 51 758 101 q 413 0 558 0 l 114 0 l 285 972 m 422 132 q 633 197 554 132 q 748 357 713 261 q 783 543 783 453 q 728 750 783 661 q 549 839 672 839 l 403 839 l 278 132 l 422 132 z "},"E":{"ha":799,"x_min":114,"x_max":871,"o":"m 114 0 l 285 972 l 871 972 l 849 839 l 406 839 l 358 568 l 636 568 l 611 436 l 335 436 l 282 132 l 753 132 l 729 0 l 114 0 z "},"F":{"ha":747,"x_min":114,"x_max":872,"o":"m 114 0 l 285 972 l 872 972 l 850 839 l 406 839 l 358 571 l 647 571 l 622 433 l 335 433 l 258 0 l 114 0 z "},"G":{"ha":906,"x_min":154,"x_max":929,"o":"m 494 -17 q 299 41 374 -17 q 189 192 224 99 q 154 390 154 285 q 208 678 154 542 q 370 902 263 815 q 635 989 478 989 q 833 927 764 989 q 929 804 901 865 l 803 736 q 735 819 779 783 q 618 854 692 854 q 442 785 514 854 q 333 611 369 717 q 296 397 296 506 q 344 201 296 285 q 501 117 392 117 q 651 171 592 117 q 729 315 711 225 l 736 353 l 567 353 l 590 479 l 911 479 l 897 404 q 813 158 872 250 q 672 24 754 65 q 494 -17 589 -17 z "},"H":{"ha":935,"x_min":114,"x_max":993,"o":"m 114 0 l 285 972 l 429 972 l 358 569 l 778 569 l 849 972 l 993 972 l 822 0 l 678 0 l 754 435 l 335 435 l 258 0 l 114 0 z "},"I":{"ha":372,"x_min":114,"x_max":429,"o":"m 114 0 l 285 972 l 429 972 l 258 0 l 114 0 z "},"J":{"ha":725,"x_min":64,"x_max":781,"o":"m 339 -17 q 160 36 232 -17 q 64 174 89 89 l 188 228 q 240 149 206 181 q 336 118 275 118 q 456 165 408 118 q 521 317 503 211 l 636 972 l 781 972 l 661 293 q 582 92 638 158 q 460 5 526 26 q 339 -17 394 -17 z "},"K":{"ha":896,"x_min":114,"x_max":954,"o":"m 688 0 l 513 507 l 310 293 l 258 0 l 114 0 l 285 972 l 429 972 l 349 513 l 783 972 l 954 972 l 619 619 l 839 0 l 688 0 z "},"L":{"ha":738,"x_min":114,"x_max":735,"o":"m 114 0 l 285 972 l 429 972 l 282 135 l 735 135 l 711 0 l 114 0 z "},"M":{"ha":1065,"x_min":114,"x_max":1124,"o":"m 525 -17 l 381 583 q 374 612 378 596 q 368 646 371 628 q 364 613 367 632 q 358 582 361 594 l 257 0 l 114 0 l 285 972 l 426 972 l 561 381 q 571 338 567 357 q 576 301 575 318 q 593 335 583 318 q 614 369 603 351 l 983 972 l 1124 972 l 953 0 l 810 0 l 913 583 q 920 619 915 597 q 926 650 925 640 q 909 616 919 633 q 892 586 899 599 l 525 -17 z "},"N":{"ha":939,"x_min":114,"x_max":997,"o":"m 114 0 l 285 972 l 418 972 l 706 318 q 719 285 710 308 q 731 253 728 263 q 735 284 732 263 q 740 317 739 306 l 856 972 l 997 972 l 826 0 l 693 0 l 414 629 q 395 674 408 642 q 379 715 382 707 q 374 675 379 708 q 367 628 369 642 l 256 0 l 114 0 z "},"O":{"ha":957,"x_min":154,"x_max":974,"o":"m 501 117 q 683 186 608 117 q 794 363 757 256 q 832 585 832 469 q 785 769 832 683 q 625 854 738 854 q 443 783 517 854 q 333 605 369 713 q 296 390 296 497 q 343 201 296 286 q 501 117 390 117 m 501 -17 q 299 42 375 -17 q 189 193 224 100 q 154 390 154 286 q 208 674 154 536 q 367 900 261 811 q 632 989 474 989 q 828 930 753 989 q 938 778 903 871 q 974 585 974 686 q 919 299 974 436 q 760 72 865 161 q 501 -17 656 -17 z "},"P":{"ha":839,"x_min":114,"x_max":922,"o":"m 114 0 l 285 972 l 657 972 q 863 889 803 972 q 922 715 922 806 q 884 554 922 631 q 768 429 846 478 q 571 381 690 381 l 325 381 l 258 0 l 114 0 m 586 511 q 735 575 692 511 q 779 703 779 639 q 751 796 779 750 q 644 842 724 842 l 406 842 l 347 511 l 586 511 z "},"Q":{"ha":957,"x_min":154,"x_max":974,"o":"m 699 -104 l 644 10 q 501 -17 576 -17 q 299 42 375 -17 q 189 193 224 100 q 154 390 154 286 q 208 674 154 536 q 367 900 261 811 q 632 989 474 989 q 828 930 753 989 q 938 778 903 871 q 974 585 974 686 q 919 297 974 436 q 760 72 865 157 l 815 -44 l 699 -104 m 501 117 q 586 135 543 117 l 533 246 l 651 304 l 699 203 q 798 374 764 269 q 832 585 832 478 q 785 769 832 683 q 625 854 738 854 q 443 783 517 854 q 333 605 369 713 q 296 390 296 497 q 343 201 296 286 q 501 117 390 117 z "},"R":{"ha":888,"x_min":114,"x_max":932,"o":"m 932 706 q 907 583 932 644 q 826 473 882 521 q 675 408 769 425 l 800 0 l 649 0 l 526 400 l 328 400 l 258 0 l 114 0 l 285 972 l 651 972 q 872 886 811 972 q 932 706 932 800 m 596 532 q 750 589 711 532 q 789 701 789 646 q 757 796 789 753 q 640 839 725 839 l 406 839 l 351 532 l 596 532 z "},"S":{"ha":799,"x_min":111,"x_max":813,"o":"m 685 756 q 632 828 669 797 q 528 858 594 858 q 407 822 450 858 q 364 731 364 785 q 405 648 364 679 q 506 591 446 617 q 628 531 567 565 q 730 440 689 497 q 771 289 771 383 q 672 64 771 144 q 417 -17 572 -17 q 216 50 293 -17 q 111 215 139 117 l 243 264 q 313 156 267 194 q 435 117 358 117 q 571 158 519 117 q 622 276 622 200 q 581 374 622 338 q 481 438 540 411 q 361 498 421 465 q 260 583 301 531 q 219 722 219 635 q 305 913 219 836 q 538 989 390 989 q 728 930 661 989 q 813 801 794 871 l 685 756 z "},"T":{"ha":781,"x_min":208,"x_max":892,"o":"m 611 838 l 463 0 l 318 0 l 467 838 l 208 838 l 231 972 l 892 972 l 869 838 l 611 838 z "},"U":{"ha":922,"x_min":168,"x_max":986,"o":"m 479 -17 q 258 54 347 -17 q 168 278 168 125 q 170 331 168 301 q 181 404 172 360 l 281 972 l 424 972 l 321 383 q 311 289 311 325 q 365 153 311 189 q 488 118 418 118 q 642 169 574 118 q 738 367 711 219 l 844 972 l 986 972 l 879 358 q 799 133 854 215 q 663 17 744 51 q 479 -17 582 -17 z "},"V":{"ha":876,"x_min":224,"x_max":997,"o":"m 378 0 l 224 972 l 371 972 l 468 308 q 474 256 471 286 q 476 213 476 226 q 490 252 481 228 q 513 300 500 276 l 842 972 l 997 972 l 510 0 l 378 0 z "},"W":{"ha":1113,"x_min":224,"x_max":1232,"o":"m 238 0 l 224 972 l 365 972 l 367 350 q 366 310 367 332 q 365 281 365 288 q 376 308 367 288 q 393 350 385 329 l 661 972 l 779 972 l 831 346 q 833 308 832 331 q 833 279 833 286 q 843 306 836 286 q 856 343 850 325 l 1082 972 l 1232 972 l 868 0 l 739 0 l 681 626 q 677 669 678 649 q 676 700 676 690 q 667 673 675 693 q 649 629 658 653 l 367 0 l 238 0 z "},"X":{"ha":829,"x_min":47,"x_max":931,"o":"m 47 0 l 425 513 l 242 972 l 394 972 l 521 640 l 763 972 l 931 972 l 579 497 l 778 0 l 626 0 l 483 368 l 217 0 l 47 0 z "},"Y":{"ha":865,"x_min":210,"x_max":996,"o":"m 360 0 l 429 390 l 210 972 l 357 972 l 518 524 l 839 972 l 996 972 l 569 383 l 501 0 l 360 0 z "},"Z":{"ha":847,"x_min":74,"x_max":939,"o":"m 74 0 l 92 106 l 729 840 l 251 840 l 274 972 l 939 972 l 919 865 l 285 132 l 792 132 l 768 0 l 74 0 z "},"[":{"ha":492,"x_min":100,"x_max":614,"o":"m 100 -181 l 307 989 l 614 989 l 590 858 l 418 858 l 258 -50 l 431 -50 l 407 -181 l 100 -181 z "},"\\":{"ha":651,"x_min":156,"x_max":606,"o":"m 472 -181 l 156 989 l 288 989 l 606 -181 l 472 -181 z "},"]":{"ha":492,"x_min":21,"x_max":536,"o":"m 21 -181 l 44 -50 l 217 -50 l 376 858 l 204 858 l 228 989 l 536 989 l 329 -181 l 21 -181 z "},"^":{"ha":840,"x_min":183,"x_max":829,"o":"m 692 488 l 538 811 l 321 488 l 183 488 l 490 989 l 607 989 l 829 488 l 692 488 z "},"_":{"ha":667,"x_min":-50,"x_max":651,"o":"m -50 -246 l -29 -124 l 651 -124 l 631 -246 l -50 -246 z "},"`":{"ha":519,"x_min":226,"x_max":561,"o":"m 429 800 l 226 1017 l 410 1017 l 561 800 l 429 800 z "},"a":{"ha":721,"x_min":97,"x_max":715,"o":"m 496 0 l 506 57 q 424 6 475 29 q 310 -17 374 -17 q 157 39 217 -17 q 97 189 97 94 q 188 390 97 324 q 401 456 278 456 q 497 441 456 456 q 567 408 539 426 l 575 453 q 580 481 578 468 q 582 506 582 494 q 549 583 582 561 q 471 604 515 604 q 353 582 414 604 q 247 531 293 560 l 228 646 q 344 701 278 676 q 489 726 411 726 q 588 709 535 726 q 678 647 640 692 q 715 522 715 603 q 713 488 715 508 q 707 447 711 468 l 629 0 l 496 0 m 343 104 q 449 130 400 104 q 528 186 497 156 l 547 293 q 487 322 525 307 q 399 336 449 336 q 283 305 335 336 q 232 201 232 274 q 260 132 232 160 q 343 104 289 104 z "},"b":{"ha":751,"x_min":106,"x_max":763,"o":"m 418 -17 q 315 8 358 -17 q 251 63 271 32 l 240 0 l 106 0 l 272 951 l 419 1003 l 358 656 q 431 705 386 683 q 531 726 475 726 q 696 648 629 726 q 763 433 763 569 q 715 189 763 289 q 590 36 668 89 q 418 -17 511 -17 m 408 114 q 567 204 511 114 q 624 422 624 294 q 588 549 624 503 q 488 596 553 596 q 399 572 440 596 q 333 515 357 547 l 276 193 q 328 137 294 160 q 408 114 361 114 z "},"c":{"ha":681,"x_min":118,"x_max":711,"o":"m 372 -17 q 185 67 253 -17 q 118 285 118 150 q 163 511 118 411 q 287 669 207 611 q 475 726 367 726 q 628 678 565 726 q 711 547 692 629 l 578 501 q 540 569 568 542 q 460 596 511 596 q 310 503 363 596 q 258 292 258 411 q 289 163 258 213 q 382 114 319 114 q 469 139 429 114 q 535 219 508 164 l 654 176 q 543 35 617 86 q 372 -17 469 -17 z "},"d":{"ha":753,"x_min":118,"x_max":828,"o":"m 349 -17 q 179 65 240 -17 q 118 283 118 147 q 222 608 118 489 q 474 726 326 726 q 573 703 536 726 q 628 657 610 681 l 681 951 l 828 1003 l 651 0 l 515 0 l 525 61 q 349 -17 460 -17 m 390 114 q 483 141 442 114 q 549 197 525 168 l 604 515 q 561 569 592 543 q 476 596 531 596 q 315 509 371 596 q 258 293 258 422 q 290 165 258 217 q 390 114 322 114 z "},"e":{"ha":719,"x_min":111,"x_max":738,"o":"m 383 -17 q 185 65 258 -17 q 111 283 111 147 q 157 503 111 403 q 287 665 203 604 q 485 726 371 726 q 670 658 603 726 q 738 453 738 589 q 730 372 738 410 q 711 300 722 335 l 253 300 q 253 292 253 296 q 253 283 253 288 q 293 153 253 200 q 400 107 333 107 q 483 124 440 107 q 563 172 525 142 l 629 78 q 520 8 581 33 q 383 -17 460 -17 m 272 419 l 600 419 q 603 447 603 433 q 603 471 604 460 q 559 574 599 546 q 471 603 519 603 q 340 550 389 603 q 272 419 290 497 z "},"f":{"ha":451,"x_min":135,"x_max":596,"o":"m 378 586 l 274 0 l 136 0 l 240 586 l 135 586 l 157 710 l 261 710 l 282 828 q 354 957 300 924 q 468 990 408 990 q 538 980 506 990 q 596 954 569 969 l 575 839 q 526 858 547 853 q 482 864 504 864 q 435 844 450 864 q 415 799 421 825 l 399 710 l 549 710 l 528 586 l 378 586 z "},"g":{"ha":753,"x_min":118,"x_max":776,"o":"m 225 -174 q 435 -120 372 -165 q 511 -6 497 -75 l 522 60 q 453 6 496 28 q 349 -17 411 -17 q 180 65 242 -17 q 118 275 118 147 q 218 601 118 476 q 467 726 318 726 q 556 707 513 726 q 626 650 599 688 l 638 710 l 776 710 l 651 14 q 578 -166 631 -103 q 448 -255 526 -229 q 271 -287 369 -281 l 225 -174 m 390 114 q 481 140 440 114 q 547 201 522 165 l 603 513 q 556 569 590 543 q 469 596 522 596 q 312 505 367 596 q 257 292 257 414 q 292 164 257 214 q 390 114 326 114 z "},"h":{"ha":761,"x_min":106,"x_max":743,"o":"m 106 0 l 272 951 l 419 1003 l 354 633 q 436 701 389 675 q 539 726 483 726 q 692 669 642 726 q 743 511 743 611 q 740 458 743 488 q 731 399 736 428 l 660 0 l 524 0 l 597 413 q 602 446 600 428 q 604 479 604 464 q 574 569 604 540 q 494 597 544 597 q 385 558 436 597 q 317 422 335 519 l 243 0 l 106 0 z "},"i":{"ha":349,"x_min":106,"x_max":415,"o":"m 106 0 l 231 710 l 368 710 l 243 0 l 106 0 m 321 825 q 269 845 289 825 q 250 894 250 865 q 279 965 250 936 q 343 993 308 993 q 396 973 376 993 q 415 924 415 953 q 386 853 415 882 q 321 825 357 825 z "},"j":{"ha":354,"x_min":-97,"x_max":417,"o":"m -51 -304 l -97 -189 q 46 -140 3 -175 q 100 -35 89 -106 l 232 710 l 369 710 l 239 -31 q 190 -173 224 -118 q 97 -258 156 -228 q -51 -304 38 -289 m 321 825 q 270 845 289 825 q 251 894 251 865 q 281 965 251 936 q 344 993 310 993 q 397 973 378 993 q 417 924 417 953 q 387 853 417 882 q 321 825 357 825 z "},"k":{"ha":713,"x_min":106,"x_max":749,"o":"m 515 501 l 679 0 l 531 0 l 406 404 l 296 304 l 243 0 l 106 0 l 272 951 l 419 1003 l 328 483 l 576 710 l 749 710 l 515 501 z "},"l":{"ha":360,"x_min":108,"x_max":424,"o":"m 108 0 l 276 951 l 424 1003 l 246 0 l 108 0 z "},"m":{"ha":1149,"x_min":106,"x_max":1131,"o":"m 106 0 l 231 710 l 365 710 l 354 642 q 440 704 390 682 q 542 726 489 726 q 703 619 660 726 q 801 699 746 672 q 925 726 856 726 q 1022 704 975 726 q 1100 637 1069 682 q 1131 519 1131 592 q 1125 458 1131 488 l 1043 0 l 903 0 l 979 431 q 983 481 983 458 q 953 571 983 544 q 883 597 922 597 q 786 558 836 597 q 721 432 736 518 l 644 0 l 504 0 l 579 431 q 583 457 582 444 q 585 481 585 469 q 553 571 585 544 q 483 597 522 597 q 385 558 436 597 q 319 432 333 518 l 243 0 l 106 0 z "},"n":{"ha":761,"x_min":106,"x_max":743,"o":"m 106 0 l 231 710 l 368 710 l 356 635 q 437 701 389 676 q 538 726 485 726 q 691 665 639 726 q 743 501 743 604 q 740 451 743 478 q 732 399 738 425 l 661 0 l 524 0 l 596 410 q 601 443 599 425 q 603 476 603 461 q 493 597 603 597 q 383 551 435 597 q 317 419 331 506 l 243 0 l 106 0 z "},"o":{"ha":739,"x_min":117,"x_max":746,"o":"m 383 -17 q 181 68 246 -17 q 117 283 117 153 q 160 499 117 397 q 285 663 203 600 q 485 726 368 726 q 681 639 617 726 q 746 431 746 551 q 703 212 746 314 q 578 47 660 110 q 383 -17 497 -17 m 390 114 q 508 158 460 114 q 583 272 557 203 q 608 415 608 340 q 576 543 608 490 q 471 596 544 596 q 354 551 403 596 q 280 438 306 507 q 254 296 254 369 q 287 165 254 217 q 390 114 319 114 z "},"p":{"ha":756,"x_min":54,"x_max":764,"o":"m 424 -17 q 317 7 358 -17 q 253 63 276 31 l 201 -229 l 54 -281 l 229 710 l 367 710 l 356 649 q 430 703 386 681 q 538 726 474 726 q 700 647 636 726 q 764 431 764 567 q 659 100 764 217 q 424 -17 554 -17 m 417 114 q 568 198 511 114 q 625 415 625 282 q 592 547 625 497 q 493 596 560 596 q 399 571 443 596 q 331 508 356 546 l 276 197 q 328 138 294 161 q 417 114 363 114 z "},"q":{"ha":754,"x_min":117,"x_max":776,"o":"m 343 -17 q 178 63 240 -17 q 117 276 117 142 q 164 515 117 414 q 291 671 211 615 q 467 726 371 726 q 574 701 535 726 q 628 647 613 675 l 639 710 l 776 710 l 611 -228 l 464 -278 l 524 61 q 446 5 489 26 q 343 -17 403 -17 m 389 114 q 483 143 442 114 q 549 199 525 172 l 603 511 q 554 573 589 550 q 476 596 519 596 q 319 506 382 596 q 257 288 257 417 q 290 160 257 206 q 389 114 324 114 z "},"r":{"ha":538,"x_min":103,"x_max":628,"o":"m 103 0 l 228 710 l 365 710 l 350 626 q 431 701 385 675 q 525 726 478 726 q 583 715 556 726 q 628 685 610 703 l 586 554 q 545 579 569 568 q 489 590 521 590 q 388 550 444 590 q 311 399 331 510 l 240 0 l 103 0 z "},"s":{"ha":632,"x_min":83,"x_max":651,"o":"m 332 -17 q 181 19 247 -17 q 83 110 115 54 l 185 189 q 246 131 206 158 q 343 103 286 103 q 431 126 393 103 q 469 194 469 149 q 423 267 469 240 q 315 322 376 294 q 208 394 254 350 q 161 515 161 438 q 235 670 161 614 q 419 726 308 726 q 563 693 503 726 q 651 615 622 660 l 550 539 q 497 585 531 563 q 408 608 464 608 q 327 585 360 608 q 294 524 294 563 q 342 458 294 483 q 451 406 389 433 q 560 331 513 378 q 607 203 607 285 q 533 42 607 101 q 332 -17 458 -17 z "},"t":{"ha":501,"x_min":131,"x_max":564,"o":"m 299 -17 q 201 20 235 -17 q 167 114 167 57 q 169 149 167 128 q 175 190 171 169 l 244 586 l 131 586 l 153 710 l 265 710 l 308 951 l 454 1003 l 403 710 l 564 710 l 543 586 l 382 586 l 315 211 q 310 180 313 193 q 308 157 308 167 q 363 107 308 107 q 418 116 393 107 q 469 139 443 125 l 438 13 q 372 -10 407 -3 q 299 -17 338 -17 z "},"u":{"ha":761,"x_min":138,"x_max":783,"o":"m 521 0 l 533 67 q 449 4 497 25 q 339 -17 400 -17 q 195 38 253 -17 q 138 203 138 92 q 140 244 138 222 q 146 289 143 265 l 219 710 l 358 710 l 285 297 q 279 259 281 275 q 278 232 278 243 q 308 142 278 171 q 388 114 339 114 q 502 151 450 114 q 571 282 554 188 l 646 710 l 783 710 l 658 0 l 521 0 z "},"v":{"ha":701,"x_min":164,"x_max":792,"o":"m 290 0 l 164 710 l 301 710 l 375 257 q 381 219 378 240 q 383 189 383 197 q 398 219 388 197 q 417 257 408 240 l 649 710 l 792 710 l 422 0 l 290 0 z "},"w":{"ha":964,"x_min":167,"x_max":1047,"o":"m 228 0 l 167 710 l 299 710 l 322 268 q 324 228 324 250 q 324 194 324 206 q 338 228 328 206 q 354 268 347 251 l 546 710 l 664 710 l 706 268 q 709 224 708 247 q 710 194 710 200 q 722 227 714 206 q 738 268 729 249 l 911 710 l 1047 710 l 751 0 l 625 0 l 576 414 q 573 458 575 432 q 571 494 571 483 q 556 456 567 483 q 538 413 544 428 l 353 0 l 228 0 z "},"x":{"ha":722,"x_min":46,"x_max":783,"o":"m 46 0 l 347 369 l 186 710 l 336 710 l 442 483 l 626 710 l 783 710 l 500 363 l 672 0 l 524 0 l 406 249 l 203 0 l 46 0 z "},"y":{"ha":714,"x_min":136,"x_max":810,"o":"m 136 -269 l 289 18 l 158 710 l 297 710 l 376 247 q 382 212 379 229 q 386 189 385 194 q 398 215 389 197 q 415 247 407 232 l 661 710 l 810 710 l 283 -269 l 136 -269 z "},"z":{"ha":683,"x_min":78,"x_max":725,"o":"m 78 0 l 96 100 l 519 585 l 207 585 l 229 710 l 725 710 l 708 611 l 282 124 l 621 124 l 599 0 l 78 0 z "},"{":{"ha":485,"x_min":119,"x_max":613,"o":"m 406 -181 q 242 -114 306 -172 q 179 64 179 -56 q 188 153 179 106 l 200 222 q 203 260 203 247 q 188 320 203 297 q 143 343 172 343 l 119 343 l 142 465 l 164 465 q 226 499 200 465 q 263 586 253 532 l 285 711 q 394 915 308 842 q 613 989 481 989 l 590 864 q 415 690 446 857 l 397 586 q 358 472 383 511 q 299 419 333 433 q 222 404 264 406 l 221 399 q 302 365 268 394 q 336 263 336 336 q 334 232 336 247 q 329 197 332 217 l 314 113 q 310 87 311 99 q 308 64 308 75 q 428 -58 308 -54 l 406 -181 z "},"|":{"ha":360,"x_min":193,"x_max":338,"o":"m 193 -525 l 193 1475 l 338 1475 l 338 -525 l 193 -525 z "},"}":{"ha":485,"x_min":14,"x_max":507,"o":"m 14 -181 l 36 -57 q 211 118 181 -51 l 228 214 q 289 360 246 315 q 408 406 332 406 l 410 411 q 325 456 357 422 q 293 553 293 489 q 295 580 293 565 q 299 610 297 594 l 313 690 q 316 717 314 704 q 318 742 318 731 q 199 867 318 861 l 221 989 q 390 926 329 983 q 450 750 450 869 q 447 704 450 728 q 440 654 444 681 l 429 589 q 426 565 428 576 q 424 533 424 553 q 485 464 424 464 l 507 464 l 485 343 l 465 343 q 401 310 426 343 q 365 222 375 276 l 342 93 q 237 -110 318 -39 q 14 -181 156 -181 z "},"~":{"ha":840,"x_min":185,"x_max":824,"o":"m 631 368 q 488 408 547 368 q 369 449 428 449 q 309 426 332 449 q 279 368 286 403 l 185 368 q 237 518 192 453 q 378 583 282 583 q 522 543 463 583 q 639 503 581 503 q 729 583 713 503 l 824 583 q 772 433 817 499 q 631 368 726 368 z "},"Ä":{"ha":915,"x_min":51,"x_max":865,"o":"m 51 0 l 563 972 l 693 972 l 865 0 l 721 0 l 683 226 l 321 226 l 203 0 l 51 0 m 386 354 l 663 354 l 607 685 q 601 727 606 700 q 594 767 596 754 q 577 728 589 754 q 557 686 565 703 l 386 354 m 526 1051 q 477 1072 496 1051 q 458 1122 458 1093 q 487 1190 458 1161 q 551 1218 515 1218 q 602 1198 583 1218 q 621 1149 621 1178 q 592 1080 621 1108 q 526 1051 564 1051 m 765 1051 q 715 1072 735 1051 q 696 1122 696 1093 q 725 1190 696 1163 q 790 1218 754 1218 q 840 1198 821 1218 q 860 1149 860 1178 q 831 1080 860 1108 q 765 1051 801 1051 z "},"Å":{"ha":915,"x_min":51,"x_max":865,"o":"m 51 0 l 554 958 l 625 943 l 696 958 l 865 0 l 721 0 l 683 226 l 321 226 l 203 0 l 51 0 m 386 354 l 663 354 l 607 685 q 601 727 606 700 q 594 767 596 754 q 577 728 589 754 q 557 686 565 703 l 386 354 m 658 867 l 615 881 l 553 869 q 469 1001 469 904 q 530 1138 469 1082 q 665 1193 590 1193 q 762 1152 724 1193 q 800 1053 800 1111 q 758 938 800 989 q 658 867 715 886 m 622 957 q 676 981 653 957 q 700 1040 700 1004 q 647 1096 700 1096 q 594 1074 618 1096 q 571 1015 571 1051 q 585 974 571 990 q 622 957 600 957 z "},"Ç":{"ha":851,"x_min":154,"x_max":922,"o":"m 397 -332 q 320 -317 350 -332 q 274 -281 290 -303 l 351 -231 q 397 -250 361 -250 q 454 -231 431 -250 q 478 -181 478 -211 q 460 -143 478 -158 q 414 -128 442 -128 q 360 -140 383 -128 l 338 -107 l 428 -12 q 221 117 288 4 q 154 379 154 231 q 209 669 154 529 q 371 898 264 808 q 638 988 478 988 q 829 933 764 988 q 922 800 894 878 l 792 739 q 733 819 772 783 q 625 854 694 854 q 443 781 515 854 q 335 599 371 707 q 300 392 300 492 q 347 202 300 285 q 492 119 393 119 q 619 153 565 119 q 708 242 672 186 l 829 190 q 692 46 774 100 q 504 -15 611 -8 l 464 -71 q 561 -101 532 -71 q 590 -169 590 -131 q 535 -285 590 -239 q 397 -332 481 -332 z "},"É":{"ha":799,"x_min":114,"x_max":917,"o":"m 114 0 l 285 972 l 871 972 l 849 839 l 406 839 l 358 568 l 636 568 l 611 436 l 335 436 l 282 132 l 753 132 l 729 0 l 114 0 m 639 1028 l 507 1028 l 735 1244 l 917 1244 l 639 1028 z "},"Ñ":{"ha":939,"x_min":114,"x_max":997,"o":"m 114 0 l 285 972 l 418 972 l 706 318 q 719 285 710 308 q 731 253 728 263 q 735 284 732 263 q 740 317 739 306 l 856 972 l 997 972 l 826 0 l 693 0 l 414 629 q 395 674 408 642 q 379 715 382 707 q 374 675 379 708 q 367 628 369 642 l 256 0 l 114 0 m 753 1043 q 638 1076 682 1043 q 544 1110 594 1110 q 471 1049 485 1110 l 404 1049 q 458 1174 418 1126 q 574 1221 499 1221 q 688 1188 644 1221 q 781 1154 731 1154 q 856 1215 839 1154 l 921 1215 q 867 1090 907 1138 q 753 1043 826 1043 z "},"Ö":{"ha":957,"x_min":154,"x_max":974,"o":"m 501 117 q 683 186 608 117 q 794 363 757 256 q 832 585 832 469 q 785 769 832 683 q 625 854 738 854 q 443 783 517 854 q 333 605 369 713 q 296 390 296 497 q 343 201 296 286 q 501 117 390 117 m 501 -17 q 299 42 375 -17 q 189 193 224 100 q 154 390 154 286 q 208 674 154 536 q 367 900 261 811 q 632 989 474 989 q 828 930 753 989 q 938 778 903 871 q 974 585 974 686 q 919 299 974 436 q 760 72 865 161 q 501 -17 656 -17 m 524 1051 q 474 1072 493 1051 q 456 1122 456 1093 q 484 1190 456 1161 q 549 1218 513 1218 q 599 1198 581 1218 q 618 1149 618 1178 q 590 1080 618 1108 q 524 1051 561 1051 m 763 1051 q 713 1072 732 1051 q 693 1122 693 1093 q 722 1190 693 1163 q 788 1218 751 1218 q 838 1198 818 1218 q 857 1149 857 1178 q 828 1080 857 1108 q 763 1051 799 1051 z "},"Ü":{"ha":922,"x_min":168,"x_max":986,"o":"m 479 -17 q 258 54 347 -17 q 168 278 168 125 q 170 331 168 301 q 181 404 172 360 l 281 972 l 424 972 l 321 383 q 311 289 311 325 q 365 153 311 189 q 488 118 418 118 q 642 169 574 118 q 738 367 711 219 l 844 972 l 986 972 l 879 358 q 799 133 854 215 q 663 17 744 51 q 479 -17 582 -17 m 515 1044 q 466 1065 485 1044 q 447 1115 447 1086 q 476 1183 447 1154 q 540 1211 504 1211 q 591 1191 572 1211 q 610 1142 610 1171 q 581 1073 610 1101 q 515 1044 553 1044 m 754 1044 q 704 1065 724 1044 q 685 1115 685 1086 q 714 1183 685 1156 q 779 1211 743 1211 q 829 1191 810 1211 q 849 1142 849 1171 q 819 1073 849 1101 q 754 1044 790 1044 z "},"á":{"ha":721,"x_min":97,"x_max":828,"o":"m 496 0 l 506 57 q 424 6 475 29 q 310 -17 374 -17 q 157 39 217 -17 q 97 189 97 94 q 188 390 97 324 q 401 456 278 456 q 497 441 456 456 q 567 408 539 426 l 575 453 q 580 481 578 468 q 582 506 582 494 q 549 583 582 561 q 471 604 515 604 q 353 582 414 604 q 247 531 293 560 l 228 646 q 344 701 278 676 q 489 726 411 726 q 588 709 535 726 q 678 647 640 692 q 715 522 715 603 q 713 488 715 508 q 707 447 711 468 l 629 0 l 496 0 m 343 104 q 449 130 400 104 q 528 186 497 156 l 547 293 q 487 322 525 307 q 399 336 449 336 q 283 305 335 336 q 232 201 232 274 q 260 132 232 160 q 343 104 289 104 m 550 799 l 418 799 l 646 1015 l 828 1015 l 550 799 z "},"à":{"ha":721,"x_min":97,"x_max":715,"o":"m 496 0 l 506 57 q 424 6 475 29 q 310 -17 374 -17 q 157 39 217 -17 q 97 189 97 94 q 188 390 97 324 q 401 456 278 456 q 497 441 456 456 q 567 408 539 426 l 575 453 q 580 481 578 468 q 582 506 582 494 q 549 583 582 561 q 471 604 515 604 q 353 582 414 604 q 247 531 293 560 l 228 646 q 344 701 278 676 q 489 726 411 726 q 588 709 535 726 q 678 647 640 692 q 715 522 715 603 q 713 488 715 508 q 707 447 711 468 l 629 0 l 496 0 m 343 104 q 449 130 400 104 q 528 186 497 156 l 547 293 q 487 322 525 307 q 399 336 449 336 q 283 305 335 336 q 232 201 232 274 q 260 132 232 160 q 343 104 289 104 m 447 799 l 244 1015 l 428 1015 l 579 799 l 447 799 z "},"â":{"ha":721,"x_min":97,"x_max":756,"o":"m 496 0 l 506 57 q 424 6 475 29 q 310 -17 374 -17 q 157 39 217 -17 q 97 189 97 94 q 188 390 97 324 q 401 456 278 456 q 497 441 456 456 q 567 408 539 426 l 575 453 q 580 481 578 468 q 582 506 582 494 q 549 583 582 561 q 471 604 515 604 q 353 582 414 604 q 247 531 293 560 l 228 646 q 344 701 278 676 q 489 726 411 726 q 588 709 535 726 q 678 647 640 692 q 715 522 715 603 q 713 488 715 508 q 707 447 711 468 l 629 0 l 496 0 m 343 104 q 449 130 400 104 q 528 186 497 156 l 547 293 q 487 322 525 307 q 399 336 449 336 q 283 305 335 336 q 232 201 232 274 q 260 132 232 160 q 343 104 289 104 m 632 799 l 519 917 l 365 799 l 243 799 l 468 1015 l 606 1015 l 756 799 l 632 799 z "},"ä":{"ha":721,"x_min":97,"x_max":718,"o":"m 496 0 l 506 57 q 424 6 475 29 q 310 -17 374 -17 q 157 39 217 -17 q 97 189 97 94 q 188 390 97 324 q 401 456 278 456 q 497 441 456 456 q 567 408 539 426 l 575 453 q 580 481 578 468 q 582 506 582 494 q 549 583 582 561 q 471 604 515 604 q 353 582 414 604 q 247 531 293 560 l 228 646 q 344 701 278 676 q 489 726 411 726 q 588 709 535 726 q 678 647 640 692 q 715 522 715 603 q 713 488 715 508 q 707 447 711 468 l 629 0 l 496 0 m 343 104 q 449 130 400 104 q 528 186 497 156 l 547 293 q 487 322 525 307 q 399 336 449 336 q 283 305 335 336 q 232 201 232 274 q 260 132 232 160 q 343 104 289 104 m 385 822 q 335 843 354 822 q 317 893 317 864 q 345 960 317 932 q 410 989 374 989 q 460 969 442 989 q 479 919 479 949 q 451 851 479 879 q 385 822 422 822 m 624 822 q 574 843 593 822 q 554 893 554 864 q 583 961 554 933 q 649 989 613 989 q 699 969 679 989 q 718 919 718 949 q 689 851 718 879 q 624 822 660 822 z "},"ã":{"ha":721,"x_min":97,"x_max":776,"o":"m 496 0 l 506 57 q 424 6 475 29 q 310 -17 374 -17 q 157 39 217 -17 q 97 189 97 94 q 188 390 97 324 q 401 456 278 456 q 497 441 456 456 q 567 408 539 426 l 575 453 q 580 481 578 468 q 582 506 582 494 q 549 583 582 561 q 471 604 515 604 q 353 582 414 604 q 247 531 293 560 l 228 646 q 344 701 278 676 q 489 726 411 726 q 588 709 535 726 q 678 647 640 692 q 715 522 715 603 q 713 488 715 508 q 707 447 711 468 l 629 0 l 496 0 m 343 104 q 449 130 400 104 q 528 186 497 156 l 547 293 q 487 322 525 307 q 399 336 449 336 q 283 305 335 336 q 232 201 232 274 q 260 132 232 160 q 343 104 289 104 m 608 821 q 494 854 538 821 q 400 888 450 888 q 326 826 340 888 l 260 826 q 314 951 274 904 q 429 999 354 999 q 543 965 500 999 q 636 932 586 932 q 711 993 694 932 l 776 993 q 722 868 763 915 q 608 821 682 821 z "},"å":{"ha":721,"x_min":97,"x_max":715,"o":"m 496 0 l 506 57 q 424 6 475 29 q 310 -17 374 -17 q 157 39 217 -17 q 97 189 97 94 q 188 390 97 324 q 401 456 278 456 q 497 441 456 456 q 567 408 539 426 l 575 453 q 580 481 578 468 q 582 506 582 494 q 549 583 582 561 q 471 604 515 604 q 353 582 414 604 q 247 531 293 560 l 228 646 q 344 701 278 676 q 489 726 411 726 q 588 709 535 726 q 678 647 640 692 q 715 522 715 603 q 713 488 715 508 q 707 447 711 468 l 629 0 l 496 0 m 343 104 q 449 130 400 104 q 528 186 497 156 l 547 293 q 487 322 525 307 q 399 336 449 336 q 283 305 335 336 q 232 201 232 274 q 260 132 232 160 q 343 104 289 104 m 500 786 q 402 828 440 786 q 364 929 364 871 q 424 1065 364 1010 q 560 1121 485 1121 q 656 1080 618 1121 q 694 981 694 1039 q 633 844 694 901 q 500 786 572 786 m 517 885 q 571 908 547 885 q 594 968 594 932 q 542 1024 594 1024 q 489 1001 513 1024 q 465 943 465 979 q 480 901 465 918 q 517 885 494 885 z "},"ç":{"ha":679,"x_min":118,"x_max":710,"o":"m 283 -332 q 208 -317 238 -332 q 161 -281 178 -303 l 239 -231 q 286 -250 249 -250 q 343 -231 319 -250 q 367 -179 367 -211 q 348 -143 367 -158 q 301 -128 329 -128 q 247 -140 269 -128 l 226 -107 l 317 -11 q 171 80 224 3 q 118 275 118 157 q 219 601 118 475 q 483 726 321 726 q 633 677 574 726 q 710 547 693 628 l 576 501 q 541 569 568 542 q 463 596 514 596 q 309 503 361 596 q 257 289 257 411 q 288 163 257 211 q 379 114 319 114 q 471 142 432 114 q 533 219 510 171 l 653 176 q 538 35 613 78 q 393 -15 464 -8 l 350 -71 q 448 -101 419 -71 q 476 -169 476 -131 q 423 -285 476 -239 q 283 -332 369 -332 z "},"é":{"ha":719,"x_min":111,"x_max":828,"o":"m 383 -17 q 185 65 258 -17 q 111 283 111 147 q 157 503 111 403 q 287 665 203 604 q 485 726 371 726 q 670 658 603 726 q 738 453 738 589 q 730 372 738 410 q 711 300 722 335 l 253 300 q 253 292 253 296 q 253 283 253 288 q 293 153 253 200 q 400 107 333 107 q 483 124 440 107 q 563 172 525 142 l 629 78 q 520 8 581 33 q 383 -17 460 -17 m 272 419 l 600 419 q 603 447 603 433 q 603 471 604 460 q 559 574 599 546 q 471 603 519 603 q 340 550 389 603 q 272 419 290 497 m 550 799 l 418 799 l 646 1015 l 828 1015 l 550 799 z "},"è":{"ha":719,"x_min":111,"x_max":738,"o":"m 383 -17 q 185 65 258 -17 q 111 283 111 147 q 157 503 111 403 q 287 665 203 604 q 485 726 371 726 q 670 658 603 726 q 738 453 738 589 q 730 372 738 410 q 711 300 722 335 l 253 300 q 253 292 253 296 q 253 283 253 288 q 293 153 253 200 q 400 107 333 107 q 483 124 440 107 q 563 172 525 142 l 629 78 q 520 8 581 33 q 383 -17 460 -17 m 272 419 l 600 419 q 603 447 603 433 q 603 471 604 460 q 559 574 599 546 q 471 603 519 603 q 340 550 389 603 q 272 419 290 497 m 447 799 l 244 1015 l 428 1015 l 579 799 l 447 799 z "},"ê":{"ha":719,"x_min":111,"x_max":756,"o":"m 383 -17 q 185 65 258 -17 q 111 283 111 147 q 157 503 111 403 q 287 665 203 604 q 485 726 371 726 q 670 658 603 726 q 738 453 738 589 q 730 372 738 410 q 711 300 722 335 l 253 300 q 253 292 253 296 q 253 283 253 288 q 293 153 253 200 q 400 107 333 107 q 483 124 440 107 q 563 172 525 142 l 629 78 q 520 8 581 33 q 383 -17 460 -17 m 272 419 l 600 419 q 603 447 603 433 q 603 471 604 460 q 559 574 599 546 q 471 603 519 603 q 340 550 389 603 q 272 419 290 497 m 632 799 l 519 917 l 365 799 l 243 799 l 468 1015 l 606 1015 l 756 799 l 632 799 z "},"ë":{"ha":719,"x_min":111,"x_max":738,"o":"m 383 -17 q 185 65 258 -17 q 111 283 111 147 q 157 503 111 403 q 287 665 203 604 q 485 726 371 726 q 670 658 603 726 q 738 453 738 589 q 730 372 738 410 q 711 300 722 335 l 253 300 q 253 292 253 296 q 253 283 253 288 q 293 153 253 200 q 400 107 333 107 q 483 124 440 107 q 563 172 525 142 l 629 78 q 520 8 581 33 q 383 -17 460 -17 m 272 419 l 600 419 q 603 447 603 433 q 603 471 604 460 q 559 574 599 546 q 471 603 519 603 q 340 550 389 603 q 272 419 290 497 m 385 822 q 335 843 354 822 q 317 893 317 864 q 345 960 317 932 q 410 989 374 989 q 460 969 442 989 q 479 919 479 949 q 451 851 479 879 q 385 822 422 822 m 624 822 q 574 843 593 822 q 554 893 554 864 q 583 961 554 933 q 649 989 613 989 q 699 969 679 989 q 718 919 718 949 q 689 851 718 879 q 624 822 660 822 z "},"í":{"ha":349,"x_min":106,"x_max":643,"o":"m 106 0 l 231 710 l 367 710 l 242 0 l 106 0 m 365 799 l 233 799 l 461 1015 l 643 1015 l 365 799 z "},"ì":{"ha":349,"x_min":60,"x_max":394,"o":"m 106 0 l 231 710 l 367 710 l 242 0 l 106 0 m 263 799 l 60 1015 l 243 1015 l 394 799 l 263 799 z "},"î":{"ha":349,"x_min":58,"x_max":571,"o":"m 106 0 l 231 710 l 367 710 l 242 0 l 106 0 m 447 799 l 335 917 l 181 799 l 58 799 l 283 1015 l 421 1015 l 571 799 l 447 799 z "},"ï":{"ha":349,"x_min":106,"x_max":533,"o":"m 106 0 l 231 710 l 367 710 l 242 0 l 106 0 m 200 822 q 151 843 169 822 q 132 893 132 864 q 160 960 132 932 q 225 989 189 989 q 276 969 257 989 q 294 919 294 949 q 266 851 294 879 q 200 822 238 822 m 439 822 q 389 843 408 822 q 369 893 369 864 q 399 961 369 933 q 464 989 428 989 q 514 969 494 989 q 533 919 533 949 q 504 851 533 879 q 439 822 475 822 z "},"ñ":{"ha":761,"x_min":106,"x_max":803,"o":"m 106 0 l 231 710 l 368 710 l 356 635 q 437 701 389 676 q 538 726 485 726 q 691 665 639 726 q 743 501 743 604 q 740 451 743 478 q 732 399 738 425 l 661 0 l 524 0 l 596 410 q 601 443 599 425 q 603 476 603 461 q 493 597 603 597 q 383 551 435 597 q 317 419 331 506 l 243 0 l 106 0 m 635 821 q 520 854 564 821 q 426 888 476 888 q 353 826 367 888 l 286 826 q 340 951 300 904 q 456 999 381 999 q 569 965 526 999 q 663 932 613 932 q 738 993 721 932 l 803 993 q 749 868 789 915 q 635 821 708 821 z "},"ó":{"ha":739,"x_min":117,"x_max":829,"o":"m 383 -17 q 181 68 246 -17 q 117 283 117 153 q 160 499 117 397 q 285 663 203 600 q 485 726 368 726 q 681 639 617 726 q 746 431 746 551 q 703 212 746 314 q 578 47 660 110 q 383 -17 497 -17 m 390 114 q 508 158 460 114 q 583 272 557 203 q 608 415 608 340 q 576 543 608 490 q 471 596 544 596 q 354 551 403 596 q 280 438 306 507 q 254 296 254 369 q 287 165 254 217 q 390 114 319 114 m 551 799 l 419 799 l 647 1015 l 829 1015 l 551 799 z "},"ò":{"ha":739,"x_min":117,"x_max":746,"o":"m 383 -17 q 181 68 246 -17 q 117 283 117 153 q 160 499 117 397 q 285 663 203 600 q 485 726 368 726 q 681 639 617 726 q 746 431 746 551 q 703 212 746 314 q 578 47 660 110 q 383 -17 497 -17 m 390 114 q 508 158 460 114 q 583 272 557 203 q 608 415 608 340 q 576 543 608 490 q 471 596 544 596 q 354 551 403 596 q 280 438 306 507 q 254 296 254 369 q 287 165 254 217 q 390 114 319 114 m 449 799 l 246 1015 l 429 1015 l 581 799 l 449 799 z "},"ô":{"ha":739,"x_min":117,"x_max":757,"o":"m 383 -17 q 181 68 246 -17 q 117 283 117 153 q 160 499 117 397 q 285 663 203 600 q 485 726 368 726 q 681 639 617 726 q 746 431 746 551 q 703 212 746 314 q 578 47 660 110 q 383 -17 497 -17 m 390 114 q 508 158 460 114 q 583 272 557 203 q 608 415 608 340 q 576 543 608 490 q 471 596 544 596 q 354 551 403 596 q 280 438 306 507 q 254 296 254 369 q 287 165 254 217 q 390 114 319 114 m 633 799 l 521 917 l 367 799 l 244 799 l 469 1015 l 607 1015 l 757 799 l 633 799 z "},"ö":{"ha":739,"x_min":117,"x_max":746,"o":"m 383 -17 q 181 68 246 -17 q 117 283 117 153 q 160 499 117 397 q 285 663 203 600 q 485 726 368 726 q 681 639 617 726 q 746 431 746 551 q 703 212 746 314 q 578 47 660 110 q 383 -17 497 -17 m 390 114 q 508 158 460 114 q 583 272 557 203 q 608 415 608 340 q 576 543 608 490 q 471 596 544 596 q 354 551 403 596 q 280 438 306 507 q 254 296 254 369 q 287 165 254 217 q 390 114 319 114 m 386 822 q 337 843 356 822 q 318 893 318 864 q 347 960 318 932 q 411 989 375 989 q 462 969 443 989 q 481 919 481 949 q 452 851 481 879 q 386 822 424 822 m 625 822 q 575 843 594 822 q 556 893 556 864 q 585 961 556 933 q 650 989 614 989 q 700 969 681 989 q 719 919 719 949 q 690 851 719 879 q 625 822 661 822 z "},"õ":{"ha":739,"x_min":117,"x_max":778,"o":"m 383 -17 q 181 68 246 -17 q 117 283 117 153 q 160 499 117 397 q 285 663 203 600 q 485 726 368 726 q 681 639 617 726 q 746 431 746 551 q 703 212 746 314 q 578 47 660 110 q 383 -17 497 -17 m 390 114 q 508 158 460 114 q 583 272 557 203 q 608 415 608 340 q 576 543 608 490 q 471 596 544 596 q 354 551 403 596 q 280 438 306 507 q 254 296 254 369 q 287 165 254 217 q 390 114 319 114 m 610 821 q 495 854 539 821 q 401 888 451 888 q 328 826 342 888 l 261 826 q 315 951 275 904 q 431 999 356 999 q 544 965 501 999 q 638 932 588 932 q 713 993 696 932 l 778 993 q 724 868 764 915 q 610 821 683 821 z "},"ú":{"ha":761,"x_min":138,"x_max":836,"o":"m 521 0 l 533 67 q 449 4 497 25 q 339 -17 400 -17 q 195 38 253 -17 q 138 203 138 92 q 140 244 138 222 q 146 289 143 265 l 219 710 l 358 710 l 285 297 q 279 259 281 275 q 278 232 278 243 q 308 142 278 171 q 388 114 339 114 q 502 151 450 114 q 571 282 554 188 l 646 710 l 783 710 l 658 0 l 521 0 m 558 799 l 426 799 l 654 1015 l 836 1015 l 558 799 z "},"ù":{"ha":761,"x_min":138,"x_max":783,"o":"m 521 0 l 533 67 q 449 4 497 25 q 339 -17 400 -17 q 195 38 253 -17 q 138 203 138 92 q 140 244 138 222 q 146 289 143 265 l 219 710 l 358 710 l 285 297 q 279 259 281 275 q 278 232 278 243 q 308 142 278 171 q 388 114 339 114 q 502 151 450 114 q 571 282 554 188 l 646 710 l 783 710 l 658 0 l 521 0 m 456 799 l 253 1015 l 436 1015 l 588 799 l 456 799 z "},"û":{"ha":761,"x_min":138,"x_max":783,"o":"m 521 0 l 533 67 q 449 4 497 25 q 339 -17 400 -17 q 195 38 253 -17 q 138 203 138 92 q 140 244 138 222 q 146 289 143 265 l 219 710 l 358 710 l 285 297 q 279 259 281 275 q 278 232 278 243 q 308 142 278 171 q 388 114 339 114 q 502 151 450 114 q 571 282 554 188 l 646 710 l 783 710 l 658 0 l 521 0 m 640 799 l 528 917 l 374 799 l 251 799 l 476 1015 l 614 1015 l 764 799 l 640 799 z "},"ü":{"ha":761,"x_min":138,"x_max":783,"o":"m 521 0 l 533 67 q 449 4 497 25 q 339 -17 400 -17 q 195 38 253 -17 q 138 203 138 92 q 140 244 138 222 q 146 289 143 265 l 219 710 l 358 710 l 285 297 q 279 259 281 275 q 278 232 278 243 q 308 142 278 171 q 388 114 339 114 q 502 151 450 114 q 571 282 554 188 l 646 710 l 783 710 l 658 0 l 521 0 m 393 822 q 344 843 363 822 q 325 893 325 864 q 353 960 325 932 q 418 989 382 989 q 469 969 450 989 q 488 919 488 949 q 459 851 488 879 q 393 822 431 822 m 632 822 q 582 843 601 822 q 563 893 563 864 q 592 961 563 933 q 657 989 621 989 q 707 969 688 989 q 726 919 726 949 q 697 851 726 879 q 632 822 668 822 z "},"†":{"ha":743,"x_min":189,"x_max":783,"o":"m 532 611 l 521 467 l 361 -196 l 313 -196 l 386 467 l 424 611 l 260 589 l 189 589 l 214 724 l 285 724 l 438 700 l 447 815 l 478 989 l 613 989 l 582 815 l 549 700 l 713 724 l 783 724 l 758 589 l 688 589 l 532 611 z "},"°":{"ha":533,"x_min":179,"x_max":661,"o":"m 394 617 q 238 681 296 617 q 179 839 179 744 q 259 1031 179 956 q 446 1107 339 1107 q 603 1044 546 1107 q 661 886 661 982 q 581 694 661 771 q 394 617 500 617 m 404 749 q 491 787 454 749 q 528 881 528 825 q 503 951 528 924 q 438 978 479 978 q 351 940 389 978 q 313 846 313 903 q 338 776 313 804 q 404 749 363 749 z "},"¢":{"ha":685,"x_min":142,"x_max":736,"o":"m 279 -17 l 304 126 q 183 227 225 151 q 142 410 142 303 q 220 698 142 579 q 432 847 299 817 l 457 989 l 588 989 l 561 850 q 676 793 631 836 q 736 676 722 750 l 600 631 q 565 697 592 671 q 490 722 539 722 q 337 636 392 722 q 282 422 282 550 q 313 297 282 346 q 408 249 344 249 q 491 274 451 249 q 553 353 531 299 l 675 311 q 578 176 640 225 q 433 117 517 126 l 410 -17 l 279 -17 z "},"£":{"ha":782,"x_min":106,"x_max":888,"o":"m 106 0 l 131 140 q 242 250 201 172 q 290 394 283 328 l 169 394 l 192 518 l 285 518 q 269 579 278 543 q 260 661 260 615 q 349 889 260 789 q 624 989 438 989 q 776 961 710 989 q 888 892 842 933 l 814 764 q 738 822 790 789 q 601 856 686 856 q 449 799 496 856 q 401 674 401 743 q 414 593 401 633 q 431 518 426 553 l 653 518 l 631 394 l 433 394 q 383 255 424 321 q 279 133 342 189 l 765 133 l 742 0 l 106 0 z "},"§":{"ha":694,"x_min":58,"x_max":754,"o":"m 336 -167 q 163 -126 235 -167 q 58 -26 90 -86 l 175 54 q 233 -3 192 28 q 344 -33 274 -33 q 457 -8 413 -33 q 501 76 501 17 q 473 136 501 111 q 401 182 444 161 q 314 225 358 203 q 203 294 253 256 q 154 407 154 332 q 191 519 154 472 q 279 589 228 567 q 230 653 247 613 q 213 739 213 693 q 301 923 213 857 q 508 989 389 989 q 665 952 604 989 q 754 871 726 915 l 639 788 q 590 831 622 810 q 494 853 557 853 q 394 828 432 853 q 357 758 357 803 q 407 689 357 718 q 526 629 457 660 q 648 559 594 600 q 701 433 701 518 q 676 324 701 369 q 594 246 651 278 q 635 183 621 219 q 649 100 649 147 q 566 -92 649 -17 q 336 -167 483 -167 m 496 310 q 558 396 558 335 q 509 468 558 440 q 393 522 460 496 q 300 439 300 507 q 359 368 300 394 q 496 310 418 342 z "},"•":{"ha":538,"x_min":163,"x_max":547,"o":"m 321 297 q 206 344 250 297 q 163 457 163 390 q 230 612 163 547 q 386 676 297 676 q 503 628 458 676 q 547 515 547 581 q 478 360 547 424 q 321 297 410 297 z "},"¶":{"ha":833,"x_min":140,"x_max":900,"o":"m 293 -278 l 410 383 q 203 465 265 386 q 140 636 140 543 q 174 786 140 708 q 286 918 208 864 q 499 972 364 972 l 900 972 l 711 -104 l 565 -168 l 742 836 l 625 836 l 439 -214 l 293 -278 z "},"ß":{"ha":754,"x_min":43,"x_max":781,"o":"m 43 -281 l 210 663 q 340 916 242 843 q 543 989 439 989 q 715 929 649 989 q 781 771 781 869 q 738 629 781 696 q 613 532 696 563 q 715 453 678 508 q 751 319 751 397 q 652 77 751 171 q 419 -17 553 -17 q 343 -9 375 -17 q 293 10 311 -1 l 371 114 q 398 106 385 108 q 429 104 411 104 q 553 158 494 104 q 613 314 613 211 q 577 420 613 374 q 454 467 542 467 l 428 467 l 449 588 l 476 588 q 596 629 547 588 q 644 751 644 671 q 614 835 644 803 q 526 867 583 867 q 413 819 464 867 q 343 661 363 772 l 189 -212 l 43 -281 z "},"®":{"ha":1125,"x_min":140,"x_max":1146,"o":"m 643 -17 q 387 50 500 -17 q 207 231 274 117 q 140 486 140 344 q 207 742 140 628 q 387 922 274 856 q 643 989 500 989 q 899 922 786 989 q 1079 742 1013 856 q 1146 486 1146 628 q 1079 231 1146 344 q 899 50 1013 117 q 643 -17 786 -17 m 643 83 q 927 199 815 83 q 1039 486 1039 314 q 927 774 1039 658 q 643 889 815 889 q 359 774 471 889 q 247 486 247 658 q 359 199 247 314 q 643 83 471 83 m 444 193 l 444 779 l 675 779 q 826 725 785 779 q 868 604 868 671 q 839 505 868 553 q 746 438 810 457 l 879 193 l 757 193 l 639 428 l 547 428 l 547 193 l 444 193 m 547 526 l 675 526 q 742 549 724 526 q 760 604 760 572 q 744 656 760 631 q 675 681 728 681 l 547 681 l 547 526 z "},"©":{"ha":1125,"x_min":140,"x_max":1146,"o":"m 643 -17 q 387 50 500 -17 q 207 231 274 117 q 140 486 140 344 q 207 742 140 628 q 387 922 274 856 q 643 989 500 989 q 899 922 786 989 q 1079 742 1013 856 q 1146 486 1146 628 q 1079 231 1146 344 q 899 50 1013 117 q 643 -17 786 -17 m 649 188 q 458 274 518 188 q 397 489 397 361 q 425 638 397 569 q 510 749 453 707 q 654 792 567 792 q 783 754 731 792 q 863 651 836 717 l 756 603 q 715 658 742 636 q 649 679 689 679 q 544 623 572 679 q 517 489 517 567 q 547 353 517 407 q 650 299 578 299 q 717 319 688 299 q 761 382 747 339 l 865 343 q 782 227 838 267 q 649 188 726 188 m 643 81 q 928 197 817 81 q 1040 486 1040 314 q 928 774 1040 658 q 643 890 817 890 q 356 774 469 890 q 243 486 243 658 q 356 197 243 314 q 643 81 469 81 z "},"™":{"ha":1067,"x_min":93,"x_max":1081,"o":"m 1081 386 l 978 386 l 978 728 l 965 693 l 821 378 l 675 693 l 661 732 l 661 386 l 557 386 l 557 972 l 658 972 l 810 646 l 819 618 l 829 646 l 981 972 l 1081 972 l 1081 386 m 249 386 l 249 872 l 93 872 l 93 972 l 507 972 l 507 872 l 353 872 l 353 386 l 249 386 z "},"´":{"ha":519,"x_min":317,"x_max":726,"o":"m 449 800 l 317 800 l 544 1017 l 726 1017 l 449 800 z "},"¨":{"ha":519,"x_min":260,"x_max":661,"o":"m 328 824 q 278 844 297 824 q 260 894 260 865 q 288 962 260 933 q 353 990 317 990 q 403 970 385 990 q 422 921 422 950 q 394 852 422 881 q 328 824 365 824 m 567 824 q 517 844 536 824 q 497 894 497 865 q 526 963 497 935 q 592 990 556 990 q 642 970 622 990 q 661 921 661 950 q 632 852 661 881 q 567 824 603 824 z "},"≠":{"ha":840,"x_min":186,"x_max":821,"o":"m 482 275 l 425 151 l 276 151 l 333 275 l 186 275 l 186 413 l 399 413 l 460 539 l 186 539 l 186 676 l 524 676 l 581 797 l 728 797 l 671 676 l 821 676 l 821 539 l 607 539 l 546 413 l 821 413 l 821 275 l 482 275 z "},"Æ":{"ha":1163,"x_min":-32,"x_max":1235,"o":"m -32 0 l 681 972 l 1235 972 l 1213 839 l 832 839 l 785 568 l 1007 568 l 982 436 l 761 436 l 708 132 l 1117 132 l 1093 0 l 543 0 l 583 226 l 290 226 l 126 0 l -32 0 m 385 354 l 606 354 l 679 771 q 656 734 669 754 q 629 694 643 714 l 385 354 z "},"Ø":{"ha":957,"x_min":82,"x_max":1047,"o":"m 82 -17 l 208 138 q 167 257 181 189 q 154 389 154 325 q 207 672 154 533 q 366 899 260 810 q 636 989 472 989 q 757 969 704 989 q 847 917 810 950 l 907 989 l 1047 989 l 918 832 q 960 714 946 782 q 974 585 974 646 q 920 299 974 438 q 761 72 867 161 q 496 -17 656 -17 q 372 2 426 -17 q 278 53 317 21 l 221 -17 l 82 -17 m 503 117 q 685 186 611 117 q 795 362 758 256 q 832 581 832 468 q 827 644 832 610 q 814 706 822 679 l 369 165 q 503 117 421 117 m 313 264 l 756 806 q 622 854 704 854 q 441 783 514 854 q 332 606 368 713 q 296 392 296 499 q 299 326 296 363 q 313 264 303 290 z "},"∞":{"ha":1332,"x_min":126,"x_max":1376,"o":"m 392 165 q 202 241 278 165 q 126 440 126 317 q 240 713 126 615 q 496 810 353 810 q 677 747 613 810 q 772 606 742 683 q 913 752 831 694 q 1100 810 996 810 q 1295 738 1214 810 q 1376 533 1376 665 q 1265 262 1376 358 q 1007 165 1153 165 q 826 223 892 165 q 729 367 761 281 q 585 224 668 282 q 392 165 503 165 m 421 296 q 572 353 503 296 q 693 486 640 411 q 617 620 667 561 q 485 679 568 679 q 329 619 396 679 q 263 456 263 560 q 306 340 263 383 q 421 296 350 296 m 1018 296 q 1174 355 1107 296 q 1240 515 1240 414 q 1196 635 1240 592 q 1081 679 1151 679 q 931 620 1000 679 q 808 486 861 561 q 885 353 836 411 q 1018 296 933 296 z "},"±":{"ha":840,"x_min":185,"x_max":821,"o":"m 572 493 l 572 275 l 432 275 l 432 493 l 185 493 l 185 626 l 432 626 l 432 844 l 572 844 l 572 626 l 821 626 l 821 493 l 572 493 m 185 0 l 185 133 l 821 133 l 821 0 l 185 0 z "},"≤":{"ha":840,"x_min":185,"x_max":821,"o":"m 821 242 l 185 478 l 185 599 l 821 836 l 821 693 l 368 539 l 821 383 l 821 242 m 185 0 l 185 133 l 821 133 l 821 0 l 185 0 z "},"≥":{"ha":840,"x_min":182,"x_max":818,"o":"m 182 242 l 182 383 l 635 539 l 182 693 l 182 836 l 818 599 l 818 478 l 182 242 m 182 0 l 182 133 l 818 133 l 818 0 l 182 0 z "},"¥":{"ha":757,"x_min":138,"x_max":907,"o":"m 535 453 l 717 453 l 697 343 l 506 343 l 490 253 l 681 253 l 663 143 l 471 143 l 446 0 l 311 0 l 336 143 l 138 143 l 157 253 l 356 253 l 371 343 l 172 343 l 192 453 l 381 453 l 190 972 l 339 972 l 476 574 l 756 972 l 907 972 l 535 453 z "},"µ":{"ha":761,"x_min":49,"x_max":783,"o":"m 522 0 l 535 74 q 455 6 501 28 q 361 -17 408 -17 q 291 -1 324 -17 q 244 44 258 14 l 196 -229 l 49 -281 l 224 710 l 360 710 l 286 297 q 281 262 283 279 q 279 225 279 244 q 304 147 279 181 q 392 114 329 114 q 503 153 450 114 q 572 290 556 192 l 647 710 l 783 710 l 658 0 l 522 0 z "},"∂":{"ha":774,"x_min":83,"x_max":804,"o":"m 353 -17 q 153 59 222 -17 q 83 249 83 135 q 136 445 83 364 q 272 569 189 526 q 446 613 354 613 q 586 578 533 613 q 656 497 639 543 q 663 528 658 508 q 667 582 667 549 q 593 788 667 722 q 415 861 519 853 l 468 989 q 722 858 640 961 q 804 575 804 756 q 755 305 804 442 q 606 76 706 168 q 353 -17 506 -17 m 367 117 q 531 180 464 117 q 597 332 597 243 q 553 441 597 403 q 438 479 510 479 q 283 417 347 479 q 219 261 219 354 q 258 157 219 197 q 367 117 297 117 z "},"∑":{"ha":814,"x_min":25,"x_max":913,"o":"m 25 -196 l 47 -69 l 461 401 l 228 846 l 250 971 l 913 971 l 889 838 l 394 838 l 628 400 l 228 -61 l 757 -61 l 732 -196 l 25 -196 z "},"∏":{"ha":953,"x_min":83,"x_max":1004,"o":"m 663 -194 l 844 836 l 401 836 l 219 -194 l 83 -194 l 289 972 l 1004 972 l 799 -194 l 663 -194 z "},"π":{"ha":890,"x_min":58,"x_max":951,"o":"m 157 -31 l 58 63 q 149 128 104 88 q 232 246 194 169 q 293 451 269 322 l 313 564 l 189 564 l 215 710 l 951 710 l 926 564 l 767 564 l 703 201 q 699 181 700 192 q 699 163 699 171 q 749 108 699 108 q 806 117 779 108 q 858 140 832 126 l 821 13 q 697 -17 758 -17 q 597 20 635 -17 q 558 121 558 57 q 560 150 558 133 q 565 189 561 167 l 631 564 l 444 564 l 435 507 q 346 179 401 319 q 157 -31 290 39 z "},"∫":{"ha":558,"x_min":24,"x_max":672,"o":"m 157 -194 q 84 -186 118 -194 q 24 -162 50 -178 l 43 -53 q 93 -69 71 -64 q 138 -74 115 -74 q 190 -55 174 -74 q 211 -8 207 -36 l 358 824 q 428 955 375 921 q 542 989 481 989 q 612 979 579 989 q 672 954 644 969 l 653 844 q 603 862 625 856 q 560 868 582 868 q 508 848 525 868 q 486 801 492 828 l 340 -31 q 269 -161 322 -128 q 157 -194 217 -194 z "},"ª":{"ha":582,"x_min":149,"x_max":651,"o":"m 463 393 l 471 435 q 408 397 447 414 q 319 379 368 379 q 199 422 250 379 q 149 546 149 465 q 228 715 149 661 q 393 769 307 769 q 466 760 429 769 q 525 739 503 751 l 528 761 q 532 786 531 778 q 533 804 533 794 q 435 882 533 882 q 346 866 389 882 q 268 826 303 850 l 253 928 q 347 972 292 954 q 468 989 403 989 q 591 954 531 989 q 651 826 651 919 q 649 797 651 813 q 643 758 647 781 l 579 393 l 463 393 m 349 483 q 426 501 389 483 q 489 540 464 519 l 506 636 q 453 656 485 647 q 392 665 422 665 q 304 640 344 665 q 264 560 264 615 q 349 483 264 483 z "},"º":{"ha":601,"x_min":158,"x_max":685,"o":"m 371 378 q 216 443 274 378 q 158 619 158 508 q 246 888 158 788 q 472 989 333 989 q 627 923 569 989 q 685 746 685 857 q 599 478 685 578 q 371 378 513 378 m 388 494 q 518 561 472 494 q 564 729 564 628 q 456 872 564 872 q 328 808 376 872 q 279 640 279 743 q 308 533 279 572 q 388 494 336 494 z "},"Ω":{"ha":968,"x_min":93,"x_max":975,"o":"m 557 0 l 579 124 q 730 284 675 210 q 808 433 785 358 q 831 599 831 508 q 787 776 831 699 q 633 854 743 854 q 457 792 525 854 q 357 635 389 729 q 325 450 325 542 q 355 276 325 358 q 436 124 385 193 l 414 0 l 93 0 l 117 133 l 304 133 q 217 273 251 185 q 183 467 183 361 q 231 701 183 581 q 380 906 279 822 q 639 989 481 989 q 840 933 767 989 q 944 794 913 876 q 975 632 975 711 q 903 338 975 463 q 713 133 832 213 l 900 133 l 876 0 l 557 0 z "},"æ":{"ha":1138,"x_min":99,"x_max":1156,"o":"m 301 -17 q 158 37 217 -17 q 99 189 99 90 q 190 392 99 328 q 399 457 281 457 q 483 445 440 457 q 556 414 525 433 l 564 461 q 567 484 567 474 q 568 504 568 494 q 463 604 568 604 q 348 583 406 604 q 243 531 290 561 l 225 646 q 340 701 274 676 q 482 726 406 726 q 593 697 544 726 q 665 621 642 668 q 773 700 710 674 q 904 726 836 726 q 1088 658 1021 726 q 1156 456 1156 590 q 1147 368 1156 407 q 1129 300 1139 329 l 672 300 q 671 290 671 294 q 671 281 671 286 q 711 153 671 199 q 819 107 751 107 q 899 122 856 107 q 981 172 942 138 l 1047 78 q 938 8 1000 33 q 801 -17 875 -17 q 661 19 721 -17 q 574 119 601 56 q 439 15 510 46 q 301 -17 368 -17 m 342 104 q 439 131 394 104 q 515 190 483 157 q 519 217 517 204 q 525 243 522 229 q 529 269 528 256 q 533 294 531 282 q 473 324 510 311 q 397 336 436 336 q 282 305 332 336 q 232 201 232 274 q 260 132 232 160 q 342 104 288 104 m 690 419 l 1018 419 q 1022 472 1022 447 q 981 571 1018 539 q 888 603 944 603 q 767 558 821 603 q 690 419 713 514 z "},"ø":{"ha":739,"x_min":63,"x_max":800,"o":"m 63 -17 l 160 99 q 117 283 117 172 q 160 499 117 397 q 285 663 203 600 q 485 726 368 726 q 570 713 532 726 q 638 678 608 700 l 678 726 l 800 726 l 701 607 q 746 431 746 531 q 703 212 746 314 q 578 47 660 110 q 383 -17 497 -17 q 224 29 288 -17 l 185 -17 l 63 -17 m 390 114 q 508 158 460 114 q 583 272 557 203 q 608 415 608 340 q 599 482 608 453 l 315 140 q 348 121 329 128 q 390 114 367 114 m 263 225 l 549 568 q 471 596 517 596 q 354 551 403 596 q 280 438 306 507 q 254 296 254 369 q 256 260 254 278 q 263 225 258 242 z "},"¿":{"ha":667,"x_min":42,"x_max":650,"o":"m 283 -278 q 103 -210 165 -278 q 42 -49 42 -143 q 83 106 42 50 q 182 201 125 161 q 289 288 239 240 q 354 417 339 336 l 360 447 l 494 447 l 488 415 q 417 254 467 313 q 313 157 368 196 q 219 78 258 118 q 179 -31 179 38 q 210 -112 179 -78 q 307 -146 242 -146 q 444 -96 389 -146 q 517 46 500 -46 l 650 46 q 522 -192 624 -106 q 283 -278 419 -278 m 444 525 q 383 550 406 525 q 360 610 360 575 q 393 692 360 658 q 474 726 426 726 q 535 701 513 726 q 557 642 557 676 q 524 560 557 594 q 444 525 490 525 z "},"¡":{"ha":360,"x_min":63,"x_max":389,"o":"m 63 -278 l 117 28 l 228 440 l 285 440 l 250 28 l 197 -278 l 63 -278 m 276 525 q 213 550 236 525 q 190 610 190 575 q 224 692 190 658 q 304 726 257 726 q 366 701 343 726 q 389 642 389 676 q 355 560 389 594 q 276 525 321 525 z "},"¬":{"ha":840,"x_min":181,"x_max":817,"o":"m 676 233 l 676 521 l 181 521 l 181 654 l 817 654 l 817 233 l 676 233 z "},"√":{"ha":738,"x_min":143,"x_max":868,"o":"m 868 972 l 414 0 l 299 0 l 143 472 l 281 472 l 372 188 l 726 972 l 868 972 z "},"ƒ":{"ha":482,"x_min":-46,"x_max":624,"o":"m 0 -318 l -46 -208 q 100 -157 56 -194 q 156 -56 144 -119 l 269 585 l 168 585 l 190 710 l 290 710 l 311 824 q 383 955 328 921 q 497 989 439 989 q 567 979 536 989 q 624 954 597 969 l 603 839 q 554 858 575 851 q 510 864 533 864 q 460 845 475 864 q 442 799 446 826 l 425 710 l 581 710 l 558 585 l 403 585 l 296 -24 q 191 -235 269 -172 q 0 -318 113 -299 z "},"≈":{"ha":840,"x_min":175,"x_max":828,"o":"m 175 510 q 217 659 175 594 q 360 724 260 724 q 515 683 450 724 q 642 643 581 643 q 703 666 681 643 q 728 724 725 689 l 828 724 q 785 574 828 639 q 643 510 743 510 q 489 550 556 510 q 361 590 422 590 q 300 567 322 590 q 275 510 278 544 l 175 510 m 175 228 q 217 379 175 314 q 360 444 260 444 q 515 403 450 444 q 642 363 581 363 q 703 385 681 363 q 728 444 725 408 l 828 444 q 785 293 828 358 q 643 228 743 228 q 489 269 556 228 q 361 310 422 310 q 300 287 322 310 q 275 228 278 264 l 175 228 z "},"∆":{"ha":849,"x_min":33,"x_max":813,"o":"m 33 0 l 532 972 l 654 972 l 813 0 l 33 0 m 249 133 l 656 133 l 578 651 q 569 706 574 675 q 563 763 564 738 q 536 706 553 739 q 510 651 519 674 l 249 133 z "},"«":{"ha":692,"x_min":103,"x_max":797,"o":"m 525 0 l 385 356 l 650 710 l 797 710 l 529 349 l 668 0 l 525 0 m 243 0 l 103 356 l 368 710 l 513 710 l 246 349 l 385 0 l 243 0 z "},"»":{"ha":692,"x_min":15,"x_max":714,"o":"m 299 0 l 568 360 l 432 710 l 574 710 l 714 356 l 449 0 l 299 0 m 15 0 l 285 360 l 149 710 l 290 710 l 431 356 l 165 0 l 15 0 z "},"…":{"ha":1224,"x_min":129,"x_max":1118,"o":"m 200 -17 q 149 4 169 -17 q 129 54 129 25 q 160 124 129 94 q 229 153 190 153 q 281 131 261 153 q 301 79 301 110 q 270 11 301 39 q 200 -17 239 -17 m 608 -17 q 557 4 576 -17 q 538 54 538 25 q 567 124 538 94 q 638 153 597 153 q 690 131 669 153 q 710 79 710 110 q 678 11 710 39 q 608 -17 647 -17 m 1017 -17 q 966 4 986 -17 q 946 54 946 25 q 976 124 946 94 q 1046 153 1007 153 q 1098 131 1078 153 q 1118 79 1118 110 q 1087 11 1118 39 q 1017 -17 1056 -17 z "},"À":{"ha":915,"x_min":51,"x_max":865,"o":"m 51 0 l 563 972 l 693 972 l 865 0 l 721 0 l 683 226 l 321 226 l 203 0 l 51 0 m 386 354 l 663 354 l 607 685 q 601 727 606 700 q 594 767 596 754 q 577 728 589 754 q 557 686 565 703 l 386 354 m 589 1028 l 386 1244 l 569 1244 l 721 1028 l 589 1028 z "},"Ã":{"ha":915,"x_min":51,"x_max":918,"o":"m 51 0 l 563 972 l 693 972 l 865 0 l 721 0 l 683 226 l 321 226 l 203 0 l 51 0 m 386 354 l 663 354 l 607 685 q 601 727 606 700 q 594 767 596 754 q 577 728 589 754 q 557 686 565 703 l 386 354 m 750 1050 q 635 1083 679 1050 q 542 1117 592 1117 q 468 1056 482 1117 l 401 1056 q 456 1181 415 1133 q 571 1228 496 1228 q 685 1194 642 1228 q 778 1161 728 1161 q 853 1222 836 1161 l 918 1222 q 864 1097 904 1144 q 750 1050 824 1050 z "},"Õ":{"ha":957,"x_min":154,"x_max":974,"o":"m 501 117 q 683 186 608 117 q 794 363 757 256 q 832 585 832 469 q 785 769 832 683 q 625 854 738 854 q 443 783 517 854 q 333 605 369 713 q 296 390 296 497 q 343 201 296 286 q 501 117 390 117 m 501 -17 q 299 42 375 -17 q 189 193 224 100 q 154 390 154 286 q 208 674 154 536 q 367 900 261 811 q 632 989 474 989 q 828 930 753 989 q 938 778 903 871 q 974 585 974 686 q 919 299 974 436 q 760 72 865 161 q 501 -17 656 -17 m 747 1050 q 633 1083 676 1050 q 539 1117 589 1117 q 465 1056 479 1117 l 399 1056 q 453 1181 413 1133 q 568 1228 493 1228 q 682 1194 639 1228 q 775 1161 725 1161 q 850 1222 833 1161 l 915 1222 q 861 1097 901 1144 q 747 1050 821 1050 z "},"Œ":{"ha":1254,"x_min":153,"x_max":1326,"o":"m 500 -17 q 296 43 372 -17 q 186 194 219 103 q 153 379 153 285 q 206 668 153 528 q 364 899 258 808 q 631 989 469 989 q 724 978 679 989 q 800 947 769 967 l 804 972 l 1326 972 l 1304 839 l 925 839 l 878 568 l 1092 568 l 1067 436 l 854 436 l 801 132 l 1208 132 l 1185 0 l 633 0 l 635 7 q 574 -10 608 -3 q 500 -17 539 -17 m 500 117 q 664 171 593 117 l 772 788 q 715 833 750 813 q 624 854 681 854 q 441 783 514 854 q 331 606 368 713 q 294 393 294 500 q 340 203 294 289 q 500 117 386 117 z "},"œ":{"ha":1190,"x_min":117,"x_max":1210,"o":"m 379 -17 q 181 67 244 -17 q 117 281 117 151 q 161 498 117 396 q 288 663 206 600 q 482 726 369 726 q 617 694 564 726 q 701 607 671 661 q 812 694 749 663 q 949 726 875 726 q 1138 660 1067 726 q 1210 460 1210 593 q 1203 375 1210 415 q 1185 300 1196 335 l 726 300 q 726 292 726 296 q 726 283 726 288 q 767 153 726 200 q 874 107 807 107 q 956 124 914 107 q 1036 172 999 142 l 1101 81 q 990 10 1053 36 q 850 -17 928 -17 q 724 15 778 -17 q 638 104 669 47 q 526 16 590 49 q 379 -17 461 -17 m 388 114 q 508 158 458 114 q 583 272 557 203 q 608 415 608 340 q 576 543 608 490 q 476 596 544 596 q 356 551 406 596 q 280 438 306 507 q 254 296 254 369 q 287 165 254 217 q 388 114 319 114 m 746 419 l 1074 419 q 1076 474 1078 454 q 1031 575 1071 547 q 944 603 992 603 q 814 550 864 603 q 746 419 764 497 z "},"–":{"ha":660,"x_min":126,"x_max":674,"o":"m 126 338 l 147 458 l 674 458 l 653 338 l 126 338 z "},"—":{"ha":767,"x_min":53,"x_max":854,"o":"m 53 338 l 74 458 l 854 458 l 833 338 l 53 338 z "},"“":{"ha":585,"x_min":168,"x_max":692,"o":"m 544 611 q 483 636 508 611 q 458 710 458 661 q 516 869 458 794 q 649 989 574 944 l 692 957 q 638 899 671 940 q 590 811 604 858 q 661 731 661 801 q 625 644 661 676 q 544 611 589 611 m 256 611 q 194 636 219 611 q 168 708 168 661 q 226 869 168 794 q 358 989 283 944 l 401 957 q 347 899 381 940 q 299 811 314 858 q 371 731 371 801 q 336 644 371 678 q 256 611 301 611 z "},"”":{"ha":585,"x_min":175,"x_max":699,"o":"m 508 611 l 465 643 q 520 700 486 660 q 568 788 554 740 q 497 869 497 800 q 532 956 497 922 q 613 989 567 989 q 673 964 647 989 q 699 890 699 939 q 642 731 699 806 q 508 611 585 656 m 218 611 l 175 643 q 230 700 196 660 q 278 788 264 740 q 207 869 207 799 q 242 956 207 922 q 322 989 276 989 q 383 964 357 989 q 408 890 408 939 q 351 731 408 806 q 218 611 294 656 z "},"‘":{"ha":294,"x_min":168,"x_max":401,"o":"m 256 611 q 194 636 219 611 q 168 708 168 661 q 226 869 168 794 q 358 989 283 944 l 401 957 q 347 899 381 940 q 299 811 314 858 q 371 731 371 801 q 336 644 371 678 q 256 611 301 611 z "},"’":{"ha":294,"x_min":175,"x_max":408,"o":"m 218 611 l 175 643 q 230 700 196 660 q 278 788 264 740 q 207 869 207 799 q 242 956 207 922 q 322 989 276 989 q 383 964 357 989 q 408 890 408 939 q 351 731 408 806 q 218 611 294 656 z "},"÷":{"ha":840,"x_min":181,"x_max":817,"o":"m 181 408 l 181 543 l 817 543 l 817 408 l 181 408 m 497 657 q 435 683 460 657 q 410 743 410 708 q 435 804 410 778 q 497 831 460 831 q 560 804 535 831 q 586 743 586 778 q 560 683 586 708 q 497 657 535 657 m 497 122 q 435 147 460 122 q 410 207 410 172 q 435 268 410 243 q 497 293 460 293 q 560 268 535 293 q 586 207 586 243 q 560 147 586 172 q 497 122 535 122 z "},"◊":{"ha":799,"x_min":160,"x_max":813,"o":"m 340 -17 l 160 486 l 518 989 l 632 989 l 813 486 l 454 -17 l 340 -17 m 551 836 l 296 478 l 418 138 l 675 494 l 551 836 z "},"ÿ":{"ha":714,"x_min":136,"x_max":810,"o":"m 136 -269 l 289 18 l 158 710 l 297 710 l 376 247 q 382 212 379 229 q 386 189 385 194 q 398 215 389 197 q 415 247 407 232 l 661 710 l 810 710 l 283 -269 l 136 -269 m 379 822 q 330 843 349 822 q 311 893 311 864 q 340 960 311 932 q 404 989 368 989 q 455 969 436 989 q 474 919 474 949 q 445 851 474 879 q 379 822 417 822 m 618 822 q 568 843 588 822 q 549 893 549 864 q 578 961 549 933 q 643 989 607 989 q 693 969 674 989 q 713 919 713 949 q 683 851 713 879 q 618 822 654 822 z "},"Ÿ":{"ha":865,"x_min":210,"x_max":996,"o":"m 360 0 l 429 390 l 210 972 l 357 972 l 518 524 l 839 972 l 996 972 l 569 383 l 501 0 l 360 0 m 492 1044 q 442 1065 461 1044 q 424 1115 424 1086 q 452 1183 424 1154 q 517 1211 481 1211 q 567 1191 549 1211 q 586 1142 586 1171 q 558 1073 586 1101 q 492 1044 529 1044 m 731 1044 q 681 1065 700 1044 q 661 1115 661 1086 q 690 1183 661 1156 q 756 1211 719 1211 q 806 1191 786 1211 q 825 1142 825 1171 q 796 1073 825 1101 q 731 1044 767 1044 z "},"⁄":{"ha":438,"x_min":-168,"x_max":779,"o":"m -168 -17 l 647 989 l 779 989 l -36 -17 l -168 -17 z "},"€":{"ha":858,"x_min":99,"x_max":900,"o":"m 497 -17 q 286 69 356 -17 q 210 311 217 156 l 99 311 l 164 418 l 214 418 q 221 474 217 444 q 232 533 225 503 l 139 533 l 204 642 l 264 642 q 411 883 311 776 q 676 989 511 989 q 794 970 738 989 q 900 910 850 951 l 829 785 q 756 837 799 817 q 658 857 714 857 q 504 792 564 857 q 410 642 444 728 l 747 642 l 685 533 l 374 533 q 361 476 367 506 q 353 418 356 447 l 619 418 l 558 310 l 351 311 q 388 172 353 228 q 507 115 422 115 q 610 142 563 115 q 697 214 658 168 l 792 146 q 667 29 740 75 q 497 -17 593 -17 z "},"‹":{"ha":408,"x_min":103,"x_max":517,"o":"m 243 0 l 103 356 l 368 710 l 517 710 l 249 353 l 386 0 l 243 0 z "},"›":{"ha":408,"x_min":18,"x_max":431,"o":"m 18 0 l 286 358 l 147 710 l 290 710 l 431 356 l 165 0 l 18 0 z "},"ﬁ":{"ha":800,"x_min":135,"x_max":867,"o":"m 378 586 l 274 0 l 136 0 l 240 586 l 135 586 l 157 710 l 261 710 l 282 828 q 354 957 300 924 q 468 990 408 990 q 538 980 506 990 q 596 954 569 969 l 575 839 q 526 858 547 853 q 482 864 504 864 q 435 844 450 864 q 415 799 421 825 l 399 710 l 549 710 l 528 586 l 378 586 m 557 0 l 682 710 l 819 710 l 694 0 l 557 0 m 772 825 q 721 845 740 825 q 701 894 701 865 q 731 965 701 936 q 794 993 760 993 q 847 973 828 993 q 867 924 867 953 q 838 853 867 882 q 772 825 808 825 z "},"ﬂ":{"ha":811,"x_min":135,"x_max":875,"o":"m 378 586 l 274 0 l 136 0 l 240 586 l 135 586 l 157 710 l 261 710 l 282 828 q 354 957 300 924 q 468 990 408 990 q 538 980 506 990 q 596 954 569 969 l 575 839 q 526 858 547 853 q 482 864 504 864 q 435 844 450 864 q 415 799 421 825 l 399 710 l 549 710 l 528 586 l 378 586 m 560 0 l 728 951 l 875 1003 l 697 0 l 560 0 z "},"‡":{"ha":743,"x_min":97,"x_max":783,"o":"m 621 203 l 692 203 l 668 68 l 597 68 l 443 93 l 435 -22 l 404 -196 l 268 -196 l 299 -22 l 331 93 l 168 68 l 97 68 l 121 203 l 192 203 l 347 179 l 360 325 l 385 467 l 424 611 l 260 589 l 189 589 l 213 724 l 283 724 l 438 700 l 447 815 l 478 989 l 614 989 l 583 815 l 550 700 l 713 724 l 783 724 l 760 589 l 689 589 l 533 611 l 521 467 l 496 325 l 457 179 l 621 203 z "},"·":{"ha":290,"x_min":132,"x_max":329,"o":"m 215 383 q 155 409 178 383 q 132 469 132 435 q 166 551 132 517 q 244 586 200 586 q 306 560 283 586 q 329 500 329 535 q 297 418 329 453 q 215 383 264 383 z "},"‚":{"ha":294,"x_min":33,"x_max":265,"o":"m 76 -196 l 33 -164 q 88 -107 54 -147 q 136 -18 122 -67 q 64 63 64 -8 q 98 149 64 117 q 175 182 132 182 q 240 156 214 182 q 265 83 265 131 q 208 -78 265 -3 q 76 -196 151 -153 z "},"„":{"ha":585,"x_min":33,"x_max":556,"o":"m 365 -196 l 322 -164 q 377 -107 343 -147 q 425 -18 411 -67 q 354 63 354 -8 q 388 149 354 117 q 464 182 422 182 q 529 156 503 182 q 556 83 556 131 q 499 -78 556 -3 q 365 -196 442 -153 m 76 -196 l 33 -164 q 88 -107 54 -147 q 136 -18 122 -67 q 64 63 64 -8 q 98 149 64 117 q 175 182 132 182 q 240 156 214 182 q 265 83 265 131 q 208 -78 265 -3 q 76 -196 151 -153 z "},"‰":{"ha":1653,"x_min":179,"x_max":1640,"o":"m 363 488 q 224 551 264 488 q 183 688 183 615 q 212 820 183 750 q 299 940 240 890 q 451 989 358 989 q 590 925 550 989 q 631 789 631 861 q 603 656 631 725 q 516 537 575 586 q 363 488 457 488 m 383 603 q 478 656 444 603 q 511 774 511 708 q 491 845 511 817 q 431 874 471 874 q 336 821 368 874 q 304 701 304 768 q 323 631 304 660 q 383 603 342 603 m 313 -17 l 179 -17 l 993 989 l 1128 989 l 313 -17 m 854 -17 q 715 47 754 -17 q 675 182 675 110 q 703 315 675 244 q 791 435 732 386 q 943 485 850 485 q 1081 421 1042 485 q 1121 285 1121 357 q 1094 152 1121 222 q 1008 33 1067 82 q 854 -17 950 -17 m 875 99 q 969 151 936 99 q 1003 268 1003 203 q 983 340 1003 311 q 922 369 963 369 q 826 317 858 369 q 794 199 794 264 q 813 127 794 156 q 875 99 832 99 m 1372 -17 q 1233 47 1274 -17 q 1193 182 1193 110 q 1222 315 1193 244 q 1310 435 1250 386 q 1461 485 1369 485 q 1600 421 1560 485 q 1640 285 1640 357 q 1613 152 1640 222 q 1527 33 1586 82 q 1372 -17 1468 -17 m 1393 99 q 1488 151 1454 99 q 1521 268 1521 203 q 1501 340 1521 311 q 1440 369 1482 369 q 1345 317 1378 369 q 1313 197 1313 264 q 1332 127 1313 156 q 1393 99 1351 99 z "},"Â":{"ha":915,"x_min":51,"x_max":897,"o":"m 51 0 l 563 972 l 693 972 l 865 0 l 721 0 l 683 226 l 321 226 l 203 0 l 51 0 m 386 354 l 663 354 l 607 685 q 601 727 606 700 q 594 767 596 754 q 577 728 589 754 q 557 686 565 703 l 386 354 m 774 1028 l 661 1146 l 507 1028 l 385 1028 l 610 1244 l 747 1244 l 897 1028 l 774 1028 z "},"Ê":{"ha":799,"x_min":114,"x_max":871,"o":"m 114 0 l 285 972 l 871 972 l 849 839 l 406 839 l 358 568 l 636 568 l 611 436 l 335 436 l 282 132 l 753 132 l 729 0 l 114 0 m 721 1028 l 608 1146 l 454 1028 l 332 1028 l 557 1244 l 694 1244 l 844 1028 l 721 1028 z "},"Á":{"ha":915,"x_min":51,"x_max":969,"o":"m 51 0 l 563 972 l 693 972 l 865 0 l 721 0 l 683 226 l 321 226 l 203 0 l 51 0 m 386 354 l 663 354 l 607 685 q 601 727 606 700 q 594 767 596 754 q 577 728 589 754 q 557 686 565 703 l 386 354 m 692 1028 l 560 1028 l 788 1244 l 969 1244 l 692 1028 z "},"Ë":{"ha":799,"x_min":114,"x_max":871,"o":"m 114 0 l 285 972 l 871 972 l 849 839 l 406 839 l 358 568 l 636 568 l 611 436 l 335 436 l 282 132 l 753 132 l 729 0 l 114 0 m 474 1051 q 424 1072 443 1051 q 406 1122 406 1093 q 434 1190 406 1161 q 499 1218 463 1218 q 549 1198 531 1218 q 568 1149 568 1178 q 540 1080 568 1108 q 474 1051 511 1051 m 713 1051 q 663 1072 682 1051 q 643 1122 643 1093 q 672 1190 643 1163 q 738 1218 701 1218 q 788 1198 768 1218 q 807 1149 807 1178 q 778 1080 807 1108 q 713 1051 749 1051 z "},"È":{"ha":799,"x_min":114,"x_max":871,"o":"m 114 0 l 285 972 l 871 972 l 849 839 l 406 839 l 358 568 l 636 568 l 611 436 l 335 436 l 282 132 l 753 132 l 729 0 l 114 0 m 536 1028 l 333 1244 l 517 1244 l 668 1028 l 536 1028 z "},"Í":{"ha":372,"x_min":114,"x_max":696,"o":"m 114 0 l 285 972 l 429 972 l 258 0 l 114 0 m 418 1028 l 286 1028 l 514 1244 l 696 1244 l 418 1028 z "},"Î":{"ha":372,"x_min":111,"x_max":624,"o":"m 114 0 l 285 972 l 429 972 l 258 0 l 114 0 m 500 1028 l 388 1146 l 233 1028 l 111 1028 l 336 1244 l 474 1244 l 624 1028 l 500 1028 z "},"Ï":{"ha":372,"x_min":114,"x_max":586,"o":"m 114 0 l 285 972 l 429 972 l 258 0 l 114 0 m 253 1051 q 203 1072 222 1051 q 185 1122 185 1093 q 213 1190 185 1161 q 278 1218 242 1218 q 328 1198 310 1218 q 347 1149 347 1178 q 319 1080 347 1108 q 253 1051 290 1051 m 492 1051 q 442 1072 461 1051 q 422 1122 422 1093 q 451 1190 422 1163 q 517 1218 481 1218 q 567 1198 547 1218 q 586 1149 586 1178 q 557 1080 586 1108 q 492 1051 528 1051 z "},"Ì":{"ha":372,"x_min":113,"x_max":447,"o":"m 114 0 l 285 972 l 429 972 l 258 0 l 114 0 m 315 1028 l 113 1244 l 296 1244 l 447 1028 l 315 1028 z "},"Ó":{"ha":957,"x_min":154,"x_max":974,"o":"m 501 117 q 683 186 608 117 q 794 363 757 256 q 832 585 832 469 q 785 769 832 683 q 625 854 738 854 q 443 783 517 854 q 333 605 369 713 q 296 390 296 497 q 343 201 296 286 q 501 117 390 117 m 501 -17 q 299 42 375 -17 q 189 193 224 100 q 154 390 154 286 q 208 674 154 536 q 367 900 261 811 q 632 989 474 989 q 828 930 753 989 q 938 778 903 871 q 974 585 974 686 q 919 299 974 436 q 760 72 865 161 q 501 -17 656 -17 m 689 1028 l 557 1028 l 785 1244 l 967 1244 l 689 1028 z "},"Ô":{"ha":957,"x_min":154,"x_max":974,"o":"m 501 117 q 683 186 608 117 q 794 363 757 256 q 832 585 832 469 q 785 769 832 683 q 625 854 738 854 q 443 783 517 854 q 333 605 369 713 q 296 390 296 497 q 343 201 296 286 q 501 117 390 117 m 501 -17 q 299 42 375 -17 q 189 193 224 100 q 154 390 154 286 q 208 674 154 536 q 367 900 261 811 q 632 989 474 989 q 828 930 753 989 q 938 778 903 871 q 974 585 974 686 q 919 299 974 436 q 760 72 865 161 q 501 -17 656 -17 m 771 1028 l 658 1146 l 504 1028 l 382 1028 l 607 1244 l 744 1244 l 894 1028 l 771 1028 z "},"Ò":{"ha":957,"x_min":154,"x_max":974,"o":"m 501 117 q 683 186 608 117 q 794 363 757 256 q 832 585 832 469 q 785 769 832 683 q 625 854 738 854 q 443 783 517 854 q 333 605 369 713 q 296 390 296 497 q 343 201 296 286 q 501 117 390 117 m 501 -17 q 299 42 375 -17 q 189 193 224 100 q 154 390 154 286 q 208 674 154 536 q 367 900 261 811 q 632 989 474 989 q 828 930 753 989 q 938 778 903 871 q 974 585 974 686 q 919 299 974 436 q 760 72 865 161 q 501 -17 656 -17 m 586 1028 l 383 1244 l 567 1244 l 718 1028 l 586 1028 z "},"Ú":{"ha":922,"x_min":168,"x_max":986,"o":"m 479 -17 q 258 54 347 -17 q 168 278 168 125 q 170 331 168 301 q 181 404 172 360 l 281 972 l 424 972 l 321 383 q 311 289 311 325 q 365 153 311 189 q 488 118 418 118 q 642 169 574 118 q 738 367 711 219 l 844 972 l 986 972 l 879 358 q 799 133 854 215 q 663 17 744 51 q 479 -17 582 -17 m 681 1021 l 549 1021 l 776 1238 l 958 1238 l 681 1021 z "},"Û":{"ha":922,"x_min":168,"x_max":986,"o":"m 479 -17 q 258 54 347 -17 q 168 278 168 125 q 170 331 168 301 q 181 404 172 360 l 281 972 l 424 972 l 321 383 q 311 289 311 325 q 365 153 311 189 q 488 118 418 118 q 642 169 574 118 q 738 367 711 219 l 844 972 l 986 972 l 879 358 q 799 133 854 215 q 663 17 744 51 q 479 -17 582 -17 m 763 1021 l 650 1139 l 496 1021 l 374 1021 l 599 1238 l 736 1238 l 886 1021 l 763 1021 z "},"Ù":{"ha":922,"x_min":168,"x_max":986,"o":"m 479 -17 q 258 54 347 -17 q 168 278 168 125 q 170 331 168 301 q 181 404 172 360 l 281 972 l 424 972 l 321 383 q 311 289 311 325 q 365 153 311 189 q 488 118 418 118 q 642 169 574 118 q 738 367 711 219 l 844 972 l 986 972 l 879 358 q 799 133 854 215 q 663 17 744 51 q 479 -17 582 -17 m 578 1021 l 375 1238 l 558 1238 l 710 1021 l 578 1021 z "},"ı":{"ha":349,"x_min":106,"x_max":367,"o":"m 106 0 l 231 710 l 367 710 l 242 0 l 106 0 z "},"ˆ":{"ha":519,"x_min":192,"x_max":704,"o":"m 581 800 l 468 918 l 314 800 l 192 800 l 417 1017 l 554 1017 l 704 800 l 581 800 z "},"˜":{"ha":519,"x_min":204,"x_max":721,"o":"m 553 822 q 438 856 482 822 q 344 889 394 889 q 271 828 285 889 l 204 828 q 258 953 218 906 q 374 1000 299 1000 q 488 967 444 1000 q 581 933 531 933 q 656 994 639 933 l 721 994 q 667 869 707 917 q 553 822 626 822 z "},"¯":{"ha":519,"x_min":238,"x_max":697,"o":"m 238 829 l 257 946 l 697 946 l 678 829 l 238 829 z "},"˘":{"ha":519,"x_min":240,"x_max":738,"o":"m 454 800 q 292 854 343 800 q 240 981 240 908 q 244 1031 240 1006 l 356 1031 q 353 1018 354 1025 q 353 1006 353 1011 q 381 935 353 961 q 468 908 410 908 q 572 943 529 908 q 625 1031 615 978 l 738 1031 q 651 868 721 936 q 454 800 581 800 z "},"˙":{"ha":519,"x_min":385,"x_max":549,"o":"m 451 824 q 403 844 422 824 q 385 894 385 865 q 414 962 385 933 q 481 990 443 990 q 530 970 511 990 q 549 921 549 950 q 519 852 549 881 q 451 824 490 824 z "},"˚":{"ha":519,"x_min":292,"x_max":622,"o":"m 428 739 q 330 781 368 739 q 292 882 292 824 q 352 1018 292 963 q 488 1074 413 1074 q 584 1033 546 1074 q 622 933 622 992 q 561 797 622 854 q 428 739 500 739 m 444 838 q 499 861 475 838 q 522 921 522 885 q 469 976 522 976 q 417 954 440 976 q 393 896 393 932 q 408 854 393 871 q 444 838 422 838 z "},"¸":{"ha":519,"x_min":75,"x_max":389,"o":"m 200 -332 q 120 -315 150 -332 q 75 -275 90 -297 l 150 -226 q 167 -243 156 -236 q 200 -250 179 -250 q 255 -231 232 -250 q 278 -182 278 -212 q 214 -128 278 -128 q 158 -140 181 -128 l 138 -107 l 253 14 l 328 14 l 263 -71 q 360 -101 331 -71 q 389 -172 389 -132 q 337 -287 389 -243 q 200 -332 285 -332 z "},"˝":{"ha":519,"x_min":235,"x_max":919,"o":"m 235 800 l 461 1017 l 642 1017 l 367 800 l 235 800 m 514 800 l 740 1017 l 919 1017 l 644 800 l 514 800 z "},"˛":{"ha":519,"x_min":72,"x_max":392,"o":"m 206 -332 q 109 -301 146 -332 q 72 -214 72 -269 q 132 -77 72 -136 q 294 14 192 -18 l 392 14 q 235 -85 283 -29 q 188 -192 188 -140 q 203 -233 188 -219 q 239 -246 218 -246 q 278 -237 261 -246 q 307 -217 296 -228 l 364 -267 q 301 -310 340 -289 q 206 -332 263 -332 z "},"ˇ":{"ha":519,"x_min":222,"x_max":735,"o":"m 508 800 l 372 800 l 222 1017 l 344 1017 l 458 899 l 611 1017 l 735 1017 l 508 800 z "},"¤":{"ha":836,"x_min":81,"x_max":918,"o":"m 439 118 q 267 171 335 118 l 161 76 l 81 181 l 192 279 q 179 333 183 301 q 175 390 175 365 q 195 526 175 464 q 257 646 215 588 l 179 744 l 293 846 l 367 753 q 457 792 408 778 q 560 807 506 807 q 731 753 665 807 l 836 846 l 918 740 l 810 644 q 820 590 817 622 q 824 531 824 557 q 803 398 824 461 q 740 275 783 335 l 819 176 l 706 76 l 629 172 q 439 118 543 118 m 463 253 q 621 325 557 253 q 685 503 685 397 q 646 624 685 575 q 536 672 607 672 q 378 600 443 672 q 314 421 314 528 q 353 301 314 349 q 463 253 393 253 z "},"­":{"ha":524,"x_min":161,"x_max":508,"o":"m 161 344 l 185 479 l 508 479 l 485 344 l 161 344 z "},"Ā":{"ha":915,"x_min":51,"x_max":885,"o":"m 51 0 l 563 972 l 693 972 l 865 0 l 721 0 l 683 226 l 321 226 l 203 0 l 51 0 m 386 354 l 663 354 l 607 685 q 601 727 606 700 q 594 767 596 754 q 577 728 589 754 q 557 686 565 703 l 386 354 m 425 1057 l 444 1174 l 885 1174 l 865 1057 l 425 1057 z "},"ā":{"ha":721,"x_min":97,"x_max":743,"o":"m 496 0 l 506 57 q 424 6 475 29 q 310 -17 374 -17 q 157 39 217 -17 q 97 189 97 94 q 188 390 97 324 q 401 456 278 456 q 497 441 456 456 q 567 408 539 426 l 575 453 q 580 481 578 468 q 582 506 582 494 q 549 583 582 561 q 471 604 515 604 q 353 582 414 604 q 247 531 293 560 l 228 646 q 344 701 278 676 q 489 726 411 726 q 588 709 535 726 q 678 647 640 692 q 715 522 715 603 q 713 488 715 508 q 707 447 711 468 l 629 0 l 496 0 m 343 104 q 449 130 400 104 q 528 186 497 156 l 547 293 q 487 322 525 307 q 399 336 449 336 q 283 305 335 336 q 232 201 232 274 q 260 132 232 160 q 343 104 289 104 m 283 828 l 303 944 l 743 944 l 724 828 l 283 828 z "},"Ă":{"ha":915,"x_min":51,"x_max":925,"o":"m 51 0 l 563 972 l 693 972 l 865 0 l 721 0 l 683 226 l 321 226 l 203 0 l 51 0 m 386 354 l 663 354 l 607 685 q 601 727 606 700 q 594 767 596 754 q 577 728 589 754 q 557 686 565 703 l 386 354 m 642 1028 q 479 1082 531 1028 q 428 1208 428 1136 q 432 1258 428 1233 l 543 1258 q 541 1246 542 1253 q 540 1233 540 1239 q 569 1163 540 1189 q 656 1136 597 1136 q 760 1171 717 1136 q 813 1258 803 1206 l 925 1258 q 838 1096 908 1164 q 642 1028 768 1028 z "},"ă":{"ha":721,"x_min":97,"x_max":783,"o":"m 496 0 l 506 57 q 424 6 475 29 q 310 -17 374 -17 q 157 39 217 -17 q 97 189 97 94 q 188 390 97 324 q 401 456 278 456 q 497 441 456 456 q 567 408 539 426 l 575 453 q 580 481 578 468 q 582 506 582 494 q 549 583 582 561 q 471 604 515 604 q 353 582 414 604 q 247 531 293 560 l 228 646 q 344 701 278 676 q 489 726 411 726 q 588 709 535 726 q 678 647 640 692 q 715 522 715 603 q 713 488 715 508 q 707 447 711 468 l 629 0 l 496 0 m 343 104 q 449 130 400 104 q 528 186 497 156 l 547 293 q 487 322 525 307 q 399 336 449 336 q 283 305 335 336 q 232 201 232 274 q 260 132 232 160 q 343 104 289 104 m 500 799 q 338 853 389 799 q 286 979 286 907 q 290 1029 286 1004 l 401 1029 q 399 1017 400 1024 q 399 1004 399 1010 q 427 933 399 960 q 514 907 456 907 q 618 942 575 907 q 671 1029 661 976 l 783 1029 q 697 867 767 935 q 500 799 626 799 z "},"Ą":{"ha":915,"x_min":51,"x_max":865,"o":"m 664 -332 q 567 -301 604 -332 q 531 -214 531 -269 q 580 -90 531 -144 q 721 0 629 -35 l 682 226 l 321 226 l 203 0 l 51 0 l 563 972 l 693 972 l 865 0 q 745 -44 794 -14 q 671 -114 696 -75 q 646 -192 646 -153 q 661 -233 646 -219 q 697 -246 676 -246 q 737 -237 719 -246 q 765 -217 754 -228 l 821 -267 q 758 -310 797 -289 q 664 -332 719 -332 m 386 354 l 663 354 l 607 685 q 601 727 606 700 q 594 767 596 754 q 577 728 589 754 q 557 686 565 703 l 386 354 z "},"ą":{"ha":721,"x_min":97,"x_max":715,"o":"m 443 -332 q 348 -301 385 -332 q 311 -214 311 -269 q 363 -87 311 -140 q 496 0 414 -35 l 506 57 q 424 6 475 29 q 310 -17 374 -17 q 157 39 217 -17 q 97 189 97 94 q 188 390 97 324 q 401 456 278 456 q 497 441 456 456 q 567 408 539 426 l 575 453 q 580 481 578 468 q 582 506 582 494 q 549 583 582 561 q 471 604 515 604 q 353 582 414 604 q 247 531 293 560 l 228 646 q 344 701 278 676 q 489 726 411 726 q 588 709 535 726 q 678 647 640 692 q 715 522 715 603 q 713 488 715 508 q 707 447 711 468 l 629 0 q 522 -52 568 -22 q 451 -118 476 -82 q 425 -192 425 -154 q 440 -233 425 -219 q 476 -246 456 -246 q 517 -237 500 -246 q 544 -217 533 -228 l 600 -267 q 539 -310 578 -289 q 443 -332 500 -332 m 343 104 q 449 130 400 104 q 528 186 497 156 l 547 293 q 487 322 525 307 q 399 336 449 336 q 283 305 335 336 q 232 201 232 274 q 260 132 232 160 q 343 104 289 104 z "},"Ǎ":{"ha":915,"x_min":51,"x_max":933,"o":"m 51 0 l 563 972 l 693 972 l 865 0 l 721 0 l 683 226 l 321 226 l 203 0 l 51 0 m 386 354 l 663 354 l 607 685 q 601 727 606 700 q 594 767 596 754 q 577 728 589 754 q 557 686 565 703 l 386 354 m 707 1028 l 571 1028 l 421 1244 l 543 1244 l 657 1126 l 810 1244 l 933 1244 l 707 1028 z "},"ǎ":{"ha":721,"x_min":97,"x_max":792,"o":"m 496 0 l 506 57 q 424 6 475 29 q 310 -17 374 -17 q 157 39 217 -17 q 97 189 97 94 q 188 390 97 324 q 401 456 278 456 q 497 441 456 456 q 567 408 539 426 l 575 453 q 580 481 578 468 q 582 506 582 494 q 549 583 582 561 q 471 604 515 604 q 353 582 414 604 q 247 531 293 560 l 228 646 q 344 701 278 676 q 489 726 411 726 q 588 709 535 726 q 678 647 640 692 q 715 522 715 603 q 713 488 715 508 q 707 447 711 468 l 629 0 l 496 0 m 343 104 q 449 130 400 104 q 528 186 497 156 l 547 293 q 487 322 525 307 q 399 336 449 336 q 283 305 335 336 q 232 201 232 274 q 260 132 232 160 q 343 104 289 104 m 565 799 l 429 799 l 279 1015 l 401 1015 l 515 897 l 668 1015 l 792 1015 l 565 799 z "},"Ǽ":{"ha":1163,"x_min":-32,"x_max":1235,"o":"m -32 0 l 681 972 l 1235 972 l 1213 839 l 832 839 l 785 568 l 1007 568 l 982 436 l 761 436 l 708 132 l 1117 132 l 1093 0 l 543 0 l 583 226 l 290 226 l 126 0 l -32 0 m 385 354 l 606 354 l 679 771 q 656 734 669 754 q 629 694 643 714 l 385 354 m 821 1021 l 689 1021 l 917 1238 l 1099 1238 l 821 1021 z "},"ǽ":{"ha":1138,"x_min":99,"x_max":1156,"o":"m 301 -17 q 158 37 217 -17 q 99 189 99 90 q 190 392 99 328 q 399 457 281 457 q 483 445 440 457 q 556 414 525 433 l 564 461 q 567 484 567 474 q 568 504 568 494 q 463 604 568 604 q 348 583 406 604 q 243 531 290 561 l 225 646 q 340 701 274 676 q 482 726 406 726 q 593 697 544 726 q 665 621 642 668 q 773 700 710 674 q 904 726 836 726 q 1088 658 1021 726 q 1156 456 1156 590 q 1147 368 1156 407 q 1129 300 1139 329 l 672 300 q 671 290 671 294 q 671 281 671 286 q 711 153 671 199 q 819 107 751 107 q 899 122 856 107 q 981 172 942 138 l 1047 78 q 938 8 1000 33 q 801 -17 875 -17 q 661 19 721 -17 q 574 119 601 56 q 439 15 510 46 q 301 -17 368 -17 m 342 104 q 439 131 394 104 q 515 190 483 157 q 519 217 517 204 q 525 243 522 229 q 529 269 528 256 q 533 294 531 282 q 473 324 510 311 q 397 336 436 336 q 282 305 332 336 q 232 201 232 274 q 260 132 232 160 q 342 104 288 104 m 690 419 l 1018 419 q 1022 472 1022 447 q 981 571 1018 539 q 888 603 944 603 q 767 558 821 603 q 690 419 713 514 m 749 799 l 617 799 l 844 1015 l 1026 1015 l 749 799 z "},"Ć":{"ha":851,"x_min":154,"x_max":968,"o":"m 488 -17 q 299 41 372 -17 q 190 191 225 99 q 154 389 154 283 q 212 679 154 542 q 376 902 269 817 q 635 988 483 988 q 828 928 758 988 q 922 800 897 868 l 799 742 q 730 823 772 792 q 625 854 688 854 q 447 783 519 854 q 337 608 374 713 q 300 400 300 503 q 346 208 300 297 q 497 119 392 119 q 625 156 574 119 q 710 243 676 193 l 832 188 q 690 39 775 94 q 488 -17 606 -17 m 690 1028 l 558 1028 l 786 1244 l 968 1244 l 690 1028 z "},"ć":{"ha":681,"x_min":118,"x_max":817,"o":"m 372 -17 q 185 67 253 -17 q 118 285 118 150 q 163 511 118 411 q 287 669 207 611 q 475 726 367 726 q 628 678 565 726 q 711 547 692 629 l 578 501 q 540 569 568 542 q 460 596 511 596 q 310 503 363 596 q 258 292 258 411 q 289 163 258 213 q 382 114 319 114 q 469 139 429 114 q 535 219 508 164 l 654 176 q 543 35 617 86 q 372 -17 469 -17 m 539 799 l 407 799 l 635 1015 l 817 1015 l 539 799 z "},"Ĉ":{"ha":851,"x_min":154,"x_max":922,"o":"m 488 -17 q 299 41 372 -17 q 190 191 225 99 q 154 389 154 283 q 212 679 154 542 q 376 902 269 817 q 635 988 483 988 q 828 928 758 988 q 922 800 897 868 l 799 742 q 730 823 772 792 q 625 854 688 854 q 447 783 519 854 q 337 608 374 713 q 300 400 300 503 q 346 208 300 297 q 497 119 392 119 q 625 156 574 119 q 710 243 676 193 l 832 188 q 690 39 775 94 q 488 -17 606 -17 m 772 1028 l 660 1146 l 506 1028 l 383 1028 l 608 1244 l 746 1244 l 896 1028 l 772 1028 z "},"ĉ":{"ha":681,"x_min":118,"x_max":744,"o":"m 372 -17 q 185 67 253 -17 q 118 285 118 150 q 163 511 118 411 q 287 669 207 611 q 475 726 367 726 q 628 678 565 726 q 711 547 692 629 l 578 501 q 540 569 568 542 q 460 596 511 596 q 310 503 363 596 q 258 292 258 411 q 289 163 258 213 q 382 114 319 114 q 469 139 429 114 q 535 219 508 164 l 654 176 q 543 35 617 86 q 372 -17 469 -17 m 621 799 l 508 917 l 354 799 l 232 799 l 457 1015 l 594 1015 l 744 799 l 621 799 z "},"Ċ":{"ha":851,"x_min":154,"x_max":922,"o":"m 488 -17 q 299 41 372 -17 q 190 191 225 99 q 154 389 154 283 q 212 679 154 542 q 376 902 269 817 q 635 988 483 988 q 828 928 758 988 q 922 800 897 868 l 799 742 q 730 823 772 792 q 625 854 688 854 q 447 783 519 854 q 337 608 374 713 q 300 400 300 503 q 346 208 300 297 q 497 119 392 119 q 625 156 574 119 q 710 243 676 193 l 832 188 q 690 39 775 94 q 488 -17 606 -17 m 644 1051 q 597 1072 615 1051 q 578 1122 578 1093 q 607 1190 578 1161 q 674 1218 636 1218 q 723 1198 704 1218 q 742 1149 742 1178 q 713 1080 742 1108 q 644 1051 683 1051 z "},"ċ":{"ha":681,"x_min":118,"x_max":711,"o":"m 372 -17 q 185 67 253 -17 q 118 285 118 150 q 163 511 118 411 q 287 669 207 611 q 475 726 367 726 q 628 678 565 726 q 711 547 692 629 l 578 501 q 540 569 568 542 q 460 596 511 596 q 310 503 363 596 q 258 292 258 411 q 289 163 258 213 q 382 114 319 114 q 469 139 429 114 q 535 219 508 164 l 654 176 q 543 35 617 86 q 372 -17 469 -17 m 493 822 q 445 843 464 822 q 426 893 426 864 q 456 960 426 932 q 522 989 485 989 q 572 969 553 989 q 590 919 590 949 q 561 851 590 879 q 493 822 532 822 z "},"Č":{"ha":851,"x_min":154,"x_max":932,"o":"m 488 -17 q 299 41 372 -17 q 190 191 225 99 q 154 389 154 283 q 212 679 154 542 q 376 902 269 817 q 635 988 483 988 q 828 928 758 988 q 922 800 897 868 l 799 742 q 730 823 772 792 q 625 854 688 854 q 447 783 519 854 q 337 608 374 713 q 300 400 300 503 q 346 208 300 297 q 497 119 392 119 q 625 156 574 119 q 710 243 676 193 l 832 188 q 690 39 775 94 q 488 -17 606 -17 m 706 1028 l 569 1028 l 419 1244 l 542 1244 l 656 1126 l 808 1244 l 932 1244 l 706 1028 z "},"č":{"ha":681,"x_min":118,"x_max":781,"o":"m 372 -17 q 185 67 253 -17 q 118 285 118 150 q 163 511 118 411 q 287 669 207 611 q 475 726 367 726 q 628 678 565 726 q 711 547 692 629 l 578 501 q 540 569 568 542 q 460 596 511 596 q 310 503 363 596 q 258 292 258 411 q 289 163 258 213 q 382 114 319 114 q 469 139 429 114 q 535 219 508 164 l 654 176 q 543 35 617 86 q 372 -17 469 -17 m 554 799 l 418 799 l 268 1015 l 390 1015 l 504 897 l 657 1015 l 781 1015 l 554 799 z "},"Ď":{"ha":918,"x_min":114,"x_max":933,"o":"m 285 972 l 558 972 q 774 911 692 972 q 895 753 857 850 q 933 547 933 656 q 906 361 933 457 q 819 183 879 265 q 658 51 758 101 q 413 0 558 0 l 114 0 l 285 972 m 422 132 q 633 197 554 132 q 748 357 713 261 q 783 543 783 453 q 728 750 783 661 q 549 839 672 839 l 403 839 l 278 132 l 422 132 m 650 1028 l 514 1028 l 364 1244 l 486 1244 l 600 1126 l 753 1244 l 876 1244 l 650 1028 z "},"ď":{"ha":1003,"x_min":118,"x_max":1124,"o":"m 349 -17 q 179 65 240 -17 q 118 283 118 147 q 222 608 118 489 q 474 726 326 726 q 573 703 536 726 q 628 657 610 681 l 681 951 l 828 1003 l 651 0 l 515 0 l 525 61 q 349 -17 460 -17 m 390 114 q 483 141 442 114 q 549 197 525 168 l 604 515 q 561 569 592 543 q 476 596 531 596 q 315 509 371 596 q 258 293 258 422 q 290 165 258 217 q 390 114 322 114 m 1124 989 l 1121 974 q 1058 796 1103 875 q 938 650 1014 717 l 901 682 q 953 811 926 722 q 996 989 981 900 l 1124 989 z "},"Đ":{"ha":921,"x_min":104,"x_max":936,"o":"m 117 0 l 192 419 l 104 419 l 128 550 l 214 550 l 288 972 l 561 972 q 774 913 692 972 q 897 756 857 853 q 936 547 936 660 q 910 365 936 460 q 824 187 883 269 q 664 52 764 104 q 415 0 564 0 l 117 0 m 281 132 l 425 132 q 638 197 558 132 q 751 358 717 263 q 786 543 786 453 q 730 751 786 663 q 551 839 674 839 l 406 839 l 354 550 l 553 550 l 529 419 l 332 419 l 281 132 z "},"đ":{"ha":753,"x_min":117,"x_max":888,"o":"m 782 757 l 649 0 l 513 0 l 524 56 q 349 -17 456 -17 q 179 60 242 -17 q 117 268 117 138 q 219 565 117 450 q 469 681 321 681 q 562 660 525 681 q 621 613 599 640 l 647 757 l 475 757 l 494 869 l 667 869 l 679 940 l 825 1003 l 801 869 l 888 869 l 868 757 l 782 757 m 389 114 q 547 197 483 114 l 596 469 q 551 524 583 497 q 465 550 519 550 q 311 475 367 550 q 256 286 256 400 q 290 165 256 217 q 389 114 324 114 z "},"Ē":{"ha":799,"x_min":114,"x_max":871,"o":"m 114 0 l 285 972 l 871 972 l 849 839 l 406 839 l 358 568 l 636 568 l 611 436 l 335 436 l 282 132 l 753 132 l 729 0 l 114 0 m 372 1057 l 392 1174 l 832 1174 l 813 1057 l 372 1057 z "},"ē":{"ha":719,"x_min":111,"x_max":743,"o":"m 383 -17 q 185 65 258 -17 q 111 283 111 147 q 157 503 111 403 q 287 665 203 604 q 485 726 371 726 q 670 658 603 726 q 738 453 738 589 q 730 372 738 410 q 711 300 722 335 l 253 300 q 253 292 253 296 q 253 283 253 288 q 293 153 253 200 q 400 107 333 107 q 483 124 440 107 q 563 172 525 142 l 629 78 q 520 8 581 33 q 383 -17 460 -17 m 272 419 l 600 419 q 603 447 603 433 q 603 471 604 460 q 559 574 599 546 q 471 603 519 603 q 340 550 389 603 q 272 419 290 497 m 283 828 l 303 944 l 743 944 l 724 828 l 283 828 z "},"Ĕ":{"ha":799,"x_min":114,"x_max":872,"o":"m 114 0 l 285 972 l 871 972 l 849 839 l 406 839 l 358 568 l 636 568 l 611 436 l 335 436 l 282 132 l 753 132 l 729 0 l 114 0 m 589 1028 q 426 1082 478 1028 q 375 1208 375 1136 q 379 1258 375 1233 l 490 1258 q 488 1246 489 1253 q 488 1233 488 1239 q 516 1163 488 1189 q 603 1136 544 1136 q 707 1171 664 1136 q 760 1258 750 1206 l 872 1258 q 785 1096 856 1164 q 589 1028 715 1028 z "},"ĕ":{"ha":719,"x_min":111,"x_max":783,"o":"m 383 -17 q 185 65 258 -17 q 111 283 111 147 q 157 503 111 403 q 287 665 203 604 q 485 726 371 726 q 670 658 603 726 q 738 453 738 589 q 730 372 738 410 q 711 300 722 335 l 253 300 q 253 292 253 296 q 253 283 253 288 q 293 153 253 200 q 400 107 333 107 q 483 124 440 107 q 563 172 525 142 l 629 78 q 520 8 581 33 q 383 -17 460 -17 m 272 419 l 600 419 q 603 447 603 433 q 603 471 604 460 q 559 574 599 546 q 471 603 519 603 q 340 550 389 603 q 272 419 290 497 m 500 799 q 338 853 389 799 q 286 979 286 907 q 290 1029 286 1004 l 401 1029 q 399 1017 400 1024 q 399 1004 399 1010 q 427 933 399 960 q 514 907 456 907 q 618 942 575 907 q 671 1029 661 976 l 783 1029 q 697 867 767 935 q 500 799 626 799 z "},"Ė":{"ha":799,"x_min":114,"x_max":871,"o":"m 114 0 l 285 972 l 871 972 l 849 839 l 406 839 l 358 568 l 636 568 l 611 436 l 335 436 l 282 132 l 753 132 l 729 0 l 114 0 m 593 1051 q 545 1072 564 1051 q 526 1122 526 1093 q 556 1190 526 1161 q 622 1218 585 1218 q 672 1198 653 1218 q 690 1149 690 1178 q 661 1080 690 1108 q 593 1051 632 1051 z "},"ė":{"ha":719,"x_min":111,"x_max":738,"o":"m 383 -17 q 185 65 258 -17 q 111 283 111 147 q 157 503 111 403 q 287 665 203 604 q 485 726 371 726 q 670 658 603 726 q 738 453 738 589 q 730 372 738 410 q 711 300 722 335 l 253 300 q 253 292 253 296 q 253 283 253 288 q 293 153 253 200 q 400 107 333 107 q 483 124 440 107 q 563 172 525 142 l 629 78 q 520 8 581 33 q 383 -17 460 -17 m 272 419 l 600 419 q 603 447 603 433 q 603 471 604 460 q 559 574 599 546 q 471 603 519 603 q 340 550 389 603 q 272 419 290 497 m 504 822 q 456 843 475 822 q 438 893 438 864 q 467 960 438 932 q 533 989 496 989 q 583 969 564 989 q 601 919 601 949 q 572 851 601 879 q 504 822 543 822 z "},"Ę":{"ha":799,"x_min":115,"x_max":871,"o":"m 483 -332 q 387 -301 424 -332 q 350 -214 350 -269 q 399 -89 350 -143 q 533 0 449 -35 l 115 0 l 286 972 l 871 972 l 847 836 l 400 836 l 353 569 l 636 569 l 611 435 l 329 435 l 276 135 l 753 135 l 729 0 l 689 0 q 535 -64 604 0 q 465 -192 465 -128 q 481 -233 465 -219 q 517 -246 496 -246 q 556 -237 539 -246 q 583 -217 572 -228 l 640 -267 q 578 -310 617 -289 q 483 -332 539 -332 z "},"ę":{"ha":719,"x_min":111,"x_max":738,"o":"m 338 -332 q 241 -301 278 -332 q 204 -214 204 -269 q 245 -102 204 -151 q 360 -17 286 -53 q 318 -11 332 -14 q 166 88 221 10 q 111 283 111 167 q 157 503 111 403 q 286 665 203 604 q 483 726 369 726 q 670 658 603 726 q 738 453 738 589 q 730 372 738 410 q 711 300 722 335 l 251 300 q 251 292 251 296 q 251 283 251 288 q 292 154 251 201 q 400 107 333 107 q 481 124 439 107 q 561 172 524 142 l 629 78 q 563 30 599 50 q 489 -8 526 10 q 372 -80 424 -42 q 319 -192 319 -118 q 335 -233 319 -219 q 369 -246 350 -246 q 410 -237 393 -246 q 439 -217 426 -228 l 494 -267 q 433 -310 471 -289 q 338 -332 394 -332 m 271 419 l 599 419 q 602 447 601 433 q 603 471 603 460 q 558 574 597 546 q 471 603 519 603 q 339 550 389 603 q 271 419 289 497 z "},"Ě":{"ha":799,"x_min":114,"x_max":881,"o":"m 114 0 l 285 972 l 871 972 l 849 839 l 406 839 l 358 568 l 636 568 l 611 436 l 335 436 l 282 132 l 753 132 l 729 0 l 114 0 m 654 1028 l 518 1028 l 368 1244 l 490 1244 l 604 1126 l 757 1244 l 881 1244 l 654 1028 z "},"ě":{"ha":719,"x_min":111,"x_max":792,"o":"m 383 -17 q 185 65 258 -17 q 111 283 111 147 q 157 503 111 403 q 287 665 203 604 q 485 726 371 726 q 670 658 603 726 q 738 453 738 589 q 730 372 738 410 q 711 300 722 335 l 253 300 q 253 292 253 296 q 253 283 253 288 q 293 153 253 200 q 400 107 333 107 q 483 124 440 107 q 563 172 525 142 l 629 78 q 520 8 581 33 q 383 -17 460 -17 m 272 419 l 600 419 q 603 447 603 433 q 603 471 604 460 q 559 574 599 546 q 471 603 519 603 q 340 550 389 603 q 272 419 290 497 m 565 799 l 429 799 l 279 1015 l 401 1015 l 515 897 l 668 1015 l 792 1015 l 565 799 z "},"Ĝ":{"ha":906,"x_min":154,"x_max":929,"o":"m 494 -17 q 299 41 374 -17 q 189 192 224 99 q 154 390 154 285 q 208 678 154 542 q 370 902 263 815 q 635 989 478 989 q 833 927 764 989 q 929 804 901 865 l 803 736 q 735 819 779 783 q 618 854 692 854 q 442 785 514 854 q 333 611 369 717 q 296 397 296 506 q 344 201 296 285 q 501 117 392 117 q 651 171 592 117 q 729 315 711 225 l 736 353 l 567 353 l 590 479 l 911 479 l 897 404 q 813 158 872 250 q 672 24 754 65 q 494 -17 589 -17 m 771 1028 l 658 1146 l 504 1028 l 382 1028 l 607 1244 l 744 1244 l 894 1028 l 771 1028 z "},"ĝ":{"ha":753,"x_min":118,"x_max":776,"o":"m 225 -174 q 435 -120 372 -165 q 511 -6 497 -75 l 522 60 q 453 6 496 28 q 349 -17 411 -17 q 180 65 242 -17 q 118 275 118 147 q 218 601 118 476 q 467 726 318 726 q 556 707 513 726 q 626 650 599 688 l 638 710 l 776 710 l 651 14 q 578 -166 631 -103 q 448 -255 526 -229 q 271 -287 369 -281 l 225 -174 m 390 114 q 481 140 440 114 q 547 201 522 165 l 603 513 q 556 569 590 543 q 469 596 522 596 q 312 505 367 596 q 257 292 257 414 q 292 164 257 214 q 390 114 326 114 m 624 799 l 511 917 l 357 799 l 235 799 l 460 1015 l 597 1015 l 747 799 l 624 799 z "},"Ğ":{"ha":906,"x_min":154,"x_max":929,"o":"m 494 -17 q 299 41 374 -17 q 189 192 224 99 q 154 390 154 285 q 208 678 154 542 q 370 902 263 815 q 635 989 478 989 q 833 927 764 989 q 929 804 901 865 l 803 736 q 735 819 779 783 q 618 854 692 854 q 442 785 514 854 q 333 611 369 717 q 296 397 296 506 q 344 201 296 285 q 501 117 392 117 q 651 171 592 117 q 729 315 711 225 l 736 353 l 567 353 l 590 479 l 911 479 l 897 404 q 813 158 872 250 q 672 24 754 65 q 494 -17 589 -17 m 639 1028 q 476 1082 528 1028 q 425 1208 425 1136 q 429 1258 425 1233 l 540 1258 q 538 1246 539 1253 q 538 1233 538 1239 q 566 1163 538 1189 q 653 1136 594 1136 q 757 1171 714 1136 q 810 1258 800 1206 l 922 1258 q 835 1096 906 1164 q 639 1028 765 1028 z "},"ğ":{"ha":753,"x_min":118,"x_max":776,"o":"m 225 -174 q 435 -120 372 -165 q 511 -6 497 -75 l 522 60 q 453 6 496 28 q 349 -17 411 -17 q 180 65 242 -17 q 118 275 118 147 q 218 601 118 476 q 467 726 318 726 q 556 707 513 726 q 626 650 599 688 l 638 710 l 776 710 l 651 14 q 578 -166 631 -103 q 448 -255 526 -229 q 271 -287 369 -281 l 225 -174 m 390 114 q 481 140 440 114 q 547 201 522 165 l 603 513 q 556 569 590 543 q 469 596 522 596 q 312 505 367 596 q 257 292 257 414 q 292 164 257 214 q 390 114 326 114 m 492 799 q 329 853 381 799 q 278 979 278 907 q 282 1029 278 1004 l 393 1029 q 391 1017 392 1024 q 390 1004 390 1010 q 419 933 390 960 q 506 907 447 907 q 610 942 567 907 q 663 1029 653 976 l 775 1029 q 688 867 758 935 q 492 799 618 799 z "},"Ġ":{"ha":906,"x_min":154,"x_max":929,"o":"m 494 -17 q 299 41 374 -17 q 189 192 224 99 q 154 390 154 285 q 208 678 154 542 q 370 902 263 815 q 635 989 478 989 q 833 927 764 989 q 929 804 901 865 l 803 736 q 735 819 779 783 q 618 854 692 854 q 442 785 514 854 q 333 611 369 717 q 296 397 296 506 q 344 201 296 285 q 501 117 392 117 q 651 171 592 117 q 729 315 711 225 l 736 353 l 567 353 l 590 479 l 911 479 l 897 404 q 813 158 872 250 q 672 24 754 65 q 494 -17 589 -17 m 643 1051 q 595 1072 614 1051 q 576 1122 576 1093 q 606 1190 576 1161 q 672 1218 635 1218 q 722 1198 703 1218 q 740 1149 740 1178 q 711 1080 740 1108 q 643 1051 682 1051 z "},"ġ":{"ha":753,"x_min":118,"x_max":776,"o":"m 225 -174 q 435 -120 372 -165 q 511 -6 497 -75 l 522 60 q 453 6 496 28 q 349 -17 411 -17 q 180 65 242 -17 q 118 275 118 147 q 218 601 118 476 q 467 726 318 726 q 556 707 513 726 q 626 650 599 688 l 638 710 l 776 710 l 651 14 q 578 -166 631 -103 q 448 -255 526 -229 q 271 -287 369 -281 l 225 -174 m 390 114 q 481 140 440 114 q 547 201 522 165 l 603 513 q 556 569 590 543 q 469 596 522 596 q 312 505 367 596 q 257 292 257 414 q 292 164 257 214 q 390 114 326 114 m 496 822 q 448 843 467 822 q 429 893 429 864 q 458 960 429 932 q 525 989 488 989 q 574 969 556 989 q 593 919 593 949 q 564 851 593 879 q 496 822 535 822 z "},"Ģ":{"ha":906,"x_min":154,"x_max":929,"o":"m 494 -17 q 299 41 374 -17 q 189 192 224 99 q 154 390 154 285 q 208 678 154 542 q 370 902 263 815 q 635 989 478 989 q 833 927 764 989 q 929 804 901 865 l 803 736 q 735 819 779 783 q 618 854 692 854 q 442 785 514 854 q 333 611 369 717 q 296 397 296 506 q 344 201 296 285 q 501 117 392 117 q 651 171 592 117 q 729 315 711 225 l 736 353 l 567 353 l 590 479 l 911 479 l 897 404 q 813 158 872 250 q 672 24 754 65 q 494 -17 589 -17 m 394 -365 l 357 -342 q 399 -301 375 -326 q 435 -239 422 -275 q 386 -217 404 -236 q 368 -167 368 -197 q 398 -94 368 -122 q 464 -65 428 -65 q 519 -87 496 -65 q 542 -149 542 -108 q 508 -261 542 -206 q 394 -365 474 -317 z "},"ģ":{"ha":753,"x_min":118,"x_max":776,"o":"m 225 -174 q 435 -120 372 -165 q 511 -6 497 -75 l 522 60 q 453 6 496 28 q 349 -17 411 -17 q 180 65 242 -17 q 118 275 118 147 q 218 601 118 476 q 467 726 318 726 q 556 707 513 726 q 626 650 599 688 l 638 710 l 776 710 l 651 14 q 578 -166 631 -103 q 448 -255 526 -229 q 271 -287 369 -281 l 225 -174 m 390 114 q 481 140 440 114 q 547 201 522 165 l 603 513 q 556 569 590 543 q 469 596 522 596 q 312 505 367 596 q 257 292 257 414 q 292 164 257 214 q 390 114 326 114 m 508 821 q 452 842 476 821 q 428 910 428 864 q 462 1017 428 963 q 574 1121 496 1072 l 613 1097 q 572 1056 594 1082 q 535 994 549 1029 q 583 973 565 993 q 601 922 601 953 q 573 849 601 876 q 508 821 544 821 z "},"Ĥ":{"ha":935,"x_min":114,"x_max":993,"o":"m 114 0 l 285 972 l 429 972 l 358 569 l 778 569 l 849 972 l 993 972 l 822 0 l 678 0 l 754 435 l 335 435 l 258 0 l 114 0 m 756 1021 l 643 1139 l 489 1021 l 367 1021 l 592 1238 l 729 1238 l 879 1021 l 756 1021 z "},"ĥ":{"ha":763,"x_min":106,"x_max":808,"o":"m 106 0 l 272 951 l 419 1003 l 354 633 q 436 701 389 675 q 539 726 483 726 q 692 669 642 726 q 743 511 743 611 q 740 458 743 488 q 731 399 736 428 l 660 0 l 524 0 l 597 413 q 602 446 600 428 q 604 479 604 464 q 574 569 604 540 q 494 597 544 597 q 385 558 436 597 q 317 422 335 519 l 243 0 l 106 0 m 685 1063 l 572 1181 l 418 1063 l 296 1063 l 521 1279 l 658 1279 l 808 1063 l 685 1063 z "},"Ħ":{"ha":936,"x_min":115,"x_max":1086,"o":"m 679 0 l 756 435 l 336 435 l 258 0 l 115 0 l 240 714 l 128 714 l 151 849 l 264 849 l 286 972 l 429 972 l 408 849 l 828 849 l 850 972 l 993 972 l 972 849 l 1086 849 l 1063 714 l 949 714 l 822 0 l 679 0 m 779 569 l 804 714 l 385 714 l 358 569 l 779 569 z "},"ħ":{"ha":757,"x_min":106,"x_max":735,"o":"m 524 0 l 589 368 q 596 435 596 410 q 566 524 596 496 q 486 553 536 553 q 376 513 426 553 q 310 378 326 474 l 243 0 l 106 0 l 239 757 l 158 757 l 178 869 l 258 869 l 272 951 l 419 1003 l 396 869 l 586 869 l 567 757 l 376 757 l 346 589 q 428 658 382 633 q 532 682 475 682 q 680 628 625 682 q 735 468 735 575 q 732 420 735 447 q 722 354 729 393 l 660 0 l 524 0 z "},"Ĩ":{"ha":372,"x_min":114,"x_max":644,"o":"m 114 0 l 285 972 l 429 972 l 258 0 l 114 0 m 476 1050 q 362 1083 406 1050 q 268 1117 318 1117 q 194 1056 208 1117 l 128 1056 q 182 1181 142 1133 q 297 1228 222 1228 q 411 1194 368 1228 q 504 1161 454 1161 q 579 1222 563 1161 l 644 1222 q 590 1097 631 1144 q 476 1050 550 1050 z "},"ĩ":{"ha":349,"x_min":75,"x_max":592,"o":"m 106 0 l 231 710 l 367 710 l 242 0 l 106 0 m 424 821 q 309 854 353 821 q 215 888 265 888 q 142 826 156 888 l 75 826 q 129 951 89 904 q 244 999 169 999 q 358 965 315 999 q 451 932 401 932 q 526 993 510 932 l 592 993 q 538 868 578 915 q 424 821 497 821 z "},"Ī":{"ha":372,"x_min":114,"x_max":611,"o":"m 114 0 l 285 972 l 429 972 l 258 0 l 114 0 m 151 1057 l 171 1174 l 611 1174 l 592 1057 l 151 1057 z "},"ī":{"ha":349,"x_min":99,"x_max":558,"o":"m 106 0 l 231 710 l 367 710 l 242 0 l 106 0 m 99 828 l 118 944 l 558 944 l 539 828 l 99 828 z "},"Ĭ":{"ha":372,"x_min":114,"x_max":651,"o":"m 114 0 l 285 972 l 429 972 l 258 0 l 114 0 m 368 1028 q 206 1082 257 1028 q 154 1208 154 1136 q 158 1258 154 1233 l 269 1258 q 267 1246 268 1253 q 267 1233 267 1239 q 295 1163 267 1189 q 382 1136 324 1136 q 486 1171 443 1136 q 539 1258 529 1206 l 651 1258 q 565 1096 635 1164 q 368 1028 494 1028 z "},"ĭ":{"ha":349,"x_min":101,"x_max":599,"o":"m 106 0 l 231 710 l 367 710 l 242 0 l 106 0 m 315 799 q 153 853 204 799 q 101 979 101 907 q 106 1029 101 1004 l 217 1029 q 215 1017 215 1024 q 214 1004 214 1010 q 242 933 214 960 q 329 907 271 907 q 433 942 390 907 q 486 1029 476 976 l 599 1029 q 512 867 582 935 q 315 799 442 799 z "},"Į":{"ha":372,"x_min":-69,"x_max":428,"o":"m 64 -332 q -33 -301 4 -332 q -69 -214 -69 -269 q -17 -85 -69 -139 q 115 0 35 -32 l 286 972 l 428 972 l 257 0 q 153 -40 201 -11 q 74 -109 104 -69 q 44 -190 44 -149 q 60 -233 44 -219 q 96 -246 76 -246 q 136 -237 119 -246 q 164 -217 153 -228 l 221 -267 q 158 -310 197 -289 q 64 -332 119 -332 z "},"į":{"ha":350,"x_min":-78,"x_max":418,"o":"m 56 -332 q -41 -301 -4 -332 q -78 -214 -78 -269 q -26 -85 -78 -139 q 107 0 25 -32 l 232 710 l 369 710 l 244 0 q 88 -85 139 -29 q 38 -190 38 -140 q 53 -233 38 -219 q 89 -246 68 -246 q 128 -237 111 -246 q 157 -217 146 -228 l 213 -267 q 150 -310 189 -289 q 56 -332 111 -332 m 321 825 q 272 845 290 825 q 253 896 253 865 q 282 964 253 935 q 347 993 311 993 q 398 973 378 993 q 418 922 418 953 q 388 853 418 882 q 321 825 358 825 z "},"İ":{"ha":372,"x_min":114,"x_max":469,"o":"m 114 0 l 285 972 l 429 972 l 258 0 l 114 0 m 372 1051 q 324 1072 343 1051 q 306 1122 306 1093 q 335 1190 306 1161 q 401 1218 364 1218 q 451 1198 432 1218 q 469 1149 469 1178 q 440 1080 469 1108 q 372 1051 411 1051 z "},"Ǐ":{"ha":372,"x_min":114,"x_max":660,"o":"m 114 0 l 285 972 l 429 972 l 258 0 l 114 0 m 433 1028 l 297 1028 l 147 1244 l 269 1244 l 383 1126 l 536 1244 l 660 1244 l 433 1028 z "},"ǐ":{"ha":349,"x_min":94,"x_max":607,"o":"m 106 0 l 231 710 l 367 710 l 242 0 l 106 0 m 381 799 l 244 799 l 94 1015 l 217 1015 l 331 897 l 483 1015 l 607 1015 l 381 799 z "},"Ĳ":{"ha":1083,"x_min":114,"x_max":1139,"o":"m 114 0 l 285 972 l 429 972 l 258 0 l 114 0 m 697 -17 q 519 36 590 -17 q 422 174 447 89 l 546 228 q 599 149 564 181 q 694 118 633 118 q 814 165 767 118 q 879 317 861 211 l 994 972 l 1139 972 l 1019 293 q 940 92 996 158 q 819 5 885 26 q 697 -17 753 -17 z "},"ĳ":{"ha":756,"x_min":106,"x_max":818,"o":"m 106 0 l 231 710 l 368 710 l 243 0 l 106 0 m 321 825 q 269 845 289 825 q 250 894 250 865 q 279 965 250 936 q 343 993 308 993 q 396 973 376 993 q 415 924 415 953 q 386 853 415 882 q 321 825 357 825 m 350 -304 l 304 -189 q 447 -140 404 -175 q 501 -35 490 -106 l 633 710 l 771 710 l 640 -31 q 591 -173 625 -118 q 498 -258 557 -228 q 350 -304 439 -289 m 722 825 q 672 845 690 825 q 653 894 653 865 q 682 965 653 936 q 746 993 711 993 q 799 973 779 993 q 818 924 818 953 q 788 853 818 882 q 722 825 758 825 z "},"ȷ":{"ha":354,"x_min":-97,"x_max":371,"o":"m -51 -299 l -97 -187 q 49 -138 7 -171 q 103 -44 92 -106 l 236 710 l 371 710 l 240 -35 q 139 -224 217 -167 q -51 -299 61 -281 z "},"Ĵ":{"ha":725,"x_min":64,"x_max":974,"o":"m 339 -17 q 160 36 232 -17 q 64 174 89 89 l 188 228 q 240 149 206 181 q 336 118 275 118 q 456 165 408 118 q 521 317 503 211 l 636 972 l 781 972 l 661 293 q 582 92 638 158 q 460 5 526 26 q 339 -17 394 -17 m 850 1028 l 738 1146 l 583 1028 l 461 1028 l 686 1244 l 824 1244 l 974 1028 l 850 1028 z "},"ĵ":{"ha":354,"x_min":-97,"x_max":575,"o":"m -51 -299 l -97 -187 q 49 -138 7 -171 q 103 -44 92 -106 l 236 710 l 371 710 l 240 -35 q 139 -224 217 -167 q -51 -299 61 -281 m 451 799 l 339 917 l 185 799 l 63 799 l 288 1015 l 425 1015 l 575 799 l 451 799 z "},"Ķ":{"ha":896,"x_min":114,"x_max":954,"o":"m 688 0 l 513 507 l 310 293 l 258 0 l 114 0 l 285 972 l 429 972 l 349 513 l 783 972 l 954 972 l 619 619 l 839 0 l 688 0 m 381 -365 l 343 -342 q 385 -301 361 -326 q 421 -239 408 -275 q 372 -217 390 -236 q 354 -167 354 -197 q 384 -94 354 -122 q 450 -65 414 -65 q 505 -87 482 -65 q 528 -149 528 -108 q 494 -261 528 -206 q 381 -365 460 -317 z "},"ķ":{"ha":714,"x_min":106,"x_max":749,"o":"m 515 501 l 679 0 l 531 0 l 406 404 l 296 304 l 243 0 l 106 0 l 272 951 l 419 1003 l 328 483 l 576 710 l 749 710 l 515 501 m 290 -365 l 253 -342 q 294 -301 271 -326 q 331 -239 318 -275 q 282 -217 300 -236 q 264 -167 264 -197 q 294 -94 264 -122 q 360 -65 324 -65 q 415 -87 392 -65 q 438 -149 438 -108 q 403 -261 438 -206 q 290 -365 369 -317 z "},"ĸ":{"ha":707,"x_min":107,"x_max":772,"o":"m 528 0 l 414 333 l 272 185 l 240 0 l 107 0 l 232 710 l 365 710 l 306 367 l 625 710 l 772 710 l 522 446 l 676 0 l 528 0 z "},"Ĺ":{"ha":738,"x_min":114,"x_max":735,"o":"m 114 0 l 285 972 l 429 972 l 282 135 l 735 135 l 711 0 l 114 0 m 418 1028 l 286 1028 l 514 1244 l 696 1244 l 418 1028 z "},"ĺ":{"ha":360,"x_min":108,"x_max":644,"o":"m 108 0 l 276 951 l 424 1003 l 246 0 l 108 0 m 367 1050 l 235 1050 l 463 1267 l 644 1267 l 367 1050 z "},"Ļ":{"ha":738,"x_min":114,"x_max":735,"o":"m 114 0 l 285 972 l 429 972 l 282 135 l 735 135 l 711 0 l 114 0 m 331 -365 l 293 -342 q 335 -301 311 -326 q 371 -239 358 -275 q 322 -217 340 -236 q 304 -167 304 -197 q 334 -94 304 -122 q 400 -65 364 -65 q 455 -87 432 -65 q 478 -149 478 -108 q 444 -261 478 -206 q 331 -365 410 -317 z "},"ļ":{"ha":360,"x_min":58,"x_max":424,"o":"m 108 0 l 276 951 l 424 1003 l 246 0 l 108 0 m 96 -365 l 58 -342 q 100 -301 76 -326 q 136 -239 124 -275 q 88 -217 106 -236 q 69 -167 69 -197 q 99 -94 69 -122 q 165 -65 129 -65 q 220 -87 197 -65 q 243 -149 243 -108 q 209 -261 243 -206 q 96 -365 175 -317 z "},"Ľ":{"ha":738,"x_min":114,"x_max":735,"o":"m 114 0 l 285 972 l 429 972 l 282 135 l 735 135 l 711 0 l 114 0 m 433 1028 l 297 1028 l 147 1244 l 269 1244 l 383 1126 l 536 1244 l 660 1244 l 433 1028 z "},"ľ":{"ha":590,"x_min":108,"x_max":711,"o":"m 108 0 l 276 951 l 424 1003 l 246 0 l 108 0 m 711 989 l 708 974 q 646 796 690 875 q 525 650 601 717 l 489 682 q 541 811 514 722 q 583 989 568 900 l 711 989 z "},"Ŀ":{"ha":738,"x_min":114,"x_max":735,"o":"m 114 0 l 285 972 l 429 972 l 282 135 l 735 135 l 711 0 l 114 0 m 372 1051 q 324 1072 343 1051 q 306 1122 306 1093 q 335 1190 306 1161 q 401 1218 364 1218 q 451 1198 432 1218 q 469 1149 469 1178 q 440 1080 469 1108 q 372 1051 411 1051 z "},"ŀ":{"ha":683,"x_min":108,"x_max":672,"o":"m 108 0 l 276 951 l 424 1003 l 246 0 l 108 0 m 575 353 q 527 374 546 353 q 508 424 508 394 q 538 491 508 463 q 604 519 567 519 q 653 499 635 519 q 672 450 672 479 q 643 381 672 410 q 575 353 614 353 z "},"Ń":{"ha":939,"x_min":114,"x_max":997,"o":"m 114 0 l 285 972 l 418 972 l 706 318 q 719 285 710 308 q 731 253 728 263 q 735 284 732 263 q 740 317 739 306 l 856 972 l 997 972 l 826 0 l 693 0 l 414 629 q 395 674 408 642 q 379 715 382 707 q 374 675 379 708 q 367 628 369 642 l 256 0 l 114 0 m 694 1021 l 563 1021 l 790 1238 l 972 1238 l 694 1021 z "},"ń":{"ha":761,"x_min":106,"x_max":854,"o":"m 106 0 l 231 710 l 368 710 l 356 635 q 437 701 389 676 q 538 726 485 726 q 691 665 639 726 q 743 501 743 604 q 740 451 743 478 q 732 399 738 425 l 661 0 l 524 0 l 596 410 q 601 443 599 425 q 603 476 603 461 q 493 597 603 597 q 383 551 435 597 q 317 419 331 506 l 243 0 l 106 0 m 576 799 l 444 799 l 672 1015 l 854 1015 l 576 799 z "},"Ņ":{"ha":939,"x_min":114,"x_max":997,"o":"m 114 0 l 285 972 l 418 972 l 706 318 q 719 285 710 308 q 731 253 728 263 q 735 284 732 263 q 740 317 739 306 l 856 972 l 997 972 l 826 0 l 693 0 l 414 629 q 395 674 408 642 q 379 715 382 707 q 374 675 379 708 q 367 628 369 642 l 256 0 l 114 0 m 392 -365 l 354 -342 q 396 -301 372 -326 q 432 -239 419 -275 q 383 -217 401 -236 q 365 -167 365 -197 q 395 -94 365 -122 q 461 -65 425 -65 q 516 -87 493 -65 q 539 -149 539 -108 q 505 -261 539 -206 q 392 -365 471 -317 z "},"ņ":{"ha":761,"x_min":106,"x_max":743,"o":"m 106 0 l 231 710 l 368 710 l 356 635 q 437 701 389 676 q 538 726 485 726 q 691 665 639 726 q 743 501 743 604 q 740 451 743 478 q 732 399 738 425 l 661 0 l 524 0 l 596 410 q 601 443 599 425 q 603 476 603 461 q 493 597 603 597 q 383 551 435 597 q 317 419 331 506 l 243 0 l 106 0 m 317 -324 l 279 -300 q 321 -259 297 -285 q 357 -197 344 -233 q 308 -175 326 -194 q 290 -125 290 -156 q 320 -52 290 -81 q 386 -24 350 -24 q 441 -45 418 -24 q 464 -107 464 -67 q 430 -219 464 -164 q 317 -324 396 -275 z "},"Ň":{"ha":939,"x_min":114,"x_max":997,"o":"m 114 0 l 285 972 l 418 972 l 706 318 q 719 285 710 308 q 731 253 728 263 q 735 284 732 263 q 740 317 739 306 l 856 972 l 997 972 l 826 0 l 693 0 l 414 629 q 395 674 408 642 q 379 715 382 707 q 374 675 379 708 q 367 628 369 642 l 256 0 l 114 0 m 710 1021 l 574 1021 l 424 1238 l 546 1238 l 660 1119 l 813 1238 l 936 1238 l 710 1021 z "},"ň":{"ha":761,"x_min":106,"x_max":818,"o":"m 106 0 l 231 710 l 368 710 l 356 635 q 437 701 389 676 q 538 726 485 726 q 691 665 639 726 q 743 501 743 604 q 740 451 743 478 q 732 399 738 425 l 661 0 l 524 0 l 596 410 q 601 443 599 425 q 603 476 603 461 q 493 597 603 597 q 383 551 435 597 q 317 419 331 506 l 243 0 l 106 0 m 592 799 l 456 799 l 306 1015 l 428 1015 l 542 897 l 694 1015 l 818 1015 l 592 799 z "},"ŉ":{"ha":1056,"x_min":175,"x_max":1038,"o":"m 400 0 l 525 710 l 663 710 l 650 635 q 731 701 683 676 q 832 726 779 726 q 985 665 933 726 q 1038 501 1038 604 q 1035 451 1038 478 q 1026 399 1032 425 l 956 0 l 818 0 l 890 410 q 895 443 893 425 q 897 476 897 461 q 788 597 897 597 q 677 551 729 597 q 611 419 625 506 l 538 0 l 400 0 m 218 611 l 175 643 q 230 700 196 660 q 278 788 264 740 q 207 869 207 799 q 242 956 207 922 q 322 989 276 989 q 383 964 357 989 q 408 890 408 939 q 351 731 408 806 q 218 611 294 656 z "},"Ŋ":{"ha":932,"x_min":114,"x_max":990,"o":"m 511 -339 l 463 -226 q 613 -176 571 -208 q 667 -81 656 -144 l 683 14 l 410 629 q 392 672 404 640 q 376 715 379 704 q 370 674 375 706 q 363 628 365 642 l 253 0 l 114 0 l 285 972 l 415 972 l 703 318 q 715 287 707 308 q 728 253 724 265 q 732 286 729 265 q 736 317 735 307 l 851 972 l 990 972 l 807 -65 q 772 -178 797 -129 q 706 -262 747 -228 q 609 -315 660 -299 q 511 -339 558 -332 z "},"ŋ":{"ha":761,"x_min":106,"x_max":743,"o":"m 318 -204 q 461 -156 419 -190 q 515 -51 503 -121 l 597 408 q 604 476 604 453 q 574 569 604 540 q 494 597 543 597 q 383 551 435 597 q 317 419 332 506 l 243 0 l 106 0 l 231 710 l 369 710 l 357 636 q 539 726 431 726 q 688 669 632 726 q 743 501 743 613 q 735 408 743 458 l 654 -47 q 604 -193 639 -137 q 511 -278 569 -249 q 364 -319 453 -307 l 318 -204 z "},"Ō":{"ha":957,"x_min":154,"x_max":974,"o":"m 501 117 q 683 186 608 117 q 794 363 757 256 q 832 585 832 469 q 785 769 832 683 q 625 854 738 854 q 443 783 517 854 q 333 605 369 713 q 296 390 296 497 q 343 201 296 286 q 501 117 390 117 m 501 -17 q 299 42 375 -17 q 189 193 224 100 q 154 390 154 286 q 208 674 154 536 q 367 900 261 811 q 632 989 474 989 q 828 930 753 989 q 938 778 903 871 q 974 585 974 686 q 919 299 974 436 q 760 72 865 161 q 501 -17 656 -17 m 422 1057 l 442 1174 l 882 1174 l 863 1057 l 422 1057 z "},"ō":{"ha":739,"x_min":117,"x_max":746,"o":"m 383 -17 q 181 68 246 -17 q 117 283 117 153 q 160 499 117 397 q 285 663 203 600 q 485 726 368 726 q 681 639 617 726 q 746 431 746 551 q 703 212 746 314 q 578 47 660 110 q 383 -17 497 -17 m 390 114 q 508 158 460 114 q 583 272 557 203 q 608 415 608 340 q 576 543 608 490 q 471 596 544 596 q 354 551 403 596 q 280 438 306 507 q 254 296 254 369 q 287 165 254 217 q 390 114 319 114 m 285 828 l 304 944 l 744 944 l 725 828 l 285 828 z "},"Ŏ":{"ha":957,"x_min":154,"x_max":974,"o":"m 501 117 q 683 186 608 117 q 794 363 757 256 q 832 585 832 469 q 785 769 832 683 q 625 854 738 854 q 443 783 517 854 q 333 605 369 713 q 296 390 296 497 q 343 201 296 286 q 501 117 390 117 m 501 -17 q 299 42 375 -17 q 189 193 224 100 q 154 390 154 286 q 208 674 154 536 q 367 900 261 811 q 632 989 474 989 q 828 930 753 989 q 938 778 903 871 q 974 585 974 686 q 919 299 974 436 q 760 72 865 161 q 501 -17 656 -17 m 639 1028 q 476 1082 528 1028 q 425 1208 425 1136 q 429 1258 425 1233 l 540 1258 q 538 1246 539 1253 q 538 1233 538 1239 q 566 1163 538 1189 q 653 1136 594 1136 q 757 1171 714 1136 q 810 1258 800 1206 l 922 1258 q 835 1096 906 1164 q 639 1028 765 1028 z "},"ŏ":{"ha":739,"x_min":117,"x_max":785,"o":"m 383 -17 q 181 68 246 -17 q 117 283 117 153 q 160 499 117 397 q 285 663 203 600 q 485 726 368 726 q 681 639 617 726 q 746 431 746 551 q 703 212 746 314 q 578 47 660 110 q 383 -17 497 -17 m 390 114 q 508 158 460 114 q 583 272 557 203 q 608 415 608 340 q 576 543 608 490 q 471 596 544 596 q 354 551 403 596 q 280 438 306 507 q 254 296 254 369 q 287 165 254 217 q 390 114 319 114 m 501 799 q 339 853 390 799 q 288 979 288 907 q 292 1029 288 1004 l 403 1029 q 401 1017 401 1024 q 400 1004 400 1010 q 428 933 400 960 q 515 907 457 907 q 619 942 576 907 q 672 1029 663 976 l 785 1029 q 698 867 768 935 q 501 799 628 799 z "},"Ő":{"ha":957,"x_min":154,"x_max":1117,"o":"m 501 117 q 683 186 608 117 q 794 363 757 256 q 832 585 832 469 q 785 769 832 683 q 625 854 738 854 q 443 783 517 854 q 333 605 369 713 q 296 390 296 497 q 343 201 296 286 q 501 117 390 117 m 501 -17 q 299 42 375 -17 q 189 193 224 100 q 154 390 154 286 q 208 674 154 536 q 367 900 261 811 q 632 989 474 989 q 828 930 753 989 q 938 778 903 871 q 974 585 974 686 q 919 299 974 436 q 760 72 865 161 q 501 -17 656 -17 m 432 1028 l 658 1244 l 839 1244 l 564 1028 l 432 1028 m 711 1028 l 938 1244 l 1117 1244 l 842 1028 l 711 1028 z "},"ő":{"ha":739,"x_min":117,"x_max":979,"o":"m 383 -17 q 181 68 246 -17 q 117 283 117 153 q 160 499 117 397 q 285 663 203 600 q 485 726 368 726 q 681 639 617 726 q 746 431 746 551 q 703 212 746 314 q 578 47 660 110 q 383 -17 497 -17 m 390 114 q 508 158 460 114 q 583 272 557 203 q 608 415 608 340 q 576 543 608 490 q 471 596 544 596 q 354 551 403 596 q 280 438 306 507 q 254 296 254 369 q 287 165 254 217 q 390 114 319 114 m 294 799 l 521 1015 l 701 1015 l 426 799 l 294 799 m 574 799 l 800 1015 l 979 1015 l 704 799 l 574 799 z "},"Ǒ":{"ha":957,"x_min":154,"x_max":974,"o":"m 501 117 q 683 186 608 117 q 794 363 757 256 q 832 585 832 469 q 785 769 832 683 q 625 854 738 854 q 443 783 517 854 q 333 605 369 713 q 296 390 296 497 q 343 201 296 286 q 501 117 390 117 m 501 -17 q 299 42 375 -17 q 189 193 224 100 q 154 390 154 286 q 208 674 154 536 q 367 900 261 811 q 632 989 474 989 q 828 930 753 989 q 938 778 903 871 q 974 585 974 686 q 919 299 974 436 q 760 72 865 161 q 501 -17 656 -17 m 704 1028 l 568 1028 l 418 1244 l 540 1244 l 654 1126 l 807 1244 l 931 1244 l 704 1028 z "},"ǒ":{"ha":739,"x_min":117,"x_max":793,"o":"m 383 -17 q 181 68 246 -17 q 117 283 117 153 q 160 499 117 397 q 285 663 203 600 q 485 726 368 726 q 681 639 617 726 q 746 431 746 551 q 703 212 746 314 q 578 47 660 110 q 383 -17 497 -17 m 390 114 q 508 158 460 114 q 583 272 557 203 q 608 415 608 340 q 576 543 608 490 q 471 596 544 596 q 354 551 403 596 q 280 438 306 507 q 254 296 254 369 q 287 165 254 217 q 390 114 319 114 m 567 799 l 431 799 l 281 1015 l 403 1015 l 517 897 l 669 1015 l 793 1015 l 567 799 z "},"Ǿ":{"ha":957,"x_min":82,"x_max":1047,"o":"m 82 -17 l 208 138 q 167 257 181 189 q 154 389 154 325 q 207 672 154 533 q 366 899 260 810 q 636 989 472 989 q 757 969 704 989 q 847 917 810 950 l 907 989 l 1047 989 l 918 832 q 960 714 946 782 q 974 585 974 646 q 920 299 974 438 q 761 72 867 161 q 496 -17 656 -17 q 372 2 426 -17 q 278 53 317 21 l 221 -17 l 82 -17 m 503 117 q 685 186 611 117 q 795 362 758 256 q 832 581 832 468 q 827 644 832 610 q 814 706 822 679 l 369 165 q 503 117 421 117 m 313 264 l 756 806 q 622 854 704 854 q 441 783 514 854 q 332 606 368 713 q 296 392 296 499 q 299 326 296 363 q 313 264 303 290 m 717 1064 l 585 1064 l 813 1281 l 994 1281 l 717 1064 z "},"ǿ":{"ha":740,"x_min":63,"x_max":844,"o":"m 63 -17 l 160 99 q 117 283 117 172 q 160 499 117 397 q 285 663 203 600 q 485 726 368 726 q 570 713 532 726 q 638 678 608 700 l 678 726 l 800 726 l 701 607 q 746 431 746 531 q 703 212 746 314 q 578 47 660 110 q 383 -17 497 -17 q 224 29 288 -17 l 185 -17 l 63 -17 m 390 114 q 508 158 460 114 q 583 272 557 203 q 608 415 608 340 q 599 482 608 453 l 315 140 q 348 121 329 128 q 390 114 367 114 m 263 225 l 549 568 q 471 596 517 596 q 354 551 403 596 q 280 438 306 507 q 254 296 254 369 q 256 260 254 278 q 263 225 258 242 m 567 800 l 435 800 l 663 1017 l 844 1017 l 567 800 z "},"Ŕ":{"ha":888,"x_min":114,"x_max":932,"o":"m 932 706 q 907 583 932 644 q 826 473 882 521 q 675 408 769 425 l 800 0 l 649 0 l 526 400 l 328 400 l 258 0 l 114 0 l 285 972 l 651 972 q 872 886 811 972 q 932 706 932 800 m 596 532 q 750 589 711 532 q 789 701 789 646 q 757 796 789 753 q 640 839 725 839 l 406 839 l 351 532 l 596 532 m 642 1028 l 510 1028 l 738 1244 l 919 1244 l 642 1028 z "},"ŕ":{"ha":538,"x_min":103,"x_max":771,"o":"m 103 0 l 228 710 l 365 710 l 350 626 q 431 701 385 675 q 525 726 478 726 q 583 715 556 726 q 628 685 610 703 l 586 554 q 545 579 569 568 q 489 590 521 590 q 388 550 444 590 q 311 399 331 510 l 240 0 l 103 0 m 493 799 l 361 799 l 589 1015 l 771 1015 l 493 799 z "},"Ŗ":{"ha":888,"x_min":114,"x_max":932,"o":"m 932 706 q 907 583 932 644 q 826 473 882 521 q 675 408 769 425 l 800 0 l 649 0 l 526 400 l 328 400 l 258 0 l 114 0 l 285 972 l 651 972 q 872 886 811 972 q 932 706 932 800 m 596 532 q 750 589 711 532 q 789 701 789 646 q 757 796 789 753 q 640 839 725 839 l 406 839 l 351 532 l 596 532 m 367 -365 l 329 -342 q 371 -301 347 -326 q 407 -239 394 -275 q 358 -217 376 -236 q 340 -167 340 -197 q 370 -94 340 -122 q 436 -65 400 -65 q 491 -87 468 -65 q 514 -149 514 -108 q 480 -261 514 -206 q 367 -365 446 -317 z "},"ŗ":{"ha":538,"x_min":53,"x_max":628,"o":"m 103 0 l 228 710 l 365 710 l 350 626 q 431 701 385 675 q 525 726 478 726 q 583 715 556 726 q 628 685 610 703 l 586 554 q 545 579 569 568 q 489 590 521 590 q 388 550 444 590 q 311 399 331 510 l 240 0 l 103 0 m 90 -365 l 53 -342 q 94 -301 71 -326 q 131 -239 118 -275 q 82 -217 100 -236 q 64 -167 64 -197 q 94 -94 64 -122 q 160 -65 124 -65 q 215 -87 192 -65 q 238 -149 238 -108 q 203 -261 238 -206 q 90 -365 169 -317 z "},"Ř":{"ha":888,"x_min":114,"x_max":932,"o":"m 932 706 q 907 583 932 644 q 826 473 882 521 q 675 408 769 425 l 800 0 l 649 0 l 526 400 l 328 400 l 258 0 l 114 0 l 285 972 l 651 972 q 872 886 811 972 q 932 706 932 800 m 596 532 q 750 589 711 532 q 789 701 789 646 q 757 796 789 753 q 640 839 725 839 l 406 839 l 351 532 l 596 532 m 657 1028 l 521 1028 l 371 1244 l 493 1244 l 607 1126 l 760 1244 l 883 1244 l 657 1028 z "},"ř":{"ha":538,"x_min":103,"x_max":735,"o":"m 103 0 l 228 710 l 365 710 l 350 626 q 431 701 385 675 q 525 726 478 726 q 583 715 556 726 q 628 685 610 703 l 586 554 q 545 579 569 568 q 489 590 521 590 q 388 550 444 590 q 311 399 331 510 l 240 0 l 103 0 m 508 799 l 372 799 l 222 1015 l 344 1015 l 458 897 l 611 1015 l 735 1015 l 508 799 z "},"Ś":{"ha":799,"x_min":111,"x_max":874,"o":"m 685 756 q 632 828 669 797 q 528 858 594 858 q 407 822 450 858 q 364 731 364 785 q 405 648 364 679 q 506 591 446 617 q 628 531 567 565 q 730 440 689 497 q 771 289 771 383 q 672 64 771 144 q 417 -17 572 -17 q 216 50 293 -17 q 111 215 139 117 l 243 264 q 313 156 267 194 q 435 117 358 117 q 571 158 519 117 q 622 276 622 200 q 581 374 622 338 q 481 438 540 411 q 361 498 421 465 q 260 583 301 531 q 219 722 219 635 q 305 913 219 836 q 538 989 390 989 q 728 930 661 989 q 813 801 794 871 l 685 756 m 596 1028 l 464 1028 l 692 1244 l 874 1244 l 596 1028 z "},"ś":{"ha":632,"x_min":83,"x_max":763,"o":"m 332 -17 q 181 19 247 -17 q 83 110 115 54 l 185 189 q 246 131 206 158 q 343 103 286 103 q 431 126 393 103 q 469 194 469 149 q 423 267 469 240 q 315 322 376 294 q 208 394 254 350 q 161 515 161 438 q 235 670 161 614 q 419 726 308 726 q 563 693 503 726 q 651 615 622 660 l 550 539 q 497 585 531 563 q 408 608 464 608 q 327 585 360 608 q 294 524 294 563 q 342 458 294 483 q 451 406 389 433 q 560 331 513 378 q 607 203 607 285 q 533 42 607 101 q 332 -17 458 -17 m 485 799 l 353 799 l 581 1015 l 763 1015 l 485 799 z "},"Ŝ":{"ha":799,"x_min":111,"x_max":813,"o":"m 685 756 q 632 828 669 797 q 528 858 594 858 q 407 822 450 858 q 364 731 364 785 q 405 648 364 679 q 506 591 446 617 q 628 531 567 565 q 730 440 689 497 q 771 289 771 383 q 672 64 771 144 q 417 -17 572 -17 q 216 50 293 -17 q 111 215 139 117 l 243 264 q 313 156 267 194 q 435 117 358 117 q 571 158 519 117 q 622 276 622 200 q 581 374 622 338 q 481 438 540 411 q 361 498 421 465 q 260 583 301 531 q 219 722 219 635 q 305 913 219 836 q 538 989 390 989 q 728 930 661 989 q 813 801 794 871 l 685 756 m 678 1028 l 565 1146 l 411 1028 l 289 1028 l 514 1244 l 651 1244 l 801 1028 l 678 1028 z "},"ŝ":{"ha":632,"x_min":83,"x_max":690,"o":"m 332 -17 q 181 19 247 -17 q 83 110 115 54 l 185 189 q 246 131 206 158 q 343 103 286 103 q 431 126 393 103 q 469 194 469 149 q 423 267 469 240 q 315 322 376 294 q 208 394 254 350 q 161 515 161 438 q 235 670 161 614 q 419 726 308 726 q 563 693 503 726 q 651 615 622 660 l 550 539 q 497 585 531 563 q 408 608 464 608 q 327 585 360 608 q 294 524 294 563 q 342 458 294 483 q 451 406 389 433 q 560 331 513 378 q 607 203 607 285 q 533 42 607 101 q 332 -17 458 -17 m 567 799 l 454 917 l 300 799 l 178 799 l 403 1015 l 540 1015 l 690 799 l 567 799 z "},"Ş":{"ha":799,"x_min":111,"x_max":813,"o":"m 342 -332 q 262 -315 292 -332 q 217 -275 232 -297 l 292 -226 q 309 -243 297 -236 q 342 -250 321 -250 q 397 -231 374 -250 q 419 -182 419 -212 q 356 -128 419 -128 q 300 -140 322 -128 l 279 -107 l 368 -14 q 200 63 265 0 q 111 215 135 126 l 243 264 q 313 156 267 194 q 435 117 358 117 q 571 158 519 117 q 622 276 622 200 q 581 374 622 338 q 481 438 540 411 q 361 498 421 465 q 260 583 301 531 q 219 722 219 635 q 305 913 219 836 q 538 989 390 989 q 728 930 661 989 q 813 801 794 871 l 685 756 q 632 828 669 797 q 528 858 594 858 q 407 822 450 858 q 364 731 364 785 q 405 648 364 679 q 506 591 446 617 q 628 531 567 565 q 730 440 689 497 q 771 289 771 383 q 680 71 771 151 q 446 -17 589 -10 l 404 -71 q 501 -101 472 -71 q 531 -172 531 -132 q 478 -287 531 -243 q 342 -332 426 -332 z "},"ş":{"ha":632,"x_min":83,"x_max":651,"o":"m 240 -332 q 160 -315 190 -332 q 115 -275 131 -297 l 189 -226 q 207 -243 194 -236 q 240 -250 219 -250 q 294 -231 272 -250 q 317 -182 317 -212 q 253 -128 317 -128 q 199 -140 219 -128 l 176 -107 l 269 -11 q 158 33 206 0 q 83 110 110 65 l 185 189 q 246 131 206 158 q 343 103 286 103 q 431 126 393 103 q 469 194 469 149 q 423 267 469 240 q 315 322 376 294 q 208 394 254 350 q 161 515 161 438 q 235 670 161 614 q 419 726 308 726 q 563 693 503 726 q 651 615 622 660 l 550 539 q 497 585 531 563 q 408 608 464 608 q 327 585 360 608 q 294 524 294 563 q 342 458 294 483 q 451 405 389 432 q 560 331 513 378 q 607 203 607 285 q 535 46 607 106 q 343 -17 464 -14 l 301 -71 q 399 -101 369 -71 q 429 -172 429 -132 q 377 -287 429 -243 q 240 -332 325 -332 z "},"ș":{"ha":632,"x_min":83,"x_max":651,"o":"m 332 -17 q 181 19 247 -17 q 83 110 115 54 l 185 189 q 246 131 206 158 q 343 103 286 103 q 431 126 393 103 q 469 194 469 149 q 423 267 469 240 q 315 322 376 294 q 208 394 254 350 q 161 515 161 438 q 235 670 161 614 q 419 726 308 726 q 563 693 503 726 q 651 615 622 660 l 550 539 q 497 585 531 563 q 408 608 464 608 q 327 585 360 608 q 294 524 294 563 q 342 458 294 483 q 451 406 389 433 q 560 331 513 378 q 607 203 607 285 q 533 42 607 101 q 332 -17 458 -17 m 260 -365 l 222 -342 q 264 -301 240 -326 q 300 -239 288 -275 q 251 -217 269 -236 q 233 -167 233 -197 q 263 -94 233 -122 q 329 -65 293 -65 q 384 -87 361 -65 q 407 -149 407 -108 q 373 -261 407 -206 q 260 -365 339 -317 z "},"Ș":{"ha":799,"x_min":111,"x_max":813,"o":"m 685 756 q 632 828 669 797 q 528 858 594 858 q 407 822 450 858 q 364 731 364 785 q 405 648 364 679 q 506 591 446 617 q 628 531 567 565 q 730 440 689 497 q 771 289 771 383 q 672 64 771 144 q 417 -17 572 -17 q 216 50 293 -17 q 111 215 139 117 l 243 264 q 313 156 267 194 q 435 117 358 117 q 571 158 519 117 q 622 276 622 200 q 581 374 622 338 q 481 438 540 411 q 361 498 421 465 q 260 583 301 531 q 219 722 219 635 q 305 913 219 836 q 538 989 390 989 q 728 930 661 989 q 813 801 794 871 l 685 756 m 342 -365 l 304 -342 q 346 -301 322 -326 q 382 -239 369 -275 q 333 -217 351 -236 q 315 -167 315 -197 q 345 -94 315 -122 q 411 -65 375 -65 q 466 -87 443 -65 q 489 -149 489 -108 q 455 -261 489 -206 q 342 -365 421 -317 z "},"Ţ":{"ha":781,"x_min":189,"x_max":892,"o":"m 314 -332 q 233 -315 263 -332 q 189 -275 204 -297 l 263 -226 q 281 -243 269 -236 q 314 -250 292 -250 q 368 -231 346 -250 q 390 -182 390 -212 q 326 -128 390 -128 q 272 -140 294 -128 l 250 -107 l 353 0 l 318 0 l 467 838 l 208 838 l 231 972 l 892 972 l 869 838 l 611 838 l 463 0 l 429 0 l 375 -71 q 474 -101 444 -71 q 503 -172 503 -132 q 451 -287 503 -243 q 314 -332 399 -332 z "},"ţ":{"ha":501,"x_min":89,"x_max":564,"o":"m 214 -332 q 133 -315 163 -332 q 89 -275 103 -297 l 163 -226 q 181 -243 169 -236 q 213 -250 192 -250 q 268 -231 246 -250 q 290 -182 290 -212 q 226 -128 290 -128 q 172 -140 193 -128 l 150 -107 l 246 -8 q 185 39 204 6 q 167 117 167 72 q 169 151 167 133 q 175 190 171 169 l 244 586 l 131 586 l 153 710 l 265 710 l 308 951 l 454 1003 l 403 710 l 564 710 l 543 586 l 382 586 l 315 211 q 310 180 313 194 q 308 157 308 165 q 323 119 308 131 q 363 107 338 107 q 418 116 393 107 q 469 139 443 125 l 438 13 q 381 -8 411 -1 q 317 -17 351 -14 l 275 -71 q 373 -101 344 -71 q 401 -172 401 -132 q 349 -287 401 -243 q 214 -332 297 -332 z "},"Ț":{"ha":781,"x_min":208,"x_max":892,"o":"m 611 838 l 463 0 l 318 0 l 467 838 l 208 838 l 231 972 l 892 972 l 869 838 l 611 838 m 308 -365 l 271 -342 q 313 -301 289 -326 q 349 -239 336 -275 q 300 -217 318 -236 q 282 -167 282 -197 q 312 -94 282 -122 q 378 -65 342 -65 q 433 -87 410 -65 q 456 -149 456 -108 q 422 -261 456 -206 q 308 -365 388 -317 z "},"ț":{"ha":501,"x_min":131,"x_max":564,"o":"m 299 -17 q 201 20 235 -17 q 167 114 167 57 q 169 149 167 128 q 175 190 171 169 l 244 586 l 131 586 l 153 710 l 265 710 l 308 951 l 454 1003 l 403 710 l 564 710 l 543 586 l 382 586 l 315 211 q 310 180 313 193 q 308 157 308 167 q 363 107 308 107 q 418 116 393 107 q 469 139 443 125 l 438 13 q 372 -10 407 -3 q 299 -17 338 -17 m 224 -365 l 186 -342 q 228 -301 204 -326 q 264 -239 251 -275 q 215 -217 233 -236 q 197 -167 197 -197 q 227 -94 197 -122 q 293 -65 257 -65 q 348 -87 325 -65 q 371 -149 371 -108 q 337 -261 371 -206 q 224 -365 303 -317 z "},"Ť":{"ha":781,"x_min":208,"x_max":892,"o":"m 611 838 l 463 0 l 318 0 l 467 838 l 208 838 l 231 972 l 892 972 l 869 838 l 611 838 m 635 1021 l 499 1021 l 349 1238 l 471 1238 l 585 1119 l 738 1238 l 861 1238 l 635 1021 z "},"ť":{"ha":529,"x_min":131,"x_max":735,"o":"m 299 -17 q 201 20 235 -17 q 167 114 167 57 q 169 149 167 128 q 175 190 171 169 l 244 586 l 131 586 l 153 710 l 265 710 l 308 951 l 454 1003 l 403 710 l 564 710 l 543 586 l 382 586 l 315 211 q 310 180 313 193 q 308 157 308 167 q 363 107 308 107 q 418 116 393 107 q 469 139 443 125 l 438 13 q 372 -10 407 -3 q 299 -17 338 -17 m 735 1167 l 732 1151 q 669 974 714 1053 q 549 828 625 894 l 513 860 q 565 989 538 900 q 607 1167 592 1078 l 735 1167 z "},"Ŧ":{"ha":781,"x_min":208,"x_max":892,"o":"m 318 0 l 385 375 l 222 375 l 246 508 l 408 508 l 467 838 l 208 838 l 231 972 l 892 972 l 869 838 l 611 838 l 553 508 l 714 508 l 690 375 l 529 375 l 463 0 l 318 0 z "},"ŧ":{"ha":529,"x_min":107,"x_max":588,"o":"m 322 -17 q 224 20 258 -17 q 190 114 190 57 q 199 190 190 149 l 218 300 l 107 300 l 128 424 l 239 424 l 268 586 l 154 586 l 176 710 l 289 710 l 332 951 l 478 1003 l 426 710 l 588 710 l 567 586 l 406 586 l 376 424 l 538 424 l 515 300 l 354 300 l 339 211 q 334 180 336 193 q 332 157 332 167 q 386 107 332 107 q 442 116 417 107 q 493 139 467 125 l 461 13 q 396 -10 431 -3 q 322 -17 361 -17 z "},"Ũ":{"ha":922,"x_min":168,"x_max":986,"o":"m 479 -17 q 258 54 347 -17 q 168 278 168 125 q 170 331 168 301 q 181 404 172 360 l 281 972 l 424 972 l 321 383 q 311 289 311 325 q 365 153 311 189 q 488 118 418 118 q 642 169 574 118 q 738 367 711 219 l 844 972 l 986 972 l 879 358 q 799 133 854 215 q 663 17 744 51 q 479 -17 582 -17 m 739 1043 q 624 1076 668 1043 q 531 1110 581 1110 q 457 1049 471 1110 l 390 1049 q 444 1174 404 1126 q 560 1221 485 1221 q 674 1188 631 1221 q 767 1154 717 1154 q 842 1215 825 1154 l 907 1215 q 853 1090 893 1138 q 739 1043 813 1043 z "},"ũ":{"ha":761,"x_min":138,"x_max":785,"o":"m 521 0 l 533 67 q 449 4 497 25 q 339 -17 400 -17 q 195 38 253 -17 q 138 203 138 92 q 140 244 138 222 q 146 289 143 265 l 219 710 l 358 710 l 285 297 q 279 259 281 275 q 278 232 278 243 q 308 142 278 171 q 388 114 339 114 q 502 151 450 114 q 571 282 554 188 l 646 710 l 783 710 l 658 0 l 521 0 m 617 821 q 502 854 546 821 q 408 888 458 888 q 335 826 349 888 l 268 826 q 322 951 282 904 q 438 999 363 999 q 551 965 508 999 q 644 932 594 932 q 719 993 703 932 l 785 993 q 731 868 771 915 q 617 821 690 821 z "},"Ū":{"ha":922,"x_min":168,"x_max":986,"o":"m 479 -17 q 258 54 347 -17 q 168 278 168 125 q 170 331 168 301 q 181 404 172 360 l 281 972 l 424 972 l 321 383 q 311 289 311 325 q 365 153 311 189 q 488 118 418 118 q 642 169 574 118 q 738 367 711 219 l 844 972 l 986 972 l 879 358 q 799 133 854 215 q 663 17 744 51 q 479 -17 582 -17 m 414 1050 l 433 1167 l 874 1167 l 854 1050 l 414 1050 z "},"ū":{"ha":761,"x_min":138,"x_max":783,"o":"m 521 0 l 533 67 q 449 4 497 25 q 339 -17 400 -17 q 195 38 253 -17 q 138 203 138 92 q 140 244 138 222 q 146 289 143 265 l 219 710 l 358 710 l 285 297 q 279 259 281 275 q 278 232 278 243 q 308 142 278 171 q 388 114 339 114 q 502 151 450 114 q 571 282 554 188 l 646 710 l 783 710 l 658 0 l 521 0 m 292 828 l 311 944 l 751 944 l 732 828 l 292 828 z "},"Ŭ":{"ha":922,"x_min":168,"x_max":986,"o":"m 479 -17 q 258 54 347 -17 q 168 278 168 125 q 170 331 168 301 q 181 404 172 360 l 281 972 l 424 972 l 321 383 q 311 289 311 325 q 365 153 311 189 q 488 118 418 118 q 642 169 574 118 q 738 367 711 219 l 844 972 l 986 972 l 879 358 q 799 133 854 215 q 663 17 744 51 q 479 -17 582 -17 m 631 1021 q 468 1075 519 1021 q 417 1201 417 1129 q 421 1251 417 1226 l 532 1251 q 530 1239 531 1246 q 529 1226 529 1232 q 558 1156 529 1182 q 644 1129 586 1129 q 749 1164 706 1129 q 801 1251 792 1199 l 914 1251 q 827 1089 897 1157 q 631 1021 757 1021 z "},"ŭ":{"ha":761,"x_min":138,"x_max":792,"o":"m 521 0 l 533 67 q 449 4 497 25 q 339 -17 400 -17 q 195 38 253 -17 q 138 203 138 92 q 140 244 138 222 q 146 289 143 265 l 219 710 l 358 710 l 285 297 q 279 259 281 275 q 278 232 278 243 q 308 142 278 171 q 388 114 339 114 q 502 151 450 114 q 571 282 554 188 l 646 710 l 783 710 l 658 0 l 521 0 m 508 799 q 346 853 397 799 q 294 979 294 907 q 299 1029 294 1004 l 410 1029 q 408 1017 408 1024 q 407 1004 407 1010 q 435 933 407 960 q 522 907 464 907 q 626 942 583 907 q 679 1029 669 976 l 792 1029 q 705 867 775 935 q 508 799 635 799 z "},"Ů":{"ha":922,"x_min":168,"x_max":986,"o":"m 479 -17 q 258 54 347 -17 q 168 278 168 125 q 170 331 168 301 q 181 404 172 360 l 281 972 l 424 972 l 321 383 q 311 289 311 325 q 365 153 311 189 q 488 118 418 118 q 642 169 574 118 q 738 367 711 219 l 844 972 l 986 972 l 879 358 q 799 133 854 215 q 663 17 744 51 q 479 -17 582 -17 m 631 1008 q 533 1051 571 1008 q 494 1151 494 1093 q 555 1288 494 1232 q 690 1343 615 1343 q 787 1302 749 1343 q 825 1203 825 1261 q 764 1066 825 1124 q 631 1008 703 1008 m 647 1107 q 701 1131 678 1107 q 725 1190 725 1154 q 672 1246 725 1246 q 619 1224 643 1246 q 596 1165 596 1201 q 610 1124 596 1140 q 647 1107 625 1107 z "},"ů":{"ha":761,"x_min":138,"x_max":783,"o":"m 521 0 l 533 67 q 449 4 497 25 q 339 -17 400 -17 q 195 38 253 -17 q 138 203 138 92 q 140 244 138 222 q 146 289 143 265 l 219 710 l 358 710 l 285 297 q 279 259 281 275 q 278 232 278 243 q 308 142 278 171 q 388 114 339 114 q 502 151 450 114 q 571 282 554 188 l 646 710 l 783 710 l 658 0 l 521 0 m 508 786 q 410 828 449 786 q 372 929 372 871 q 433 1065 372 1010 q 568 1121 493 1121 q 665 1080 626 1121 q 703 981 703 1039 q 642 844 703 901 q 508 786 581 786 m 525 885 q 579 908 556 885 q 603 968 603 932 q 550 1024 603 1024 q 497 1001 521 1024 q 474 943 474 979 q 488 901 474 918 q 525 885 503 885 z "},"Ű":{"ha":922,"x_min":168,"x_max":1108,"o":"m 479 -17 q 258 54 347 -17 q 168 278 168 125 q 170 331 168 301 q 181 404 172 360 l 281 972 l 424 972 l 321 383 q 311 289 311 325 q 365 153 311 189 q 488 118 418 118 q 642 169 574 118 q 738 367 711 219 l 844 972 l 986 972 l 879 358 q 799 133 854 215 q 663 17 744 51 q 479 -17 582 -17 m 424 1021 l 650 1238 l 831 1238 l 556 1021 l 424 1021 m 703 1021 l 929 1238 l 1108 1238 l 833 1021 l 703 1021 z "},"ű":{"ha":761,"x_min":138,"x_max":986,"o":"m 521 0 l 533 67 q 449 4 497 25 q 339 -17 400 -17 q 195 38 253 -17 q 138 203 138 92 q 140 244 138 222 q 146 289 143 265 l 219 710 l 358 710 l 285 297 q 279 259 281 275 q 278 232 278 243 q 308 142 278 171 q 388 114 339 114 q 502 151 450 114 q 571 282 554 188 l 646 710 l 783 710 l 658 0 l 521 0 m 301 799 l 528 1015 l 708 1015 l 433 799 l 301 799 m 581 799 l 807 1015 l 986 1015 l 711 799 l 581 799 z "},"Ų":{"ha":922,"x_min":168,"x_max":986,"o":"m 433 -332 q 337 -301 374 -332 q 300 -214 300 -269 q 342 -100 300 -150 q 451 -17 383 -50 q 432 -15 442 -15 q 413 -12 422 -14 q 237 74 306 3 q 168 278 168 146 q 170 331 168 301 q 181 404 172 360 l 281 972 l 424 972 l 321 383 q 311 289 311 325 q 365 153 311 189 q 488 118 418 118 q 642 169 574 118 q 738 367 711 219 l 844 972 l 986 972 l 879 358 q 780 109 850 190 q 603 -7 710 28 q 460 -89 506 -39 q 415 -190 415 -139 q 431 -233 415 -219 q 467 -246 446 -246 q 506 -237 489 -246 q 535 -217 522 -228 l 590 -267 q 528 -310 567 -289 q 433 -332 489 -332 z "},"ų":{"ha":761,"x_min":138,"x_max":783,"o":"m 468 -332 q 372 -301 408 -332 q 335 -214 335 -269 q 386 -86 335 -139 q 521 0 438 -33 l 533 67 q 449 4 497 25 q 339 -17 400 -17 q 195 38 253 -17 q 138 203 138 92 q 140 244 138 222 q 146 289 143 265 l 219 710 l 358 710 l 285 297 q 279 259 281 275 q 278 232 278 243 q 308 142 278 171 q 388 114 339 114 q 502 151 450 114 q 571 282 554 188 l 646 710 l 783 710 l 658 0 q 498 -86 546 -32 q 450 -192 450 -140 q 465 -233 450 -219 q 501 -246 481 -246 q 542 -237 525 -246 q 569 -217 558 -228 l 625 -267 q 564 -310 603 -289 q 468 -332 525 -332 z "},"Ǔ":{"ha":922,"x_min":168,"x_max":986,"o":"m 479 -17 q 258 54 347 -17 q 168 278 168 125 q 170 331 168 301 q 181 404 172 360 l 281 972 l 424 972 l 321 383 q 311 289 311 325 q 365 153 311 189 q 488 118 418 118 q 642 169 574 118 q 738 367 711 219 l 844 972 l 986 972 l 879 358 q 799 133 854 215 q 663 17 744 51 q 479 -17 582 -17 m 696 1021 l 560 1021 l 410 1238 l 532 1238 l 646 1119 l 799 1238 l 922 1238 l 696 1021 z "},"ǔ":{"ha":761,"x_min":138,"x_max":800,"o":"m 521 0 l 533 67 q 449 4 497 25 q 339 -17 400 -17 q 195 38 253 -17 q 138 203 138 92 q 140 244 138 222 q 146 289 143 265 l 219 710 l 358 710 l 285 297 q 279 259 281 275 q 278 232 278 243 q 308 142 278 171 q 388 114 339 114 q 502 151 450 114 q 571 282 554 188 l 646 710 l 783 710 l 658 0 l 521 0 m 574 799 l 438 799 l 288 1015 l 410 1015 l 524 897 l 676 1015 l 800 1015 l 574 799 z "},"Ŵ":{"ha":1113,"x_min":224,"x_max":1232,"o":"m 238 0 l 224 972 l 365 972 l 367 350 q 366 310 367 332 q 365 281 365 288 q 376 308 367 288 q 393 350 385 329 l 661 972 l 779 972 l 831 346 q 833 308 832 331 q 833 279 833 286 q 843 306 836 286 q 856 343 850 325 l 1082 972 l 1232 972 l 868 0 l 739 0 l 681 626 q 677 669 678 649 q 676 700 676 690 q 667 673 675 693 q 649 629 658 653 l 367 0 l 238 0 m 865 1028 l 753 1146 l 599 1028 l 476 1028 l 701 1244 l 839 1244 l 989 1028 l 865 1028 z "},"ŵ":{"ha":964,"x_min":167,"x_max":1047,"o":"m 228 0 l 167 710 l 299 710 l 322 268 q 324 228 324 250 q 324 194 324 206 q 338 228 328 206 q 354 268 347 251 l 546 710 l 664 710 l 706 268 q 709 224 708 247 q 710 194 710 200 q 722 227 714 206 q 738 268 729 249 l 911 710 l 1047 710 l 751 0 l 625 0 l 576 414 q 573 458 575 432 q 571 494 571 483 q 556 456 567 483 q 538 413 544 428 l 353 0 l 228 0 m 757 799 l 644 917 l 490 799 l 368 799 l 593 1015 l 731 1015 l 881 799 l 757 799 z "},"Ẁ":{"ha":1113,"x_min":224,"x_max":1232,"o":"m 238 0 l 224 972 l 365 972 l 367 350 q 366 310 367 332 q 365 281 365 288 q 376 308 367 288 q 393 350 385 329 l 661 972 l 779 972 l 831 346 q 833 308 832 331 q 833 279 833 286 q 843 306 836 286 q 856 343 850 325 l 1082 972 l 1232 972 l 868 0 l 739 0 l 681 626 q 677 669 678 649 q 676 700 676 690 q 667 673 675 693 q 649 629 658 653 l 367 0 l 238 0 m 681 1028 l 478 1244 l 661 1244 l 813 1028 l 681 1028 z "},"ẁ":{"ha":964,"x_min":167,"x_max":1047,"o":"m 228 0 l 167 710 l 299 710 l 322 268 q 324 228 324 250 q 324 194 324 206 q 338 228 328 206 q 354 268 347 251 l 546 710 l 664 710 l 706 268 q 709 224 708 247 q 710 194 710 200 q 722 227 714 206 q 738 268 729 249 l 911 710 l 1047 710 l 751 0 l 625 0 l 576 414 q 573 458 575 432 q 571 494 571 483 q 556 456 567 483 q 538 413 544 428 l 353 0 l 228 0 m 572 799 l 369 1015 l 553 1015 l 704 799 l 572 799 z "},"Ẃ":{"ha":1113,"x_min":224,"x_max":1232,"o":"m 238 0 l 224 972 l 365 972 l 367 350 q 366 310 367 332 q 365 281 365 288 q 376 308 367 288 q 393 350 385 329 l 661 972 l 779 972 l 831 346 q 833 308 832 331 q 833 279 833 286 q 843 306 836 286 q 856 343 850 325 l 1082 972 l 1232 972 l 868 0 l 739 0 l 681 626 q 677 669 678 649 q 676 700 676 690 q 667 673 675 693 q 649 629 658 653 l 367 0 l 238 0 m 783 1028 l 651 1028 l 879 1244 l 1061 1244 l 783 1028 z "},"ẃ":{"ha":964,"x_min":167,"x_max":1047,"o":"m 228 0 l 167 710 l 299 710 l 322 268 q 324 228 324 250 q 324 194 324 206 q 338 228 328 206 q 354 268 347 251 l 546 710 l 664 710 l 706 268 q 709 224 708 247 q 710 194 710 200 q 722 227 714 206 q 738 268 729 249 l 911 710 l 1047 710 l 751 0 l 625 0 l 576 414 q 573 458 575 432 q 571 494 571 483 q 556 456 567 483 q 538 413 544 428 l 353 0 l 228 0 m 675 799 l 543 799 l 771 1015 l 953 1015 l 675 799 z "},"Ẅ":{"ha":1113,"x_min":224,"x_max":1232,"o":"m 238 0 l 224 972 l 365 972 l 367 350 q 366 310 367 332 q 365 281 365 288 q 376 308 367 288 q 393 350 385 329 l 661 972 l 779 972 l 831 346 q 833 308 832 331 q 833 279 833 286 q 843 306 836 286 q 856 343 850 325 l 1082 972 l 1232 972 l 868 0 l 739 0 l 681 626 q 677 669 678 649 q 676 700 676 690 q 667 673 675 693 q 649 629 658 653 l 367 0 l 238 0 m 618 1051 q 569 1072 588 1051 q 550 1122 550 1093 q 578 1190 550 1161 q 643 1218 607 1218 q 694 1198 675 1218 q 713 1149 713 1178 q 684 1080 713 1108 q 618 1051 656 1051 m 857 1051 q 807 1072 826 1051 q 788 1122 788 1093 q 817 1190 788 1163 q 882 1218 846 1218 q 932 1198 913 1218 q 951 1149 951 1178 q 922 1080 951 1108 q 857 1051 893 1051 z "},"ẅ":{"ha":964,"x_min":167,"x_max":1047,"o":"m 228 0 l 167 710 l 299 710 l 322 268 q 324 228 324 250 q 324 194 324 206 q 338 228 328 206 q 354 268 347 251 l 546 710 l 664 710 l 706 268 q 709 224 708 247 q 710 194 710 200 q 722 227 714 206 q 738 268 729 249 l 911 710 l 1047 710 l 751 0 l 625 0 l 576 414 q 573 458 575 432 q 571 494 571 483 q 556 456 567 483 q 538 413 544 428 l 353 0 l 228 0 m 510 822 q 460 843 479 822 q 442 893 442 864 q 470 960 442 932 q 535 989 499 989 q 585 969 567 989 q 604 919 604 949 q 576 851 604 879 q 510 822 547 822 m 749 822 q 699 843 718 822 q 679 893 679 864 q 708 961 679 933 q 774 989 738 989 q 824 969 804 989 q 843 919 843 949 q 814 851 843 879 q 749 822 785 822 z "},"Ỳ":{"ha":865,"x_min":210,"x_max":996,"o":"m 360 0 l 429 390 l 210 972 l 357 972 l 518 524 l 839 972 l 996 972 l 569 383 l 501 0 l 360 0 m 554 1021 l 351 1238 l 535 1238 l 686 1021 l 554 1021 z "},"ỳ":{"ha":714,"x_min":136,"x_max":810,"o":"m 136 -269 l 289 18 l 158 710 l 297 710 l 376 247 q 382 212 379 229 q 386 189 385 194 q 398 215 389 197 q 415 247 407 232 l 661 710 l 810 710 l 283 -269 l 136 -269 m 442 799 l 239 1015 l 422 1015 l 574 799 l 442 799 z "},"Ŷ":{"ha":865,"x_min":210,"x_max":996,"o":"m 360 0 l 429 390 l 210 972 l 357 972 l 518 524 l 839 972 l 996 972 l 569 383 l 501 0 l 360 0 m 739 1021 l 626 1139 l 472 1021 l 350 1021 l 575 1238 l 713 1238 l 863 1021 l 739 1021 z "},"ŷ":{"ha":714,"x_min":136,"x_max":810,"o":"m 136 -269 l 289 18 l 158 710 l 297 710 l 376 247 q 382 212 379 229 q 386 189 385 194 q 398 215 389 197 q 415 247 407 232 l 661 710 l 810 710 l 283 -269 l 136 -269 m 626 799 l 514 917 l 360 799 l 238 799 l 463 1015 l 600 1015 l 750 799 l 626 799 z "},"Ź":{"ha":847,"x_min":74,"x_max":939,"o":"m 74 0 l 92 106 l 729 840 l 251 840 l 274 972 l 939 972 l 919 865 l 285 132 l 792 132 l 768 0 l 74 0 m 657 1028 l 525 1028 l 753 1244 l 935 1244 l 657 1028 z "},"ź":{"ha":683,"x_min":78,"x_max":810,"o":"m 78 0 l 96 100 l 519 585 l 207 585 l 229 710 l 725 710 l 708 611 l 282 124 l 621 124 l 599 0 l 78 0 m 532 799 l 400 799 l 628 1015 l 810 1015 l 532 799 z "},"Ż":{"ha":847,"x_min":74,"x_max":939,"o":"m 74 0 l 92 106 l 729 840 l 251 840 l 274 972 l 939 972 l 919 865 l 285 132 l 792 132 l 768 0 l 74 0 m 611 1051 q 563 1072 582 1051 q 544 1122 544 1093 q 574 1190 544 1161 q 640 1218 603 1218 q 690 1198 671 1218 q 708 1149 708 1178 q 679 1080 708 1108 q 611 1051 650 1051 z "},"ż":{"ha":683,"x_min":78,"x_max":725,"o":"m 78 0 l 96 100 l 519 585 l 207 585 l 229 710 l 725 710 l 708 611 l 282 124 l 621 124 l 599 0 l 78 0 m 486 822 q 438 843 457 822 q 419 893 419 864 q 449 960 419 932 q 515 989 478 989 q 565 969 546 989 q 583 919 583 949 q 554 851 583 879 q 486 822 525 822 z "},"ſ":{"ha":451,"x_min":136,"x_max":596,"o":"m 136 0 l 282 824 q 352 956 299 921 q 469 990 406 990 q 539 980 507 990 q 596 954 571 969 l 575 839 q 524 858 547 853 q 479 864 501 864 q 435 845 450 864 q 415 799 421 826 l 274 0 l 136 0 z "},"ˉ":{"ha":519,"x_min":238,"x_max":697,"o":"m 238 829 l 257 946 l 697 946 l 678 829 l 238 829 z "},"μ":{"ha":761,"x_min":49,"x_max":783,"o":"m 522 0 l 535 74 q 455 6 501 28 q 361 -17 408 -17 q 291 -1 324 -17 q 244 44 258 14 l 196 -229 l 49 -281 l 224 710 l 360 710 l 286 297 q 281 262 283 279 q 279 225 279 244 q 304 147 279 181 q 392 114 329 114 q 503 153 450 114 q 572 290 556 192 l 647 710 l 783 710 l 658 0 l 522 0 z "},"―":{"ha":767,"x_min":53,"x_max":854,"o":"m 53 338 l 74 458 l 854 458 l 833 338 l 53 338 z "},"‛":{"ha":294,"x_min":190,"x_max":401,"o":"m 288 610 q 219 701 247 642 q 190 822 190 761 q 231 949 190 908 q 321 989 272 989 q 378 965 354 989 q 401 903 401 942 q 370 825 401 856 q 294 788 339 794 q 299 758 296 772 q 306 729 301 743 q 326 678 314 703 q 346 643 338 654 l 288 610 z "},"′":{"ha":289,"x_min":147,"x_max":421,"o":"m 253 1014 l 421 1014 l 260 571 l 147 571 l 253 1014 z "},"″":{"ha":556,"x_min":147,"x_max":688,"o":"m 414 571 l 519 1014 l 688 1014 l 526 571 l 414 571 m 147 571 l 253 1014 l 421 1014 l 260 571 l 147 571 z "},"̦":{"ha":519,"x_min":136,"x_max":321,"o":"m 174 -365 l 136 -342 q 178 -301 154 -326 q 214 -239 201 -275 q 165 -217 183 -236 q 147 -167 147 -197 q 177 -94 147 -122 q 243 -65 207 -65 q 298 -87 275 -65 q 321 -149 321 -108 q 287 -261 321 -206 q 174 -365 253 -317 z "},"̒":{"ha":519,"x_min":410,"x_max":594,"o":"m 490 822 q 434 844 458 822 q 410 911 410 865 q 444 1019 410 964 q 556 1122 478 1074 l 594 1099 q 553 1057 576 1083 q 517 996 531 1031 q 565 974 547 994 q 583 924 583 954 q 555 850 583 878 q 490 822 526 822 z "},"ⁿ":{"ha":607,"x_min":150,"x_max":674,"o":"m 486 393 l 546 724 q 549 756 547 738 q 551 785 551 775 q 528 855 551 833 q 471 876 506 876 q 383 841 422 876 q 332 736 344 806 l 271 393 l 150 393 l 253 976 l 375 976 l 364 911 q 428 969 392 947 q 515 990 465 990 q 626 945 579 990 q 674 807 674 900 q 672 771 674 792 q 667 728 671 750 l 607 393 l 486 393 z "},"₤":{"ha":782,"x_min":106,"x_max":888,"o":"m 106 0 l 131 140 q 211 207 178 161 q 264 301 244 253 l 153 301 l 172 411 l 290 411 q 292 421 292 415 q 292 435 292 426 q 290 469 292 450 q 286 503 289 489 l 189 503 l 207 611 l 264 611 q 260 640 261 622 q 260 663 260 657 q 298 820 260 746 q 417 942 336 894 q 624 989 497 989 q 772 963 706 989 q 888 892 838 936 l 814 764 q 737 824 788 792 q 601 856 686 856 q 449 800 497 856 q 401 672 401 744 q 403 644 401 663 q 410 611 406 626 l 669 611 l 650 503 l 433 503 q 436 479 435 490 q 438 456 438 468 q 437 433 438 444 q 435 411 436 421 l 633 411 l 615 301 l 406 301 q 355 212 388 254 q 279 133 322 169 l 765 133 l 742 0 l 106 0 z "},"℅":{"ha":1376,"x_min":178,"x_max":1368,"o":"m 285 -17 l 1100 989 l 1225 989 l 410 -17 l 285 -17 m 375 378 q 228 441 279 378 q 178 608 178 504 q 264 885 178 781 q 485 989 350 989 q 592 966 553 989 q 649 908 631 943 q 672 838 667 872 l 551 796 q 525 849 546 825 q 460 872 504 872 q 340 801 382 872 q 299 625 299 729 q 322 528 299 564 q 392 493 346 493 q 469 516 439 493 q 518 578 500 539 l 619 540 q 524 422 586 467 q 375 378 461 378 m 1053 -17 q 899 47 954 -17 q 843 217 843 110 q 933 491 843 389 q 1160 593 1022 593 q 1313 529 1258 593 q 1368 358 1368 465 q 1280 85 1368 186 q 1053 -17 1192 -17 m 1072 99 q 1203 166 1157 99 q 1249 340 1249 233 q 1221 440 1249 403 q 1139 478 1193 478 q 1013 413 1061 478 q 964 238 964 347 q 992 136 964 174 q 1072 99 1019 99 z "},"ℓ":{"ha":614,"x_min":143,"x_max":696,"o":"m 339 -17 q 242 15 281 -17 q 203 113 203 46 q 210 183 203 138 l 232 311 q 194 291 213 300 q 164 278 175 282 l 143 390 q 200 417 167 400 q 256 447 233 433 l 303 713 q 393 929 331 869 q 542 989 456 989 q 653 945 610 989 q 696 815 696 901 q 642 624 696 706 q 515 485 589 543 q 381 388 442 428 l 349 207 q 345 179 347 193 q 343 156 343 165 q 355 117 343 128 q 386 107 367 107 q 443 124 414 107 q 500 167 472 142 l 524 67 q 438 6 486 29 q 339 -17 390 -17 m 519 872 q 474 840 492 872 q 438 707 456 808 l 406 532 q 523 660 488 592 q 558 800 558 728 q 549 851 558 831 q 519 872 540 872 z "},"№":{"ha":1576,"x_min":118,"x_max":1604,"o":"m 118 0 l 289 972 l 419 972 l 707 318 q 721 285 711 308 q 732 253 731 263 q 735 284 732 263 q 740 317 739 306 l 856 972 l 994 972 l 824 0 l 694 0 l 414 629 q 396 674 408 642 q 381 715 383 707 q 375 675 381 708 q 367 628 369 642 l 257 0 l 118 0 m 1006 163 l 1026 274 l 1515 274 l 1496 163 l 1006 163 m 1289 378 q 1135 441 1190 378 q 1081 613 1081 504 q 1169 887 1081 785 q 1397 989 1258 989 q 1550 925 1496 989 q 1604 753 1604 861 q 1516 479 1604 581 q 1289 378 1428 378 m 1310 494 q 1440 560 1393 494 q 1486 735 1486 626 q 1458 835 1486 799 q 1376 872 1431 872 q 1249 807 1297 872 q 1200 633 1200 742 q 1229 532 1200 569 q 1310 494 1258 494 z "},"Ω":{"ha":968,"x_min":93,"x_max":975,"o":"m 557 0 l 579 124 q 730 284 675 210 q 808 433 785 358 q 831 599 831 508 q 787 776 831 699 q 633 854 743 854 q 457 792 525 854 q 357 635 389 729 q 325 450 325 542 q 355 276 325 358 q 436 124 385 193 l 414 0 l 93 0 l 117 133 l 304 133 q 217 273 251 185 q 183 467 183 361 q 231 701 183 581 q 380 906 279 822 q 639 989 481 989 q 840 933 767 989 q 944 794 913 876 q 975 632 975 711 q 903 338 975 463 q 713 133 832 213 l 900 133 l 876 0 l 557 0 z "},"℮":{"ha":1040,"x_min":136,"x_max":1081,"o":"m 615 -17 q 376 45 485 -17 q 201 220 267 107 q 136 486 136 333 q 205 769 136 656 q 384 938 274 882 q 619 993 494 993 q 933 866 797 993 q 1081 486 1069 739 l 354 486 l 354 182 q 456 100 388 133 q 615 67 525 67 q 799 113 714 67 q 951 260 885 158 l 1022 217 q 858 47 951 111 q 615 -17 764 -17 m 869 801 q 763 878 831 847 q 615 910 694 910 q 354 814 457 910 l 354 567 l 869 568 l 869 801 z "},"⅓":{"ha":1001,"x_min":11,"x_max":1003,"o":"m 11 -17 l 826 989 l 958 989 l 143 -17 l 11 -17 m 156 393 l 233 833 l 168 833 l 183 921 q 247 937 224 921 q 286 979 271 953 l 371 979 l 268 393 l 156 393 m 675 178 q 764 89 690 89 q 834 117 808 89 q 860 183 860 144 q 844 230 860 210 q 792 250 828 250 l 743 250 l 760 349 l 799 349 q 865 376 844 349 q 885 435 885 403 q 870 476 885 458 q 826 493 856 493 q 769 474 794 493 q 726 424 744 454 l 636 460 q 729 558 671 519 q 854 596 788 596 q 963 557 924 596 q 1003 461 1003 518 q 974 367 1003 408 q 904 307 944 325 q 976 194 976 281 q 912 44 976 103 q 744 -14 847 -14 q 622 28 667 -14 q 565 143 578 71 l 675 178 z "},"⅔":{"ha":1222,"x_min":101,"x_max":1225,"o":"m 233 -17 l 1049 989 l 1181 989 l 365 -17 l 233 -17 m 181 832 q 267 944 211 900 q 403 989 322 989 q 525 947 481 989 q 569 838 569 904 q 519 701 569 747 q 378 606 469 654 q 254 500 286 554 l 510 500 l 490 393 l 101 393 q 191 585 124 517 q 353 706 258 653 q 423 756 396 731 q 450 824 450 782 q 435 865 450 846 q 383 883 419 883 q 275 801 311 883 l 181 832 m 897 178 q 986 89 913 89 q 1056 117 1031 89 q 1082 183 1082 144 q 1066 230 1082 210 q 1014 250 1050 250 l 965 250 l 982 349 l 1021 349 q 1087 376 1067 349 q 1107 435 1107 403 q 1092 476 1107 458 q 1049 493 1078 493 q 992 474 1017 493 q 949 424 967 454 l 858 460 q 951 558 893 519 q 1076 596 1010 596 q 1185 557 1146 596 q 1225 461 1225 518 q 1196 367 1225 408 q 1126 307 1167 325 q 1199 194 1199 281 q 1134 44 1199 103 q 967 -14 1069 -14 q 844 28 889 -14 q 788 143 800 71 l 897 178 z "},"⅛":{"ha":1000,"x_min":11,"x_max":990,"o":"m 11 -17 l 826 989 l 958 989 l 143 -17 l 11 -17 m 156 393 l 233 833 l 168 833 l 183 921 q 247 937 224 921 q 286 979 271 953 l 371 979 l 268 393 l 156 393 m 733 -14 q 609 29 654 -14 q 564 138 564 72 q 601 253 564 207 q 688 321 638 300 q 638 418 638 350 q 695 545 638 494 q 842 596 753 596 q 951 558 911 596 q 990 464 990 521 q 962 375 990 413 q 899 321 933 338 q 967 197 967 285 q 901 46 967 106 q 733 -14 835 -14 m 750 78 q 830 108 797 78 q 863 189 863 139 q 842 246 863 222 q 783 269 821 269 q 703 236 736 269 q 669 156 669 203 q 750 78 669 78 m 800 365 q 862 388 839 365 q 885 444 885 410 q 825 503 885 503 q 765 479 790 503 q 740 421 740 456 q 800 365 740 365 z "},"⅜":{"ha":1182,"x_min":114,"x_max":1172,"o":"m 192 -17 l 1007 989 l 1139 989 l 324 -17 l 192 -17 m 293 379 q 172 422 217 379 q 114 536 126 464 l 224 571 q 313 482 239 482 q 383 509 357 482 q 408 576 408 536 q 392 623 408 603 q 339 643 375 643 l 290 643 l 308 742 l 347 742 q 413 769 392 742 q 433 828 433 797 q 419 868 433 850 q 375 886 404 886 q 318 867 343 886 q 275 817 293 847 l 185 853 q 278 951 219 914 q 403 989 336 989 q 512 950 472 989 q 551 854 551 911 q 522 761 551 803 q 453 700 493 719 q 525 588 525 672 q 460 438 525 496 q 293 379 396 379 m 915 -14 q 791 29 836 -14 q 746 138 746 72 q 783 253 746 207 q 869 321 819 300 q 819 418 819 350 q 877 545 819 494 q 1024 596 935 596 q 1133 558 1093 596 q 1172 464 1172 521 q 1144 375 1172 413 q 1081 321 1115 338 q 1149 197 1149 285 q 1083 46 1149 106 q 915 -14 1017 -14 m 932 78 q 1012 108 979 78 q 1044 189 1044 139 q 1024 246 1044 222 q 965 269 1003 269 q 885 236 918 269 q 851 156 851 203 q 932 78 851 78 m 982 365 q 1044 388 1021 365 q 1067 444 1067 410 q 1007 503 1067 503 q 947 479 972 503 q 922 421 922 456 q 982 365 922 365 z "},"⅝":{"ha":1168,"x_min":103,"x_max":1158,"o":"m 179 -17 l 994 989 l 1126 989 l 311 -17 l 179 -17 m 278 379 q 167 402 210 379 q 103 449 124 425 l 176 533 q 225 496 194 511 q 290 481 256 481 q 381 515 346 481 q 415 601 415 550 q 397 656 415 635 q 343 678 378 678 q 281 663 308 678 q 235 624 254 647 l 156 665 l 242 981 l 558 981 l 540 875 l 315 875 l 279 753 q 324 772 299 765 q 378 779 349 779 q 490 733 451 779 q 529 619 529 686 q 456 447 529 514 q 278 379 383 379 m 901 -14 q 777 29 822 -14 q 732 138 732 72 q 769 253 732 207 q 856 321 806 300 q 806 418 806 350 q 863 545 806 494 q 1010 596 921 596 q 1119 558 1079 596 q 1158 464 1158 521 q 1130 375 1158 413 q 1067 321 1101 338 q 1135 197 1135 285 q 1069 46 1135 106 q 901 -14 1003 -14 m 918 78 q 998 108 965 78 q 1031 189 1031 139 q 1010 246 1031 222 q 951 269 989 269 q 871 236 904 269 q 838 156 838 203 q 918 78 838 78 m 968 365 q 1030 388 1007 365 q 1053 444 1053 410 q 993 503 1053 503 q 933 479 958 503 q 908 421 908 456 q 968 365 908 365 z "},"⅞":{"ha":1043,"x_min":53,"x_max":1033,"o":"m 53 -17 l 868 989 l 1000 989 l 185 -17 l 53 -17 m 182 393 q 273 663 210 546 q 415 871 336 779 l 161 871 l 179 981 l 560 981 l 542 881 q 417 720 467 808 q 340 547 368 632 q 299 393 311 461 l 182 393 m 776 -14 q 652 29 697 -14 q 607 138 607 72 q 644 253 607 207 q 731 321 681 300 q 681 418 681 350 q 738 545 681 494 q 885 596 796 596 q 994 558 954 596 q 1033 464 1033 521 q 1005 375 1033 413 q 942 321 976 338 q 1010 197 1010 285 q 944 46 1010 106 q 776 -14 878 -14 m 793 78 q 873 108 840 78 q 906 189 906 139 q 885 246 906 222 q 826 269 864 269 q 746 236 779 269 q 713 156 713 203 q 793 78 713 78 m 843 365 q 905 388 882 365 q 928 444 928 410 q 868 503 928 503 q 808 479 833 503 q 783 421 783 456 q 843 365 783 365 z "},"∕":{"ha":438,"x_min":-167,"x_max":778,"o":"m -167 -17 l 649 989 l 778 989 l -37 -17 l -167 -17 z "},"∙":{"ha":290,"x_min":132,"x_max":329,"o":"m 215 383 q 155 409 178 383 q 132 469 132 435 q 166 551 132 517 q 244 586 200 586 q 306 560 283 586 q 329 500 329 535 q 297 418 329 453 q 215 383 264 383 z "},"◌":{"ha":858,"x_min":146,"x_max":888,"o":"m 146 499 q 190 542 146 542 q 232 499 232 542 q 190 457 232 457 q 146 499 146 457 m 801 499 q 843 542 801 542 q 888 499 888 542 q 843 457 888 457 q 801 499 801 457 m 475 172 q 517 215 475 215 q 558 172 558 215 q 517 129 558 129 q 475 172 475 129 m 475 825 q 517 869 475 869 q 558 825 558 869 q 517 783 558 783 q 475 825 475 783 m 706 731 q 747 772 706 772 q 790 731 790 772 q 747 688 790 688 q 706 731 706 688 m 243 731 q 286 772 243 772 q 328 731 328 772 q 286 688 328 688 q 243 731 243 688 m 706 268 q 747 311 706 311 q 790 268 790 311 q 747 226 790 226 q 706 268 706 226 m 243 268 q 286 311 243 311 q 328 268 328 311 q 286 226 328 226 q 243 268 243 226 m 172 374 q 215 417 172 417 q 257 374 257 417 q 215 331 257 331 q 172 374 172 331 m 776 624 q 818 668 776 668 q 861 624 861 668 q 818 582 861 582 q 776 624 776 582 m 600 197 q 642 240 600 240 q 685 197 685 240 q 642 154 685 154 q 600 197 600 154 m 349 800 q 392 844 349 844 q 433 800 433 844 q 392 758 433 758 q 349 800 349 758 m 599 800 q 640 843 599 843 q 685 800 685 843 q 640 758 685 758 q 599 800 599 758 m 172 624 q 215 667 172 667 q 258 624 258 667 q 215 581 258 581 q 172 624 172 581 m 775 375 q 818 417 775 417 q 861 375 861 417 q 818 332 861 332 q 775 375 775 332 m 349 199 q 393 240 349 240 q 435 199 435 240 q 393 154 435 154 q 349 199 349 154 z "},"":{"ha":519,"x_min":300,"x_max":522,"o":"m 522 1014 l 519 999 q 457 821 501 900 q 336 675 413 742 l 300 707 q 352 836 325 747 q 394 1014 379 925 l 522 1014 z "},"↑":{"ha":638,"x_min":49,"x_max":589,"o":"m 246 0 l 263 639 l 93 581 q 64 572 71 572 q 49 589 49 572 q 60 613 49 594 l 296 957 q 319 972 307 972 q 343 957 333 972 l 578 613 q 589 589 589 594 q 574 572 589 572 q 544 581 567 572 l 375 639 l 392 0 l 246 0 z "},"↗":{"ha":851,"x_min":35,"x_max":782,"o":"m 138 90 l 35 194 l 499 633 l 338 713 q 317 724 328 718 q 306 739 306 729 q 315 753 306 750 q 336 758 325 756 l 732 832 q 747 835 739 833 q 758 836 754 836 q 782 814 782 836 q 780 799 782 808 q 776 779 778 790 l 704 399 q 682 363 697 363 q 667 372 672 363 q 656 393 661 381 l 578 554 l 138 90 z "},"→":{"ha":1083,"x_min":63,"x_max":1035,"o":"m 651 231 q 635 246 635 231 q 643 275 635 253 l 701 444 l 63 428 l 63 574 l 701 557 l 643 726 q 635 756 635 749 q 651 771 635 771 q 675 760 657 771 l 1019 524 q 1035 500 1035 513 q 1019 476 1035 486 l 675 242 q 651 231 657 231 z "},"↘":{"ha":851,"x_min":35,"x_max":782,"o":"m 758 90 q 747 92 754 90 q 732 94 739 93 l 336 168 q 315 174 325 169 q 306 188 306 178 q 317 203 306 197 q 338 214 328 208 l 499 293 l 35 732 l 138 836 l 578 372 l 656 533 q 667 555 661 546 q 682 564 672 564 q 704 528 697 564 l 776 147 q 780 127 778 136 q 782 113 782 118 q 758 90 782 90 z "},"↓":{"ha":678,"x_min":57,"x_max":619,"o":"m 339 0 q 315 15 325 0 l 68 376 q 57 400 57 394 q 72 417 57 417 q 101 408 79 417 l 282 346 l 265 972 l 411 972 l 394 346 l 575 408 q 604 417 597 417 q 619 400 619 417 q 608 376 619 394 l 363 15 q 339 0 353 0 z "},"↙":{"ha":851,"x_min":69,"x_max":817,"o":"m 93 90 q 69 113 69 90 q 71 127 69 118 q 75 147 72 136 l 147 528 q 169 564 154 564 q 184 555 179 564 q 196 533 189 546 l 274 372 l 714 836 l 817 732 l 353 293 l 514 214 q 535 203 525 208 q 546 188 546 197 q 535 174 546 178 q 515 168 525 169 l 119 94 q 106 92 114 93 q 93 90 97 90 z "},"←":{"ha":1083,"x_min":49,"x_max":1021,"o":"m 432 231 q 408 242 426 231 l 64 476 q 49 500 49 486 q 64 524 49 513 l 408 760 q 432 771 426 771 q 449 756 449 771 q 440 726 449 749 l 382 557 l 1021 574 l 1021 428 l 382 444 l 440 275 q 449 246 449 253 q 432 231 449 231 z "},"↖":{"ha":851,"x_min":69,"x_max":817,"o":"m 714 90 l 274 554 l 196 393 q 184 372 189 381 q 169 363 179 363 q 147 399 154 363 l 75 779 q 71 799 72 790 q 69 814 69 808 q 93 836 69 836 q 106 835 97 836 q 119 832 114 833 l 515 758 q 535 753 525 756 q 546 739 546 750 q 535 724 546 729 q 514 713 525 718 l 353 633 l 817 194 l 714 90 z "},"↔":{"ha":1313,"x_min":49,"x_max":1264,"o":"m 881 231 q 864 246 864 231 q 872 275 864 253 l 929 440 l 383 440 l 440 275 q 449 246 449 253 q 432 231 449 231 q 408 242 426 231 l 64 476 q 49 500 49 486 q 64 524 49 513 l 408 760 q 432 771 426 771 q 449 756 449 771 q 440 726 449 749 l 383 561 l 929 561 l 872 726 q 864 756 864 749 q 881 771 864 771 q 904 760 886 771 l 1249 524 q 1264 500 1264 513 q 1249 476 1264 486 l 904 242 q 881 231 886 231 z "},"↕":{"ha":678,"x_min":68,"x_max":608,"o":"m 338 -236 q 314 -221 324 -236 l 79 124 q 68 147 68 142 q 83 164 68 164 q 113 156 90 164 l 278 99 l 278 729 l 113 672 q 83 664 90 664 q 68 681 68 664 q 79 704 68 686 l 314 1049 q 338 1064 324 1064 q 361 1049 350 1064 l 597 704 q 608 681 608 686 q 593 664 608 664 q 564 672 586 664 l 399 729 l 399 99 l 564 156 q 593 164 586 164 q 608 147 608 164 q 597 124 608 142 l 361 -221 q 338 -236 350 -236 z "},"⇤":{"ha":1188,"x_min":106,"x_max":1125,"o":"m 106 144 l 106 854 l 250 854 l 250 144 l 106 144 m 710 231 q 686 242 704 231 l 342 476 q 326 500 326 486 q 342 524 326 513 l 686 760 q 710 771 704 771 q 726 756 726 771 q 718 726 726 749 l 660 557 l 1125 574 l 1125 428 l 660 444 l 718 275 q 726 246 726 253 q 710 231 726 231 z "},"⇥":{"ha":1188,"x_min":63,"x_max":1082,"o":"m 478 231 q 461 246 461 231 q 469 275 461 253 l 528 444 l 63 428 l 63 574 l 528 557 l 469 726 q 461 756 461 749 q 478 771 461 771 q 501 760 483 771 l 846 524 q 861 500 861 513 q 846 476 861 486 l 501 242 q 478 231 483 231 m 938 144 l 938 854 l 1082 854 l 1082 144 l 938 144 z "},"↹":{"ha":1274,"x_min":106,"x_max":1168,"o":"m 106 488 l 106 1000 l 250 1000 l 250 488 l 106 488 m 710 474 q 686 485 704 474 l 342 719 q 326 743 326 729 q 342 767 326 756 l 686 1003 q 710 1014 704 1014 q 726 999 726 1014 q 718 969 726 992 l 660 800 l 1168 817 l 1168 671 l 660 688 l 718 518 q 726 489 726 496 q 710 474 726 474 m 564 -319 q 547 -304 547 -319 q 556 -275 547 -297 l 614 -106 l 106 -122 l 106 24 l 614 7 l 556 176 q 547 206 547 199 q 564 221 547 221 q 588 210 569 221 l 932 -26 q 947 -50 947 -37 q 932 -74 947 -64 l 588 -308 q 564 -319 569 -319 m 1024 -306 l 1024 207 l 1168 207 l 1168 -306 l 1024 -306 z "},"↳":{"ha":1006,"x_min":106,"x_max":957,"o":"m 574 28 q 557 43 557 28 q 565 72 557 50 l 622 238 l 164 238 l 164 358 l 622 358 l 565 524 q 557 553 557 546 q 574 568 557 568 q 597 557 579 568 l 942 321 q 957 297 957 310 q 942 274 957 283 l 597 39 q 574 28 579 28 m 106 238 l 106 972 l 226 972 l 226 238 l 106 238 z "},"↴":{"ha":1006,"x_min":106,"x_max":957,"o":"m 688 47 q 664 63 675 47 l 428 407 q 417 431 417 425 q 432 447 417 447 q 461 439 439 447 l 624 383 l 624 914 l 750 914 l 750 383 l 913 439 q 942 447 935 447 q 957 431 957 447 q 946 407 957 425 l 711 63 q 688 47 701 47 m 106 858 l 106 972 l 750 972 l 750 858 l 106 858 z "},"↵":{"ha":1006,"x_min":49,"x_max":900,"o":"m 432 28 q 408 39 426 28 l 64 274 q 49 297 49 283 q 64 321 49 310 l 408 557 q 432 568 426 568 q 449 553 449 568 q 440 524 449 546 l 383 358 l 842 358 l 842 238 l 383 238 l 440 72 q 449 43 449 50 q 432 28 449 28 m 779 238 l 779 972 l 900 972 l 900 238 l 779 238 z "},"↶":{"ha":1113,"x_min":49,"x_max":994,"o":"m 868 0 l 868 594 q 802 797 868 724 q 625 869 736 869 q 448 797 514 869 q 382 594 382 725 l 382 568 l 256 568 l 256 594 q 302 803 256 715 q 432 940 349 892 q 625 989 515 989 q 818 940 735 989 q 948 803 901 892 q 994 594 994 715 l 994 0 l 868 0 m 319 210 q 296 225 307 210 l 60 569 q 49 593 49 588 q 64 610 49 610 q 93 601 71 610 l 256 546 l 256 579 l 382 579 l 382 546 l 544 601 q 574 610 567 610 q 589 593 589 610 q 578 569 589 588 l 343 225 q 319 210 333 210 z "},"↷":{"ha":1113,"x_min":118,"x_max":1064,"o":"m 118 0 l 118 594 q 165 803 118 715 q 294 940 211 892 q 488 989 378 989 q 681 940 597 989 q 810 803 764 892 q 857 594 857 715 l 857 568 l 731 568 l 731 594 q 665 797 731 725 q 488 869 599 869 q 311 797 378 869 q 244 594 244 724 l 244 0 l 118 0 m 793 210 q 769 225 779 210 l 535 569 q 524 593 524 588 q 539 610 524 610 q 568 601 546 610 l 731 546 l 731 579 l 857 579 l 857 546 l 1019 601 q 1049 610 1042 610 q 1064 593 1064 610 q 1053 569 1064 588 l 817 225 q 793 210 806 210 z "},"↸":{"ha":851,"x_min":69,"x_max":817,"o":"m 714 -24 l 274 440 l 196 279 q 184 258 189 267 q 169 249 179 249 q 147 285 154 249 l 75 665 q 71 685 72 676 q 69 700 69 694 q 93 722 69 722 q 106 721 97 722 q 119 718 114 719 l 515 644 q 535 639 525 642 q 546 625 546 636 q 535 610 546 615 q 514 599 525 604 l 353 519 l 817 81 l 714 -24 m 69 858 l 69 972 l 817 972 l 817 858 l 69 858 z "},"↺":{"ha":1175,"x_min":139,"x_max":1108,"o":"m 588 38 q 362 98 464 38 q 199 260 260 158 q 139 486 139 363 q 173 658 139 575 q 271 803 207 740 l 358 715 q 288 610 313 669 q 263 486 263 550 q 358 256 263 351 q 588 160 454 160 q 817 256 721 160 q 913 486 913 351 q 875 637 913 567 q 774 751 838 707 l 844 853 q 985 694 933 792 q 1036 486 1036 597 q 976 260 1036 363 q 813 98 915 158 q 588 38 711 38 m 732 515 q 710 551 717 515 l 638 932 q 634 952 636 943 q 632 967 632 961 q 656 989 632 989 q 667 988 660 989 q 682 985 675 986 l 1078 911 q 1099 906 1089 908 q 1108 892 1108 903 q 1097 876 1108 882 q 1076 865 1086 871 l 861 760 l 758 546 q 747 524 753 533 q 732 515 742 515 z "},"⇚":{"ha":1083,"x_min":49,"x_max":1021,"o":"m 432 231 q 408 242 426 231 l 64 476 q 49 500 49 486 q 64 524 49 513 l 408 760 q 432 771 426 771 q 449 756 449 771 q 440 726 449 749 l 363 501 l 440 275 q 449 246 449 253 q 432 231 449 231 m 360 342 l 360 411 l 1021 411 l 1021 342 l 360 342 m 360 467 l 360 536 l 1021 536 l 1021 467 l 360 467 m 360 592 l 360 661 l 1021 661 l 1021 592 l 360 592 z "},"⇛":{"ha":1083,"x_min":63,"x_max":1035,"o":"m 651 231 q 635 246 635 231 q 643 275 635 253 l 721 501 l 643 726 q 635 756 635 749 q 651 771 635 771 q 675 760 657 771 l 1019 524 q 1035 500 1035 513 q 1019 476 1035 486 l 675 242 q 651 231 657 231 m 63 342 l 63 411 l 724 411 l 724 342 l 63 342 m 63 467 l 63 536 l 724 536 l 724 467 l 63 467 m 63 592 l 63 661 l 724 661 l 724 592 l 63 592 z "},"⇜":{"ha":1083,"x_min":49,"x_max":1021,"o":"m 432 231 q 408 242 426 231 l 64 476 q 49 500 49 486 q 64 524 49 513 l 408 760 q 432 771 426 771 q 449 756 449 771 q 440 726 449 749 l 383 561 l 463 561 l 501 440 l 383 440 l 440 275 q 449 246 449 253 q 432 231 449 231 m 510 347 l 440 561 l 529 561 l 554 486 l 608 653 l 697 653 l 599 347 l 510 347 m 707 347 l 608 653 l 697 653 l 751 486 l 806 653 l 894 653 l 796 347 l 707 347 m 874 440 l 806 653 l 894 653 l 924 561 l 1021 561 l 1021 440 l 874 440 z "},"⇝":{"ha":1083,"x_min":63,"x_max":1035,"o":"m 651 231 q 635 246 635 231 q 643 275 635 253 l 700 440 l 582 440 l 621 561 l 700 561 l 643 726 q 635 756 635 749 q 651 771 635 771 q 675 760 657 771 l 1019 524 q 1035 500 1035 513 q 1019 476 1035 486 l 675 242 q 651 231 657 231 m 63 440 l 63 561 l 160 561 l 189 653 l 278 653 l 210 440 l 63 440 m 288 347 l 189 653 l 278 653 l 332 486 l 386 653 l 475 653 l 376 347 l 288 347 m 485 347 l 386 653 l 475 653 l 529 486 l 554 561 l 643 561 l 574 347 l 485 347 z "},"⇠":{"ha":1083,"x_min":49,"x_max":1021,"o":"m 432 231 q 408 242 426 231 l 64 476 q 49 500 49 486 q 64 524 49 513 l 408 760 q 432 771 426 771 q 449 756 449 771 q 440 726 449 749 l 363 500 l 440 275 q 449 246 449 253 q 432 231 449 231 m 314 440 l 314 561 l 493 561 l 493 440 l 314 440 m 604 440 l 604 561 l 757 561 l 757 440 l 604 440 m 868 440 l 868 561 l 1021 561 l 1021 440 l 868 440 z "},"⇡":{"ha":638,"x_min":49,"x_max":589,"o":"m 64 572 q 49 589 49 572 q 60 613 49 594 l 296 957 q 319 972 307 972 q 343 957 333 972 l 578 613 q 589 589 589 594 q 574 572 589 572 q 544 581 567 572 l 318 658 l 93 581 q 64 572 71 572 m 258 0 l 258 150 l 379 150 l 379 0 l 258 0 m 258 261 l 258 411 l 379 411 l 379 261 l 258 261 m 258 522 l 258 707 l 379 707 l 379 522 l 258 522 z "},"⇢":{"ha":1083,"x_min":63,"x_max":1035,"o":"m 651 231 q 635 246 635 231 q 643 275 635 253 l 721 500 l 643 726 q 635 756 635 749 q 651 771 635 771 q 675 760 657 771 l 1019 524 q 1035 500 1035 513 q 1019 476 1035 486 l 675 242 q 651 231 657 231 m 63 440 l 63 561 l 215 561 l 215 440 l 63 440 m 326 440 l 326 561 l 479 561 l 479 440 l 326 440 m 590 440 l 590 561 l 769 561 l 769 440 l 590 440 z "},"⇣":{"ha":638,"x_min":49,"x_max":589,"o":"m 319 0 q 296 15 307 0 l 60 360 q 49 383 49 378 q 64 400 49 400 q 93 392 71 400 l 318 314 l 544 392 q 574 400 567 400 q 589 383 589 400 q 578 360 589 378 l 343 15 q 319 0 333 0 m 258 265 l 258 439 l 379 439 l 379 265 l 258 265 m 258 550 l 258 706 l 379 706 l 379 550 l 258 550 m 258 817 l 258 972 l 379 972 l 379 817 l 258 817 z "},"⇟":{"ha":638,"x_min":49,"x_max":589,"o":"m 319 0 q 296 15 307 0 l 60 360 q 49 383 49 378 q 64 400 49 400 q 93 392 71 400 l 318 314 l 544 392 q 574 400 567 400 q 589 383 589 400 q 578 360 589 378 l 343 15 q 319 0 333 0 m 64 475 l 64 589 l 574 589 l 574 475 l 64 475 m 258 265 l 258 972 l 379 972 l 379 265 l 258 265 m 64 694 l 64 808 l 574 808 l 574 694 l 64 694 z "},"⇞":{"ha":638,"x_min":49,"x_max":589,"o":"m 64 572 q 49 589 49 572 q 60 613 49 594 l 296 957 q 319 972 307 972 q 343 957 333 972 l 578 613 q 589 589 589 594 q 574 572 589 572 q 544 581 567 572 l 318 658 l 93 581 q 64 572 71 572 m 64 164 l 64 278 l 574 278 l 574 164 l 64 164 m 258 0 l 258 707 l 379 707 l 379 0 l 258 0 m 64 383 l 64 497 l 574 497 l 574 383 l 64 383 z "}}}
